<svg width="90" height="135" viewBox="0 0 90 135" fill="none" xmlns="http://www.w3.org/2000/svg">
<rect width="90" height="135" rx="8" fill="white"/>
<rect x="4.5" y="4.5" width="81" height="126" rx="7.5" stroke="black"/>
<circle cx="44.5" cy="67.5" r="8.5" fill="#E42A37"/>
<path d="M14.1293 20.1918C13.3963 20.1889 12.7656 20.0085 12.2372 19.6506C11.7116 19.2926 11.3068 18.7741 11.0227 18.0952C10.7415 17.4162 10.6023 16.5994 10.6051 15.6449C10.6051 14.6932 10.7457 13.8821 11.027 13.2116C11.3111 12.5412 11.7159 12.0312 12.2415 11.6818C12.7699 11.3295 13.3991 11.1534 14.1293 11.1534C14.8594 11.1534 15.4872 11.3295 16.0128 11.6818C16.5412 12.0341 16.9474 12.5455 17.2315 13.2159C17.5156 13.8835 17.6563 14.6932 17.6534 15.6449C17.6534 16.6023 17.5114 17.4205 17.2273 18.0994C16.946 18.7784 16.5426 19.2969 16.017 19.6548C15.4915 20.0128 14.8622 20.1918 14.1293 20.1918ZM14.1293 18.6619C14.6293 18.6619 15.0284 18.4105 15.3267 17.9077C15.625 17.4048 15.7727 16.6506 15.7699 15.6449C15.7699 14.983 15.7017 14.4318 15.5653 13.9915C15.4318 13.5511 15.2415 13.2202 14.9943 12.9986C14.75 12.777 14.4616 12.6662 14.1293 12.6662C13.6321 12.6662 13.2344 12.9148 12.9361 13.4119C12.6378 13.9091 12.4872 14.6534 12.4844 15.6449C12.4844 16.3153 12.5511 16.875 12.6847 17.3239C12.821 17.7699 13.0128 18.1051 13.2599 18.3295C13.5071 18.5511 13.7969 18.6619 14.1293 18.6619Z" fill="black"/>
<path d="M75.8707 114.808C76.6037 114.811 77.2344 114.991 77.7628 115.349C78.2884 115.707 78.6932 116.226 78.9773 116.905C79.2585 117.584 79.3977 118.401 79.3949 119.355C79.3949 120.307 79.2543 121.118 78.973 121.788C78.6889 122.459 78.2841 122.969 77.7585 123.318C77.2301 123.67 76.6009 123.847 75.8707 123.847C75.1406 123.847 74.5128 123.67 73.9872 123.318C73.4588 122.966 73.0526 122.455 72.7685 121.784C72.4844 121.116 72.3437 120.307 72.3466 119.355C72.3466 118.398 72.4886 117.58 72.7727 116.901C73.054 116.222 73.4574 115.703 73.983 115.345C74.5085 114.987 75.1378 114.808 75.8707 114.808ZM75.8707 116.338C75.3707 116.338 74.9716 116.589 74.6733 117.092C74.375 117.595 74.2273 118.349 74.2301 119.355C74.2301 120.017 74.2983 120.568 74.4347 121.009C74.5682 121.449 74.7585 121.78 75.0057 122.001C75.25 122.223 75.5384 122.334 75.8707 122.334C76.3679 122.334 76.7656 122.085 77.0639 121.588C77.3622 121.091 77.5128 120.347 77.5156 119.355C77.5156 118.685 77.4489 118.125 77.3153 117.676C77.179 117.23 76.9872 116.895 76.7401 116.67C76.4929 116.449 76.2031 116.338 75.8707 116.338Z" fill="black"/>
</svg>
