<svg width="90" height="135" viewBox="0 0 90 135" fill="none" xmlns="http://www.w3.org/2000/svg">
<rect width="90" height="135" rx="8" fill="white"/>
<rect x="4.5" y="4.5" width="81" height="126" rx="7.5" stroke="black"/>
<circle cx="45" cy="80" r="8" fill="#E42A37"/>
<rect x="15" y="76" width="60" height="8" rx="2" fill="black"/>
<circle cx="45" cy="56" r="8" fill="#E42A37"/>
<rect x="15" y="52" width="60" height="8" rx="2" fill="black"/>
<path d="M10.7074 20V18.6705L13.8139 15.794C14.0781 15.5384 14.2997 15.3082 14.4787 15.1037C14.6605 14.8991 14.7983 14.6989 14.892 14.5028C14.9858 14.304 15.0327 14.0895 15.0327 13.8594C15.0327 13.6037 14.9744 13.3835 14.858 13.1989C14.7415 13.0114 14.5824 12.8679 14.3807 12.7685C14.179 12.6662 13.9503 12.6151 13.6946 12.6151C13.4276 12.6151 13.1946 12.669 12.9957 12.777C12.7969 12.8849 12.6435 13.0398 12.5355 13.2415C12.4276 13.4432 12.3736 13.6832 12.3736 13.9616H10.6222C10.6222 13.3906 10.7514 12.8949 11.0099 12.4744C11.2685 12.054 11.6307 11.7287 12.0966 11.4986C12.5625 11.2685 13.0994 11.1534 13.7074 11.1534C14.3324 11.1534 14.8764 11.2642 15.3395 11.4858C15.8054 11.7045 16.1676 12.0085 16.4261 12.3977C16.6847 12.7869 16.8139 13.233 16.8139 13.7358C16.8139 14.0653 16.7486 14.3906 16.6179 14.7116C16.4901 15.0327 16.2614 15.3892 15.9318 15.7812C15.6023 16.1705 15.1378 16.6378 14.5384 17.1832L13.2642 18.4318V18.4915H16.929V20H10.7074Z" fill="black"/>
<path d="M79.2926 115V116.33L76.1861 119.206C75.9219 119.462 75.7003 119.692 75.5213 119.896C75.3395 120.101 75.2017 120.301 75.108 120.497C75.0142 120.696 74.9673 120.911 74.9673 121.141C74.9673 121.396 75.0256 121.616 75.142 121.801C75.2585 121.989 75.4176 122.132 75.6193 122.232C75.821 122.334 76.0497 122.385 76.3054 122.385C76.5724 122.385 76.8054 122.331 77.0043 122.223C77.2031 122.115 77.3565 121.96 77.4645 121.759C77.5724 121.557 77.6264 121.317 77.6264 121.038H79.3778C79.3778 121.609 79.2486 122.105 78.9901 122.526C78.7315 122.946 78.3693 123.271 77.9034 123.501C77.4375 123.732 76.9006 123.847 76.2926 123.847C75.6676 123.847 75.1236 123.736 74.6605 123.514C74.1946 123.295 73.8324 122.991 73.5739 122.602C73.3153 122.213 73.1861 121.767 73.1861 121.264C73.1861 120.935 73.2514 120.609 73.3821 120.288C73.5099 119.967 73.7386 119.611 74.0682 119.219C74.3977 118.83 74.8622 118.362 75.4616 117.817L76.7358 116.568V116.509H73.071V115H79.2926Z" fill="black"/>
</svg>
