<svg width="90" height="135" viewBox="0 0 90 135" fill="none" xmlns="http://www.w3.org/2000/svg">
<path d="M0 8C0 3.58172 3.58172 0 8 0H82C86.4183 0 90 3.58172 90 8V127C90 131.418 86.4183 135 82 135H8C3.58172 135 0 131.418 0 127V8Z" fill="white"/>
<rect x="4.5" y="4.5" width="81" height="126" rx="7.5" stroke="black"/>
<circle cx="45" cy="32" r="6" fill="#E42A37"/>
<rect x="18" y="29" width="54" height="6" rx="2" fill="black"/>
<circle cx="45" cy="45" r="6" fill="#E42A37"/>
<rect x="18" y="42" width="54" height="6" rx="2" fill="black"/>
<circle cx="45" cy="58" r="6" fill="#E42A37"/>
<rect x="18" y="55" width="54" height="6" rx="2" fill="black"/>
<circle cx="45" cy="78" r="6" fill="#E42A37"/>
<rect x="18" y="75" width="54" height="6" rx="2" fill="black"/>
<circle cx="45" cy="91" r="6" fill="#E42A37"/>
<rect x="18" y="88" width="54" height="6" rx="2" fill="black"/>
<circle cx="45" cy="104" r="6" fill="#E42A37"/>
<rect x="18" y="101" width="54" height="6" rx="2" fill="black"/>
<path d="M14.0568 20.1193C13.608 20.1165 13.1747 20.0412 12.7571 19.8935C12.3423 19.7457 11.9702 19.5057 11.6406 19.1733C11.3111 18.8409 11.0497 18.4006 10.8565 17.8523C10.6662 17.304 10.571 16.6307 10.571 15.8324C10.5739 15.0994 10.6577 14.4446 10.8224 13.8679C10.9901 13.2884 11.2287 12.7969 11.5384 12.3935C11.8509 11.9901 12.2244 11.6832 12.6591 11.473C13.0938 11.2599 13.581 11.1534 14.1207 11.1534C14.7031 11.1534 15.2173 11.267 15.6634 11.4943C16.1094 11.7187 16.4673 12.0241 16.7372 12.4105C17.0099 12.7969 17.1747 13.2301 17.2315 13.7102H15.4119C15.3409 13.4062 15.1918 13.1676 14.9645 12.9943C14.7372 12.821 14.456 12.7344 14.1207 12.7344C13.5526 12.7344 13.1207 12.9815 12.8253 13.4759C12.5327 13.9702 12.3835 14.642 12.3778 15.4915H12.4375C12.5682 15.233 12.7443 15.0128 12.9659 14.831C13.1903 14.6463 13.4446 14.5057 13.7287 14.4091C14.0156 14.3097 14.3182 14.2599 14.6364 14.2599C15.1534 14.2599 15.6136 14.3821 16.017 14.6264C16.4205 14.8679 16.7386 15.2003 16.9716 15.6236C17.2045 16.0469 17.321 16.5312 17.321 17.0767C17.321 17.6676 17.1832 18.1932 16.9077 18.6534C16.6349 19.1136 16.2528 19.4744 15.7614 19.7358C15.2727 19.9943 14.7045 20.1222 14.0568 20.1193ZM14.0483 18.6705C14.3324 18.6705 14.5866 18.6023 14.8111 18.4659C15.0355 18.3295 15.2116 18.1449 15.3395 17.9119C15.4673 17.679 15.5312 17.4176 15.5312 17.1278C15.5312 16.8381 15.4673 16.5781 15.3395 16.348C15.2145 16.1179 15.0412 15.9347 14.8196 15.7983C14.598 15.6619 14.3452 15.5938 14.0611 15.5938C13.848 15.5938 13.6506 15.6335 13.4688 15.7131C13.2898 15.7926 13.1321 15.9034 12.9957 16.0455C12.8622 16.1875 12.7571 16.3523 12.6804 16.5398C12.6037 16.7244 12.5653 16.9219 12.5653 17.1321C12.5653 17.4134 12.6293 17.6705 12.7571 17.9034C12.8878 18.1364 13.0639 18.3224 13.2855 18.4616C13.5099 18.6009 13.7642 18.6705 14.0483 18.6705Z" fill="black"/>
<path d="M75.9432 114.881C76.392 114.884 76.8253 114.959 77.2429 115.107C77.6577 115.254 78.0298 115.494 78.3594 115.827C78.6889 116.159 78.9503 116.599 79.1435 117.148C79.3338 117.696 79.429 118.369 79.429 119.168C79.4261 119.901 79.3423 120.555 79.1776 121.132C79.0099 121.712 78.7713 122.203 78.4616 122.607C78.1491 123.01 77.7756 123.317 77.3409 123.527C76.9062 123.74 76.419 123.847 75.8793 123.847C75.2969 123.847 74.7827 123.733 74.3366 123.506C73.8906 123.281 73.5327 122.976 73.2628 122.589C72.9901 122.203 72.8253 121.77 72.7685 121.29H74.5881C74.6591 121.594 74.8082 121.832 75.0355 122.006C75.2628 122.179 75.544 122.266 75.8793 122.266C76.4474 122.266 76.8793 122.018 77.1747 121.524C77.4673 121.03 77.6165 120.358 77.6222 119.509H77.5625C77.4318 119.767 77.2557 119.987 77.0341 120.169C76.8097 120.354 76.5554 120.494 76.2713 120.591C75.9844 120.69 75.6818 120.74 75.3636 120.74C74.8466 120.74 74.3864 120.618 73.983 120.374C73.5795 120.132 73.2614 119.8 73.0284 119.376C72.7955 118.953 72.679 118.469 72.679 117.923C72.679 117.332 72.8168 116.807 73.0923 116.347C73.3651 115.886 73.7472 115.526 74.2386 115.264C74.7273 115.006 75.2955 114.878 75.9432 114.881ZM75.9517 116.33C75.6676 116.33 75.4134 116.398 75.1889 116.534C74.9645 116.67 74.7884 116.855 74.6605 117.088C74.5327 117.321 74.4688 117.582 74.4688 117.872C74.4688 118.162 74.5327 118.422 74.6605 118.652C74.7855 118.882 74.9588 119.065 75.1804 119.202C75.402 119.338 75.6548 119.406 75.9389 119.406C76.152 119.406 76.3494 119.366 76.5312 119.287C76.7102 119.207 76.8679 119.097 77.0043 118.955C77.1378 118.813 77.2429 118.648 77.3196 118.46C77.3963 118.276 77.4347 118.078 77.4347 117.868C77.4347 117.587 77.3707 117.33 77.2429 117.097C77.1122 116.864 76.9361 116.678 76.7145 116.538C76.4901 116.399 76.2358 116.33 75.9517 116.33Z" fill="black"/>
</svg>
