<svg width="90" height="135" viewBox="0 0 90 135" fill="none" xmlns="http://www.w3.org/2000/svg">
<rect width="90" height="135" rx="8" fill="white"/>
<rect x="4.5" y="4.5" width="81" height="126" rx="7.5" stroke="black"/>
<path d="M21.7585 74V65.2727H27.5369V66.794H23.6037V68.8736H27.1534V70.3949H23.6037V74H21.7585ZM28.7781 74V65.2727H30.6232V72.4787H34.3647V74H28.7781ZM37.4318 65.2727V74H35.5866V65.2727H37.4318ZM38.9499 74V65.2727H42.3931C43.055 65.2727 43.619 65.3991 44.0849 65.652C44.5508 65.902 44.9059 66.25 45.1502 66.696C45.3974 67.1392 45.521 67.6506 45.521 68.2301C45.521 68.8097 45.396 69.321 45.146 69.7642C44.896 70.2074 44.5337 70.5526 44.0593 70.7997C43.5877 71.0469 43.0167 71.1705 42.3462 71.1705H40.1516V69.6918H42.0479C42.4031 69.6918 42.6957 69.6307 42.9258 69.5085C43.1587 69.3835 43.332 69.2116 43.4457 68.9929C43.5621 68.7713 43.6204 68.517 43.6204 68.2301C43.6204 67.9403 43.5621 67.6875 43.4457 67.4716C43.332 67.2528 43.1587 67.0838 42.9258 66.9645C42.6928 66.8423 42.3974 66.7812 42.0394 66.7812H40.7951V74H38.9499ZM46.7195 74V65.2727H50.1626C50.8246 65.2727 51.3885 65.3991 51.8544 65.652C52.3203 65.902 52.6754 66.25 52.9197 66.696C53.1669 67.1392 53.2905 67.6506 53.2905 68.2301C53.2905 68.8097 53.1655 69.321 52.9155 69.7642C52.6655 70.2074 52.3033 70.5526 51.8288 70.7997C51.3572 71.0469 50.7862 71.1705 50.1158 71.1705H47.9212V69.6918H49.8175C50.1726 69.6918 50.4652 69.6307 50.6953 69.5085C50.9283 69.3835 51.1016 69.2116 51.2152 68.9929C51.3317 68.7713 51.3899 68.517 51.3899 68.2301C51.3899 67.9403 51.3317 67.6875 51.2152 67.4716C51.1016 67.2528 50.9283 67.0838 50.6953 66.9645C50.4624 66.8423 50.1669 66.7812 49.8089 66.7812H48.5646V74H46.7195ZM54.489 74V65.2727H60.3697V66.794H56.3342V68.8736H60.0671V70.3949H56.3342V72.4787H60.3867V74H54.489ZM64.9304 74H61.8366V65.2727H64.956C65.8338 65.2727 66.5895 65.4474 67.223 65.7969C67.8565 66.1435 68.3438 66.642 68.6847 67.2926C69.0284 67.9432 69.2003 68.7216 69.2003 69.6278C69.2003 70.5369 69.0284 71.3182 68.6847 71.9716C68.3438 72.625 67.8537 73.1264 67.2145 73.4759C66.5781 73.8253 65.8168 74 64.9304 74ZM63.6818 72.419H64.8537C65.3991 72.419 65.858 72.3224 66.2301 72.1293C66.6051 71.9332 66.8864 71.6307 67.0739 71.2216C67.2642 70.8097 67.3594 70.2784 67.3594 69.6278C67.3594 68.983 67.2642 68.456 67.0739 68.0469C66.8864 67.6378 66.6065 67.3366 66.2344 67.1435C65.8622 66.9503 65.4034 66.8537 64.858 66.8537H63.6818V72.419Z" fill="#F60000"/>
</svg>
