<svg width="90" height="135" viewBox="0 0 90 135" fill="none" xmlns="http://www.w3.org/2000/svg">
<rect width="90" height="135" rx="8" fill="white"/>
<rect x="4.5" y="4.5" width="81" height="126" rx="7.5" stroke="black"/>
<path d="M13.9631 20.1193C13.3068 20.1193 12.723 20.0128 12.2116 19.7997C11.7031 19.5838 11.304 19.2898 11.0142 18.9176C10.7244 18.5455 10.5795 18.1236 10.5795 17.652C10.5795 17.2884 10.6619 16.9545 10.8267 16.6506C10.9943 16.3438 11.2216 16.0895 11.5085 15.8878C11.7955 15.6832 12.1165 15.5526 12.4716 15.4957V15.4361C12.0057 15.3423 11.6278 15.1165 11.3381 14.7585C11.0483 14.3977 10.9034 13.9787 10.9034 13.5014C10.9034 13.0497 11.0355 12.6477 11.2997 12.2955C11.5639 11.9403 11.9261 11.6619 12.3864 11.4602C12.8494 11.2557 13.375 11.1534 13.9631 11.1534C14.5511 11.1534 15.0753 11.2557 15.5355 11.4602C15.9986 11.6648 16.3622 11.9446 16.6264 12.2997C16.8906 12.652 17.0241 13.0526 17.027 13.5014C17.0241 13.9815 16.8764 14.4006 16.5838 14.7585C16.2912 15.1165 15.9162 15.3423 15.4588 15.4361V15.4957C15.8082 15.5526 16.125 15.6832 16.4091 15.8878C16.696 16.0895 16.9233 16.3438 17.0909 16.6506C17.2614 16.9545 17.348 17.2884 17.3509 17.652C17.348 18.1236 17.2017 18.5455 16.9119 18.9176C16.6222 19.2898 16.2216 19.5838 15.7102 19.7997C15.2017 20.0128 14.6193 20.1193 13.9631 20.1193ZM13.9631 18.7642C14.2557 18.7642 14.5114 18.7116 14.7301 18.6065C14.9489 18.4986 15.1193 18.3509 15.2415 18.1634C15.3665 17.973 15.429 17.7543 15.429 17.5071C15.429 17.2543 15.3651 17.0312 15.2372 16.8381C15.1094 16.642 14.9361 16.4886 14.7173 16.3778C14.4986 16.2642 14.2472 16.2074 13.9631 16.2074C13.6818 16.2074 13.4304 16.2642 13.2088 16.3778C12.9872 16.4886 12.8125 16.642 12.6847 16.8381C12.5597 17.0312 12.4972 17.2543 12.4972 17.5071C12.4972 17.7543 12.5582 17.973 12.6804 18.1634C12.8026 18.3509 12.9744 18.4986 13.196 18.6065C13.4176 18.7116 13.6733 18.7642 13.9631 18.7642ZM13.9631 14.8651C14.2074 14.8651 14.4247 14.8153 14.6151 14.7159C14.8054 14.6165 14.9545 14.4787 15.0625 14.3026C15.1705 14.1264 15.2244 13.9233 15.2244 13.6932C15.2244 13.4659 15.1705 13.267 15.0625 13.0966C14.9545 12.9233 14.8068 12.7884 14.6193 12.6918C14.4318 12.5923 14.2131 12.5426 13.9631 12.5426C13.7159 12.5426 13.4972 12.5923 13.3068 12.6918C13.1165 12.7884 12.9673 12.9233 12.8594 13.0966C12.7543 13.267 12.7017 13.4659 12.7017 13.6932C12.7017 13.9233 12.7557 14.1264 12.8636 14.3026C12.9716 14.4787 13.1207 14.6165 13.3111 14.7159C13.5014 14.8153 13.7188 14.8651 13.9631 14.8651Z" fill="black"/>
<path d="M19.4329 45.1818L21.0522 49.9205H21.1175L22.7369 45.1818H23.6857L21.592 51H20.5778L18.484 45.1818H19.4329ZM24.4577 51V46.6364H25.3072V51H24.4577ZM24.8867 45.9631C24.739 45.9631 24.6121 45.9138 24.506 45.8153C24.4019 45.715 24.3498 45.5956 24.3498 45.4574C24.3498 45.3172 24.4019 45.1979 24.506 45.0994C24.6121 44.9991 24.739 44.9489 24.8867 44.9489C25.0344 44.9489 25.1604 44.9991 25.2646 45.0994C25.3706 45.1979 25.4237 45.3172 25.4237 45.4574C25.4237 45.5956 25.3706 45.715 25.2646 45.8153C25.1604 45.9138 25.0344 45.9631 24.8867 45.9631ZM28.3306 51.0881C27.9007 51.0881 27.5304 50.9962 27.2198 50.8125C26.9111 50.6269 26.6725 50.3665 26.5039 50.0312C26.3372 49.6941 26.2539 49.2992 26.2539 48.8466C26.2539 48.3996 26.3372 48.0057 26.5039 47.6648C26.6725 47.3239 26.9073 47.0578 27.2085 46.8665C27.5115 46.6752 27.8656 46.5795 28.271 46.5795C28.5172 46.5795 28.7558 46.6203 28.9869 46.7017C29.2179 46.7831 29.4253 46.911 29.609 47.0852C29.7927 47.2595 29.9376 47.4858 30.0437 47.7642C30.1497 48.0407 30.2028 48.3769 30.2028 48.7727V49.0739H26.734V48.4375H29.3704C29.3704 48.214 29.3249 48.0161 29.234 47.8438C29.1431 47.6695 29.0153 47.5322 28.8505 47.4318C28.6876 47.3314 28.4963 47.2812 28.2766 47.2812C28.038 47.2812 27.8297 47.34 27.6516 47.4574C27.4755 47.5729 27.3391 47.7244 27.2425 47.9119C27.1478 48.0975 27.1005 48.2992 27.1005 48.517V49.0142C27.1005 49.3059 27.1516 49.554 27.2539 49.7585C27.3581 49.9631 27.503 50.1193 27.6886 50.2273C27.8742 50.3333 28.091 50.3864 28.3391 50.3864C28.5001 50.3864 28.6469 50.3636 28.7795 50.3182C28.9121 50.2708 29.0266 50.2008 29.1232 50.108C29.2198 50.0152 29.2937 49.9006 29.3448 49.7642L30.1488 49.9091C30.0844 50.1458 29.9689 50.3532 29.8022 50.5312C29.6374 50.7074 29.43 50.8447 29.18 50.9432C28.9319 51.0398 28.6488 51.0881 28.3306 51.0881ZM32.0835 51L30.7994 46.6364H31.6772L32.5323 49.8409H32.5749L33.4329 46.6364H34.3107L35.163 49.8267H35.2056L36.055 46.6364H36.9329L35.6516 51H34.7852L33.8988 47.8494H33.8335L32.9471 51H32.0835ZM41.6942 51.0881C41.2852 51.0881 40.9281 50.9943 40.6232 50.8068C40.3183 50.6193 40.0816 50.357 39.913 50.0199C39.7444 49.6828 39.6602 49.2888 39.6602 48.8381C39.6602 48.3854 39.7444 47.9896 39.913 47.6506C40.0816 47.3116 40.3183 47.0483 40.6232 46.8608C40.9281 46.6733 41.2852 46.5795 41.6942 46.5795C42.1033 46.5795 42.4603 46.6733 42.7653 46.8608C43.0702 47.0483 43.3069 47.3116 43.4755 47.6506C43.6441 47.9896 43.7283 48.3854 43.7283 48.8381C43.7283 49.2888 43.6441 49.6828 43.4755 50.0199C43.3069 50.357 43.0702 50.6193 42.7653 50.8068C42.4603 50.9943 42.1033 51.0881 41.6942 51.0881ZM41.6971 50.375C41.9622 50.375 42.1819 50.3049 42.3562 50.1648C42.5304 50.0246 42.6592 49.8381 42.7425 49.6051C42.8278 49.3722 42.8704 49.1155 42.8704 48.8352C42.8704 48.5568 42.8278 48.3011 42.7425 48.0682C42.6592 47.8333 42.5304 47.6449 42.3562 47.5028C42.1819 47.3608 41.9622 47.2898 41.6971 47.2898C41.43 47.2898 41.2085 47.3608 41.0323 47.5028C40.8581 47.6449 40.7283 47.8333 40.6431 48.0682C40.5598 48.3011 40.5181 48.5568 40.5181 48.8352C40.5181 49.1155 40.5598 49.3722 40.6431 49.6051C40.7283 49.8381 40.8581 50.0246 41.0323 50.1648C41.2085 50.3049 41.43 50.375 41.6971 50.375ZM45.5259 48.4091V51H44.6765V46.6364H45.4918V47.3466H45.5458C45.6462 47.1155 45.8034 46.9299 46.0174 46.7898C46.2333 46.6496 46.5051 46.5795 46.8327 46.5795C47.1301 46.5795 47.3905 46.642 47.614 46.767C47.8375 46.8902 48.0108 47.0739 48.1339 47.3182C48.257 47.5625 48.3185 47.8646 48.3185 48.2244V51H47.4691V48.3267C47.4691 48.0104 47.3867 47.7633 47.2219 47.5852C47.0572 47.4053 46.8308 47.3153 46.543 47.3153C46.346 47.3153 46.1708 47.358 46.0174 47.4432C45.8659 47.5284 45.7456 47.6534 45.6566 47.8182C45.5695 47.9811 45.5259 48.178 45.5259 48.4091ZM51.3384 51.0881C50.9085 51.0881 50.5382 50.9962 50.2276 50.8125C49.9189 50.6269 49.6803 50.3665 49.5117 50.0312C49.3451 49.6941 49.2617 49.2992 49.2617 48.8466C49.2617 48.3996 49.3451 48.0057 49.5117 47.6648C49.6803 47.3239 49.9151 47.0578 50.2163 46.8665C50.5193 46.6752 50.8735 46.5795 51.2788 46.5795C51.525 46.5795 51.7636 46.6203 51.9947 46.7017C52.2257 46.7831 52.4331 46.911 52.6168 47.0852C52.8005 47.2595 52.9454 47.4858 53.0515 47.7642C53.1576 48.0407 53.2106 48.3769 53.2106 48.7727V49.0739H49.7418V48.4375H52.3782C52.3782 48.214 52.3327 48.0161 52.2418 47.8438C52.1509 47.6695 52.0231 47.5322 51.8583 47.4318C51.6954 47.3314 51.5041 47.2812 51.2844 47.2812C51.0458 47.2812 50.8375 47.34 50.6594 47.4574C50.4833 47.5729 50.3469 47.7244 50.2504 47.9119C50.1557 48.0975 50.1083 48.2992 50.1083 48.517V49.0142C50.1083 49.3059 50.1594 49.554 50.2617 49.7585C50.3659 49.9631 50.5108 50.1193 50.6964 50.2273C50.882 50.3333 51.0988 50.3864 51.3469 50.3864C51.5079 50.3864 51.6547 50.3636 51.7873 50.3182C51.9199 50.2708 52.0344 50.2008 52.131 50.108C52.2276 50.0152 52.3015 49.9006 52.3526 49.7642L53.1566 49.9091C53.0922 50.1458 52.9767 50.3532 52.81 50.5312C52.6452 50.7074 52.4379 50.8447 52.1879 50.9432C51.9397 51.0398 51.6566 51.0881 51.3384 51.0881ZM58.1083 51.0881C57.686 51.0881 57.3223 50.9924 57.0174 50.8011C56.7144 50.608 56.4814 50.3419 56.3185 50.0028C56.1557 49.6638 56.0742 49.2756 56.0742 48.8381C56.0742 48.3949 56.1576 48.0038 56.3242 47.6648C56.4909 47.3239 56.7257 47.0578 57.0288 46.8665C57.3318 46.6752 57.6888 46.5795 58.0998 46.5795C58.4312 46.5795 58.7267 46.6411 58.9862 46.7642C59.2456 46.8854 59.4549 47.0559 59.614 47.2756C59.775 47.4953 59.8706 47.7519 59.9009 48.0455H59.0742C59.0288 47.8409 58.9246 47.6648 58.7617 47.517C58.6007 47.3693 58.3848 47.2955 58.114 47.2955C57.8772 47.2955 57.6699 47.358 57.4918 47.483C57.3157 47.6061 57.1784 47.7822 57.0799 48.0114C56.9814 48.2386 56.9322 48.5076 56.9322 48.8182C56.9322 49.1364 56.9805 49.411 57.0771 49.642C57.1737 49.8731 57.31 50.0521 57.4862 50.179C57.6642 50.3059 57.8735 50.3693 58.114 50.3693C58.275 50.3693 58.4208 50.34 58.5515 50.2812C58.6841 50.2206 58.7949 50.1345 58.8839 50.0227C58.9748 49.911 59.0382 49.7765 59.0742 49.6193H59.9009C59.8706 49.9015 59.7788 50.1534 59.6254 50.375C59.4719 50.5966 59.2665 50.7708 59.0089 50.8977C58.7532 51.0246 58.453 51.0881 58.1083 51.0881ZM62.0792 51.0966C61.8027 51.0966 61.5527 51.0455 61.3292 50.9432C61.1057 50.839 60.9286 50.6884 60.7979 50.4915C60.6692 50.2945 60.6048 50.053 60.6048 49.767C60.6048 49.5208 60.6521 49.3182 60.7468 49.1591C60.8415 49 60.9693 48.8741 61.1303 48.7812C61.2913 48.6884 61.4712 48.6184 61.6701 48.571C61.869 48.5237 62.0716 48.4877 62.2781 48.4631C62.5394 48.4328 62.7515 48.4081 62.9144 48.3892C63.0773 48.3684 63.1957 48.3352 63.2695 48.2898C63.3434 48.2443 63.3803 48.1705 63.3803 48.0682V48.0483C63.3803 47.8002 63.3103 47.608 63.1701 47.4716C63.0318 47.3352 62.8254 47.267 62.5508 47.267C62.2648 47.267 62.0394 47.3305 61.8746 47.4574C61.7118 47.5824 61.5991 47.7216 61.5366 47.875L60.7383 47.6932C60.833 47.428 60.9712 47.214 61.1531 47.0511C61.3368 46.8864 61.5479 46.767 61.7866 46.6932C62.0252 46.6174 62.2762 46.5795 62.5394 46.5795C62.7137 46.5795 62.8983 46.6004 63.0934 46.642C63.2904 46.6818 63.4741 46.7557 63.6445 46.8636C63.8169 46.9716 63.958 47.1259 64.0678 47.3267C64.1777 47.5256 64.2326 47.7841 64.2326 48.1023V51H63.4031V50.4034H63.369C63.314 50.5133 63.2317 50.6212 63.1218 50.7273C63.012 50.8333 62.8709 50.9214 62.6985 50.9915C62.5262 51.0616 62.3197 51.0966 62.0792 51.0966ZM62.2638 50.4148C62.4987 50.4148 62.6995 50.3684 62.8661 50.2756C63.0347 50.1828 63.1625 50.0616 63.2496 49.9119C63.3387 49.7604 63.3832 49.5985 63.3832 49.4261V48.8636C63.3529 48.8939 63.2942 48.9223 63.207 48.9489C63.1218 48.9735 63.0243 48.9953 62.9144 49.0142C62.8046 49.0312 62.6976 49.0473 62.5934 49.0625C62.4892 49.0758 62.4021 49.0871 62.332 49.0966C62.1673 49.1174 62.0167 49.1525 61.8803 49.2017C61.7459 49.2509 61.6379 49.322 61.5565 49.4148C61.4769 49.5057 61.4371 49.6269 61.4371 49.7784C61.4371 49.9886 61.5148 50.1477 61.6701 50.2557C61.8254 50.3617 62.0233 50.4148 62.2638 50.4148ZM65.364 51V46.6364H66.185V47.3295H66.2305C66.31 47.0947 66.4502 46.91 66.6509 46.7756C66.8536 46.6392 67.0827 46.571 67.3384 46.571C67.3915 46.571 67.454 46.5729 67.5259 46.5767C67.5998 46.5805 67.6576 46.5852 67.6992 46.5909V47.4034C67.6651 47.3939 67.6045 47.3835 67.5174 47.3722C67.4303 47.3589 67.3432 47.3523 67.256 47.3523C67.0553 47.3523 66.8763 47.3949 66.7191 47.4801C66.5638 47.5634 66.4407 47.6799 66.3498 47.8295C66.2589 47.9773 66.2134 48.1458 66.2134 48.3352V51H65.364ZM69.9116 51.0852C69.5593 51.0852 69.2449 50.9953 68.9684 50.8153C68.6938 50.6335 68.4779 50.375 68.3207 50.0398C68.1654 49.7027 68.0877 49.2983 68.0877 48.8267C68.0877 48.3551 68.1663 47.9517 68.3235 47.6165C68.4826 47.2812 68.7004 47.0246 68.9769 46.8466C69.2534 46.6686 69.5669 46.5795 69.9173 46.5795C70.1881 46.5795 70.4059 46.625 70.5707 46.7159C70.7373 46.8049 70.8661 46.9091 70.957 47.0284C71.0498 47.1477 71.1218 47.2528 71.1729 47.3438H71.2241V45.1818H72.0735V51H71.244V50.321H71.1729C71.1218 50.4138 71.0479 50.5199 70.9513 50.6392C70.8567 50.7585 70.726 50.8627 70.5593 50.9517C70.3926 51.0407 70.1767 51.0852 69.9116 51.0852ZM70.0991 50.3608C70.3434 50.3608 70.5498 50.2964 70.7184 50.1676C70.8888 50.0369 71.0176 49.8561 71.1048 49.625C71.1938 49.3939 71.2383 49.125 71.2383 48.8182C71.2383 48.5152 71.1947 48.25 71.1076 48.0227C71.0205 47.7955 70.8926 47.6184 70.7241 47.4915C70.5555 47.3646 70.3472 47.3011 70.0991 47.3011C69.8434 47.3011 69.6303 47.3674 69.4599 47.5C69.2894 47.6326 69.1606 47.8134 69.0735 48.0426C68.9883 48.2718 68.9457 48.5303 68.9457 48.8182C68.9457 49.1098 68.9892 49.3722 69.0763 49.6051C69.1635 49.8381 69.2923 50.0227 69.4627 50.1591C69.6351 50.2936 69.8472 50.3608 70.0991 50.3608ZM22.4734 61V56.6364H23.3228V61H22.4734ZM22.9023 55.9631C22.7546 55.9631 22.6277 55.9138 22.5217 55.8153C22.4175 55.715 22.3654 55.5956 22.3654 55.4574C22.3654 55.3172 22.4175 55.1979 22.5217 55.0994C22.6277 54.9991 22.7546 54.9489 22.9023 54.9489C23.0501 54.9489 23.176 54.9991 23.2802 55.0994C23.3862 55.1979 23.4393 55.3172 23.4393 55.4574C23.4393 55.5956 23.3862 55.715 23.2802 55.8153C23.176 55.9138 23.0501 55.9631 22.9023 55.9631ZM25.315 58.4091V61H24.4656V56.6364H25.2809V57.3466H25.3349C25.4353 57.1155 25.5924 56.9299 25.8065 56.7898C26.0224 56.6496 26.2942 56.5795 26.6218 56.5795C26.9192 56.5795 27.1796 56.642 27.4031 56.767C27.6265 56.8902 27.7998 57.0739 27.9229 57.3182C28.046 57.5625 28.1076 57.8646 28.1076 58.2244V61H27.2582V58.3267C27.2582 58.0104 27.1758 57.7633 27.011 57.5852C26.8462 57.4053 26.6199 57.3153 26.332 57.3153C26.1351 57.3153 25.9599 57.358 25.8065 57.4432C25.6549 57.5284 25.5347 57.6534 25.4457 57.8182C25.3585 57.9811 25.315 58.178 25.315 58.4091ZM31.9009 62.6364C31.774 62.6364 31.6585 62.6259 31.5543 62.6051C31.4502 62.5862 31.3725 62.5653 31.3214 62.5426L31.5259 61.8466C31.6812 61.8883 31.8195 61.9063 31.9407 61.9006C32.0619 61.8949 32.1689 61.8494 32.2617 61.7642C32.3564 61.679 32.4397 61.5398 32.5117 61.3466L32.6168 61.0568L31.0202 56.6364H31.9293L33.0344 60.0227H33.0799L34.185 56.6364H35.0969L33.2987 61.5824C33.2153 61.8097 33.1093 62.0019 32.9805 62.1591C32.8517 62.3182 32.6983 62.4375 32.5202 62.517C32.3422 62.5966 32.1358 62.6364 31.9009 62.6364ZM37.5849 61.0881C37.1758 61.0881 36.8188 60.9943 36.5138 60.8068C36.2089 60.6193 35.9722 60.357 35.8036 60.0199C35.6351 59.6828 35.5508 59.2888 35.5508 58.8381C35.5508 58.3854 35.6351 57.9896 35.8036 57.6506C35.9722 57.3116 36.2089 57.0483 36.5138 56.8608C36.8188 56.6733 37.1758 56.5795 37.5849 56.5795C37.994 56.5795 38.351 56.6733 38.6559 56.8608C38.9608 57.0483 39.1976 57.3116 39.3661 57.6506C39.5347 57.9896 39.619 58.3854 39.619 58.8381C39.619 59.2888 39.5347 59.6828 39.3661 60.0199C39.1976 60.357 38.9608 60.6193 38.6559 60.8068C38.351 60.9943 37.994 61.0881 37.5849 61.0881ZM37.5877 60.375C37.8529 60.375 38.0726 60.3049 38.2468 60.1648C38.421 60.0246 38.5498 59.8381 38.6332 59.6051C38.7184 59.3722 38.761 59.1155 38.761 58.8352C38.761 58.5568 38.7184 58.3011 38.6332 58.0682C38.5498 57.8333 38.421 57.6449 38.2468 57.5028C38.0726 57.3608 37.8529 57.2898 37.5877 57.2898C37.3207 57.2898 37.0991 57.3608 36.9229 57.5028C36.7487 57.6449 36.619 57.8333 36.5337 58.0682C36.4504 58.3011 36.4087 58.5568 36.4087 58.8352C36.4087 59.1155 36.4504 59.3722 36.5337 59.6051C36.619 59.8381 36.7487 60.0246 36.9229 60.1648C37.0991 60.3049 37.3207 60.375 37.5877 60.375ZM43.3313 59.1903V56.6364H44.1836V61H43.3484V60.2443H43.3029C43.2025 60.4773 43.0415 60.6714 42.82 60.8267C42.6003 60.9801 42.3266 61.0568 41.9989 61.0568C41.7186 61.0568 41.4705 60.9953 41.2546 60.8722C41.0406 60.7472 40.872 60.5625 40.7489 60.3182C40.6277 60.0739 40.5671 59.7718 40.5671 59.4119V56.6364H41.4165V59.3097C41.4165 59.607 41.4989 59.8437 41.6637 60.0199C41.8285 60.196 42.0425 60.2841 42.3058 60.2841C42.4648 60.2841 42.623 60.2443 42.7802 60.1648C42.9393 60.0852 43.0709 59.965 43.1751 59.804C43.2811 59.643 43.3332 59.4384 43.3313 59.1903ZM45.3249 61V56.6364H46.146V57.3295H46.1914C46.271 57.0947 46.4111 56.91 46.6119 56.7756C46.8145 56.6392 47.0437 56.571 47.2994 56.571C47.3524 56.571 47.4149 56.5729 47.4869 56.5767C47.5607 56.5805 47.6185 56.5852 47.6602 56.5909V57.4034C47.6261 57.3939 47.5655 57.3835 47.4783 57.3722C47.3912 57.3589 47.3041 57.3523 47.217 57.3523C47.0162 57.3523 46.8372 57.3949 46.68 57.4801C46.5247 57.5634 46.4016 57.6799 46.3107 57.8295C46.2198 57.9773 46.1744 58.1458 46.1744 58.3352V61H45.3249ZM51.3619 58.4091V61H50.5124V55.1818H51.3505V57.3466H51.4045C51.5067 57.1117 51.663 56.9252 51.8732 56.7869C52.0835 56.6487 52.3581 56.5795 52.6971 56.5795C52.9963 56.5795 53.2577 56.6411 53.4812 56.7642C53.7066 56.8873 53.8808 57.071 54.0039 57.3153C54.1289 57.5578 54.1914 57.8608 54.1914 58.2244V61H53.342V58.3267C53.342 58.0066 53.2596 57.7585 53.0948 57.5824C52.93 57.4044 52.7009 57.3153 52.4073 57.3153C52.2066 57.3153 52.0266 57.358 51.8675 57.4432C51.7103 57.5284 51.5863 57.6534 51.4954 57.8182C51.4064 57.9811 51.3619 58.178 51.3619 58.4091ZM56.5948 61.0966C56.3183 61.0966 56.0683 61.0455 55.8448 60.9432C55.6213 60.839 55.4442 60.6884 55.3136 60.4915C55.1848 60.2945 55.1204 60.053 55.1204 59.767C55.1204 59.5208 55.1677 59.3182 55.2624 59.1591C55.3571 59 55.485 58.8741 55.646 58.7812C55.8069 58.6884 55.9869 58.6184 56.1857 58.571C56.3846 58.5237 56.5872 58.4877 56.7937 58.4631C57.055 58.4328 57.2672 58.4081 57.43 58.3892C57.5929 58.3684 57.7113 58.3352 57.7852 58.2898C57.859 58.2443 57.896 58.1705 57.896 58.0682V58.0483C57.896 57.8002 57.8259 57.608 57.6857 57.4716C57.5475 57.3352 57.341 57.267 57.0664 57.267C56.7804 57.267 56.555 57.3305 56.3903 57.4574C56.2274 57.5824 56.1147 57.7216 56.0522 57.875L55.2539 57.6932C55.3486 57.428 55.4869 57.214 55.6687 57.0511C55.8524 56.8864 56.0636 56.767 56.3022 56.6932C56.5408 56.6174 56.7918 56.5795 57.055 56.5795C57.2293 56.5795 57.4139 56.6004 57.609 56.642C57.806 56.6818 57.9897 56.7557 58.1602 56.8636C58.3325 56.9716 58.4736 57.1259 58.5835 57.3267C58.6933 57.5256 58.7482 57.7841 58.7482 58.1023V61H57.9187V60.4034H57.8846C57.8297 60.5133 57.7473 60.6212 57.6374 60.7273C57.5276 60.8333 57.3865 60.9214 57.2141 60.9915C57.0418 61.0616 56.8353 61.0966 56.5948 61.0966ZM56.7795 60.4148C57.0143 60.4148 57.2151 60.3684 57.3817 60.2756C57.5503 60.1828 57.6781 60.0616 57.7653 59.9119C57.8543 59.7604 57.8988 59.5985 57.8988 59.4261V58.8636C57.8685 58.8939 57.8098 58.9223 57.7227 58.9489C57.6374 58.9735 57.5399 58.9953 57.43 59.0142C57.3202 59.0312 57.2132 59.0473 57.109 59.0625C57.0049 59.0758 56.9177 59.0871 56.8477 59.0966C56.6829 59.1174 56.5323 59.1525 56.396 59.2017C56.2615 59.2509 56.1535 59.322 56.0721 59.4148C55.9925 59.5057 55.9528 59.6269 55.9528 59.7784C55.9528 59.9886 56.0304 60.1477 56.1857 60.2557C56.341 60.3617 56.5389 60.4148 56.7795 60.4148ZM60.729 58.4091V61H59.8796V56.6364H60.695V57.3466H60.7489C60.8493 57.1155 61.0065 56.9299 61.2205 56.7898C61.4364 56.6496 61.7082 56.5795 62.0359 56.5795C62.3332 56.5795 62.5936 56.642 62.8171 56.767C63.0406 56.8902 63.2139 57.0739 63.337 57.3182C63.4601 57.5625 63.5217 57.8646 63.5217 58.2244V61H62.6722V58.3267C62.6722 58.0104 62.5898 57.7633 62.4251 57.5852C62.2603 57.4053 62.034 57.3153 61.7461 57.3153C61.5491 57.3153 61.3739 57.358 61.2205 57.4432C61.069 57.5284 60.9487 57.6534 60.8597 57.8182C60.7726 57.9811 60.729 58.178 60.729 58.4091ZM66.2944 61.0852C65.9421 61.0852 65.6277 60.9953 65.3512 60.8153C65.0766 60.6335 64.8607 60.375 64.7035 60.0398C64.5482 59.7027 64.4705 59.2983 64.4705 58.8267C64.4705 58.3551 64.5491 57.9517 64.7063 57.6165C64.8654 57.2812 65.0832 57.0246 65.3597 56.8466C65.6362 56.6686 65.9497 56.5795 66.3001 56.5795C66.5709 56.5795 66.7887 56.625 66.9535 56.7159C67.1201 56.8049 67.2489 56.9091 67.3398 57.0284C67.4326 57.1477 67.5046 57.2528 67.5558 57.3438H67.6069V55.1818H68.4563V61H67.6268V60.321H67.5558C67.5046 60.4138 67.4308 60.5199 67.3342 60.6392C67.2395 60.7585 67.1088 60.8627 66.9421 60.9517C66.7754 61.0407 66.5595 61.0852 66.2944 61.0852ZM66.4819 60.3608C66.7262 60.3608 66.9326 60.2964 67.1012 60.1676C67.2717 60.0369 67.4004 59.8561 67.4876 59.625C67.5766 59.3939 67.6211 59.125 67.6211 58.8182C67.6211 58.5152 67.5775 58.25 67.4904 58.0227C67.4033 57.7955 67.2754 57.6184 67.1069 57.4915C66.9383 57.3646 66.73 57.3011 66.4819 57.3011C66.2262 57.3011 66.0131 57.3674 65.8427 57.5C65.6722 57.6326 65.5434 57.8134 65.4563 58.0426C65.3711 58.2718 65.3285 58.5303 65.3285 58.8182C65.3285 59.1098 65.372 59.3722 65.4592 59.6051C65.5463 59.8381 65.6751 60.0227 65.8455 60.1591C66.0179 60.2936 66.23 60.3608 66.4819 60.3608Z" fill="black"/>
<path d="M76.0369 114.881C76.6932 114.881 77.277 114.987 77.7884 115.2C78.2969 115.416 78.696 115.71 78.9858 116.082C79.2756 116.455 79.4205 116.876 79.4205 117.348C79.4205 117.712 79.3381 118.045 79.1733 118.349C79.0057 118.656 78.7784 118.911 78.4915 119.112C78.2045 119.317 77.8835 119.447 77.5284 119.504V119.564C77.9943 119.658 78.3722 119.884 78.6619 120.241C78.9517 120.602 79.0966 121.021 79.0966 121.499C79.0966 121.95 78.9645 122.352 78.7003 122.705C78.4361 123.06 78.0739 123.338 77.6136 123.54C77.1506 123.744 76.625 123.847 76.0369 123.847C75.4489 123.847 74.9247 123.744 74.4645 123.54C74.0014 123.335 73.6378 123.055 73.3736 122.7C73.1094 122.348 72.9759 121.947 72.973 121.499C72.9759 121.018 73.1236 120.599 73.4162 120.241C73.7088 119.884 74.0838 119.658 74.5412 119.564V119.504C74.1918 119.447 73.875 119.317 73.5909 119.112C73.304 118.911 73.0767 118.656 72.9091 118.349C72.7386 118.045 72.652 117.712 72.6491 117.348C72.652 116.876 72.7983 116.455 73.0881 116.082C73.3778 115.71 73.7784 115.416 74.2898 115.2C74.7983 114.987 75.3807 114.881 76.0369 114.881ZM76.0369 116.236C75.7443 116.236 75.4886 116.288 75.2699 116.393C75.0511 116.501 74.8807 116.649 74.7585 116.837C74.6335 117.027 74.571 117.246 74.571 117.493C74.571 117.746 74.6349 117.969 74.7628 118.162C74.8906 118.358 75.0639 118.511 75.2827 118.622C75.5014 118.736 75.7528 118.793 76.0369 118.793C76.3182 118.793 76.5696 118.736 76.7912 118.622C77.0128 118.511 77.1875 118.358 77.3153 118.162C77.4403 117.969 77.5028 117.746 77.5028 117.493C77.5028 117.246 77.4418 117.027 77.3196 116.837C77.1974 116.649 77.0256 116.501 76.804 116.393C76.5824 116.288 76.3267 116.236 76.0369 116.236ZM76.0369 120.135C75.7926 120.135 75.5753 120.185 75.3849 120.284C75.1946 120.384 75.0455 120.521 74.9375 120.697C74.8295 120.874 74.7756 121.077 74.7756 121.307C74.7756 121.534 74.8295 121.733 74.9375 121.903C75.0455 122.077 75.1932 122.212 75.3807 122.308C75.5682 122.408 75.7869 122.457 76.0369 122.457C76.2841 122.457 76.5028 122.408 76.6932 122.308C76.8835 122.212 77.0327 122.077 77.1406 121.903C77.2457 121.733 77.2983 121.534 77.2983 121.307C77.2983 121.077 77.2443 120.874 77.1364 120.697C77.0284 120.521 76.8793 120.384 76.6889 120.284C76.4986 120.185 76.2812 120.135 76.0369 120.135Z" fill="black"/>
</svg>
