<svg width="90" height="135" viewBox="0 0 90 135" fill="none" xmlns="http://www.w3.org/2000/svg">
<rect width="90" height="135" rx="8" fill="white"/>
<rect x="4.5" y="4.5" width="81" height="126" rx="7.5" stroke="black"/>
<path d="M14.5043 11.2727V20H12.6591V13.0241H12.608L10.6094 14.277V12.6406L12.7699 11.2727H14.5043ZM20.3754 11.2727V20H18.5302V13.0241H18.479L16.4805 14.277V12.6406L18.641 11.2727H20.3754Z" fill="black"/>
<path d="M20.4141 46.7102C20.3838 46.4413 20.2588 46.233 20.0391 46.0852C19.8194 45.9356 19.5429 45.8608 19.2095 45.8608C18.9709 45.8608 18.7644 45.8987 18.5902 45.9744C18.416 46.0483 18.2805 46.1506 18.1839 46.2812C18.0893 46.41 18.0419 46.5568 18.0419 46.7216C18.0419 46.8598 18.0741 46.9792 18.1385 47.0795C18.2048 47.1799 18.291 47.2642 18.397 47.3324C18.505 47.3987 18.6205 47.4545 18.7436 47.5C18.8667 47.5436 18.9851 47.5795 19.0987 47.608L19.6669 47.7557C19.8525 47.8011 20.0429 47.8627 20.2379 47.9403C20.433 48.018 20.6139 48.1203 20.7805 48.2472C20.9472 48.3741 21.0817 48.5312 21.1839 48.7188C21.2881 48.9062 21.3402 49.1307 21.3402 49.392C21.3402 49.7216 21.255 50.0142 21.0845 50.2699C20.916 50.5256 20.6707 50.7273 20.3487 50.875C20.0286 51.0227 19.6413 51.0966 19.1868 51.0966C18.7512 51.0966 18.3743 51.0275 18.0561 50.8892C17.7379 50.7509 17.4889 50.5549 17.3089 50.3011C17.129 50.0455 17.0296 49.7424 17.0107 49.392H17.8913C17.9084 49.6023 17.9766 49.7775 18.0959 49.9176C18.2171 50.0559 18.3714 50.1591 18.5589 50.2273C18.7483 50.2936 18.9557 50.3267 19.1811 50.3267C19.4292 50.3267 19.6499 50.2879 19.843 50.2102C20.0381 50.1307 20.1915 50.0208 20.3033 49.8807C20.415 49.7386 20.4709 49.5729 20.4709 49.3835C20.4709 49.2112 20.4216 49.0701 20.3232 48.9602C20.2266 48.8504 20.0949 48.7595 19.9283 48.6875C19.7635 48.6155 19.5769 48.5521 19.3686 48.4972L18.6811 48.3097C18.2152 48.1828 17.8459 47.9962 17.5732 47.75C17.3023 47.5038 17.1669 47.178 17.1669 46.7727C17.1669 46.4375 17.2578 46.1449 17.4396 45.8949C17.6214 45.6449 17.8677 45.4508 18.1783 45.3125C18.4889 45.1723 18.8393 45.1023 19.2294 45.1023C19.6233 45.1023 19.9709 45.1714 20.272 45.3097C20.575 45.4479 20.8137 45.6383 20.9879 45.8807C21.1622 46.1212 21.2531 46.3977 21.2607 46.7102H20.4141ZM23.267 51L21.983 46.6364H22.8608L23.7159 49.8409H23.7585L24.6165 46.6364H25.4943L26.3466 49.8267H26.3892L27.2386 46.6364H28.1165L26.8352 51H25.9688L25.0824 47.8494H25.017L24.1307 51H23.267ZM30.1925 51.0966C29.916 51.0966 29.666 51.0455 29.4425 50.9432C29.219 50.839 29.0419 50.6884 28.9112 50.4915C28.7824 50.2945 28.718 50.053 28.718 49.767C28.718 49.5208 28.7654 49.3182 28.8601 49.1591C28.9548 49 29.0826 48.8741 29.2436 48.7812C29.4046 48.6884 29.5845 48.6184 29.7834 48.571C29.9822 48.5237 30.1849 48.4877 30.3913 48.4631C30.6527 48.4328 30.8648 48.4081 31.0277 48.3892C31.1906 48.3684 31.3089 48.3352 31.3828 48.2898C31.4567 48.2443 31.4936 48.1705 31.4936 48.0682V48.0483C31.4936 47.8002 31.4235 47.608 31.2834 47.4716C31.1451 47.3352 30.9387 47.267 30.6641 47.267C30.3781 47.267 30.1527 47.3305 29.9879 47.4574C29.825 47.5824 29.7124 47.7216 29.6499 47.875L28.8516 47.6932C28.9463 47.428 29.0845 47.214 29.2663 47.0511C29.45 46.8864 29.6612 46.767 29.8999 46.6932C30.1385 46.6174 30.3894 46.5795 30.6527 46.5795C30.8269 46.5795 31.0116 46.6004 31.2067 46.642C31.4036 46.6818 31.5874 46.7557 31.7578 46.8636C31.9302 46.9716 32.0713 47.1259 32.1811 47.3267C32.291 47.5256 32.3459 47.7841 32.3459 48.1023V51H31.5163V50.4034H31.4822C31.4273 50.5133 31.3449 50.6212 31.2351 50.7273C31.1252 50.8333 30.9841 50.9214 30.8118 50.9915C30.6394 51.0616 30.433 51.0966 30.1925 51.0966ZM30.3771 50.4148C30.612 50.4148 30.8127 50.3684 30.9794 50.2756C31.148 50.1828 31.2758 50.0616 31.3629 49.9119C31.4519 49.7604 31.4964 49.5985 31.4964 49.4261V48.8636C31.4661 48.8939 31.4074 48.9223 31.3203 48.9489C31.2351 48.9735 31.1375 48.9953 31.0277 49.0142C30.9179 49.0312 30.8108 49.0473 30.7067 49.0625C30.6025 49.0758 30.5154 49.0871 30.4453 49.0966C30.2805 49.1174 30.13 49.1525 29.9936 49.2017C29.8591 49.2509 29.7512 49.322 29.6697 49.4148C29.5902 49.5057 29.5504 49.6269 29.5504 49.7784C29.5504 49.9886 29.6281 50.1477 29.7834 50.2557C29.9387 50.3617 30.1366 50.4148 30.3771 50.4148ZM33.4773 52.6364V46.6364H34.3068V47.3438H34.3778C34.4271 47.2528 34.4981 47.1477 34.5909 47.0284C34.6837 46.9091 34.8125 46.8049 34.9773 46.7159C35.142 46.625 35.3598 46.5795 35.6307 46.5795C35.983 46.5795 36.2973 46.6686 36.5739 46.8466C36.8504 47.0246 37.0672 47.2812 37.2244 47.6165C37.3835 47.9517 37.4631 48.3551 37.4631 48.8267C37.4631 49.2983 37.3845 49.7027 37.2273 50.0398C37.0701 50.375 36.8542 50.6335 36.5795 50.8153C36.3049 50.9953 35.9915 51.0852 35.6392 51.0852C35.3741 51.0852 35.1572 51.0407 34.9886 50.9517C34.822 50.8627 34.6913 50.7585 34.5966 50.6392C34.5019 50.5199 34.429 50.4138 34.3778 50.321H34.3267V52.6364H33.4773ZM34.3097 48.8182C34.3097 49.125 34.3542 49.3939 34.4432 49.625C34.5322 49.8561 34.661 50.0369 34.8295 50.1676C34.9981 50.2964 35.2045 50.3608 35.4489 50.3608C35.7027 50.3608 35.9148 50.2936 36.0852 50.1591C36.2557 50.0227 36.3845 49.8381 36.4716 49.6051C36.5606 49.3722 36.6051 49.1098 36.6051 48.8182C36.6051 48.5303 36.5616 48.2718 36.4744 48.0426C36.3892 47.8134 36.2604 47.6326 36.0881 47.5C35.9176 47.3674 35.7045 47.3011 35.4489 47.3011C35.2027 47.3011 34.9943 47.3646 34.8239 47.4915C34.6553 47.6184 34.5275 47.7955 34.4403 48.0227C34.3532 48.25 34.3097 48.5152 34.3097 48.8182ZM41.0916 51H40.1598L42.2536 45.1818H43.2678L45.3615 51H44.4297L42.7848 46.2386H42.7393L41.0916 51ZM41.2479 48.7216H44.2706V49.4602H41.2479V48.7216ZM50.8977 45.1818V51H50.0909L47.1335 46.733H47.0795V51H46.2017V45.1818H47.0142L49.9744 49.4545H50.0284V45.1818H50.8977ZM51.7294 45.1818H52.7266L54.2464 47.8267H54.3089L55.8288 45.1818H56.826L54.7152 48.7159V51H53.8402V48.7159L51.7294 45.1818ZM61.7408 46.6364V47.3182H59.3572V46.6364H61.7408ZM59.9964 45.5909H60.8459V49.7188C60.8459 49.8835 60.8705 50.0076 60.9197 50.0909C60.969 50.1723 61.0324 50.2282 61.1101 50.2585C61.1896 50.2869 61.2758 50.3011 61.3686 50.3011C61.4368 50.3011 61.4964 50.2964 61.5476 50.2869C61.5987 50.2775 61.6385 50.2699 61.6669 50.2642L61.8203 50.9659C61.7711 50.9848 61.701 51.0038 61.6101 51.0227C61.5192 51.0436 61.4055 51.0549 61.2692 51.0568C61.0457 51.0606 60.8374 51.0208 60.6442 50.9375C60.451 50.8542 60.2947 50.7254 60.1754 50.5511C60.0561 50.3769 59.9964 50.1581 59.9964 49.8949V45.5909ZM63.6264 51L62.3423 46.6364H63.2202L64.0753 49.8409H64.1179L64.9759 46.6364H65.8537L66.706 49.8267H66.7486L67.598 46.6364H68.4759L67.1946 51H66.3281L65.4418 47.8494H65.3764L64.4901 51H63.6264ZM70.9872 51.0881C70.5781 51.0881 70.2211 50.9943 69.9162 50.8068C69.6113 50.6193 69.3745 50.357 69.206 50.0199C69.0374 49.6828 68.9531 49.2888 68.9531 48.8381C68.9531 48.3854 69.0374 47.9896 69.206 47.6506C69.3745 47.3116 69.6113 47.0483 69.9162 46.8608C70.2211 46.6733 70.5781 46.5795 70.9872 46.5795C71.3963 46.5795 71.7533 46.6733 72.0582 46.8608C72.3632 47.0483 72.5999 47.3116 72.7685 47.6506C72.937 47.9896 73.0213 48.3854 73.0213 48.8381C73.0213 49.2888 72.937 49.6828 72.7685 50.0199C72.5999 50.357 72.3632 50.6193 72.0582 50.8068C71.7533 50.9943 71.3963 51.0881 70.9872 51.0881ZM70.9901 50.375C71.2552 50.375 71.4749 50.3049 71.6491 50.1648C71.8234 50.0246 71.9522 49.8381 72.0355 49.6051C72.1207 49.3722 72.1634 49.1155 72.1634 48.8352C72.1634 48.5568 72.1207 48.3011 72.0355 48.0682C71.9522 47.8333 71.8234 47.6449 71.6491 47.5028C71.4749 47.3608 71.2552 47.2898 70.9901 47.2898C70.723 47.2898 70.5014 47.3608 70.3253 47.5028C70.151 47.6449 70.0213 47.8333 69.9361 48.0682C69.8527 48.3011 69.8111 48.5568 69.8111 48.8352C69.8111 49.1155 69.8527 49.3722 69.9361 49.6051C70.0213 49.8381 70.151 50.0246 70.3253 50.1648C70.5014 50.3049 70.723 50.375 70.9901 50.375ZM21.1825 61.0881C20.7602 61.0881 20.3965 60.9924 20.0916 60.8011C19.7886 60.608 19.5556 60.3419 19.3928 60.0028C19.2299 59.6638 19.1484 59.2756 19.1484 58.8381C19.1484 58.3949 19.2318 58.0038 19.3984 57.6648C19.5651 57.3239 19.8 57.0578 20.103 56.8665C20.406 56.6752 20.763 56.5795 21.174 56.5795C21.5054 56.5795 21.8009 56.6411 22.0604 56.7642C22.3198 56.8854 22.5291 57.0559 22.6882 57.2756C22.8492 57.4953 22.9448 57.7519 22.9751 58.0455H22.1484C22.103 57.8409 21.9988 57.6648 21.8359 57.517C21.675 57.3693 21.459 57.2955 21.1882 57.2955C20.9515 57.2955 20.7441 57.358 20.5661 57.483C20.3899 57.6061 20.2526 57.7822 20.1541 58.0114C20.0556 58.2386 20.0064 58.5076 20.0064 58.8182C20.0064 59.1364 20.0547 59.411 20.1513 59.642C20.2479 59.8731 20.3842 60.0521 20.5604 60.179C20.7384 60.3059 20.9477 60.3693 21.1882 60.3693C21.3492 60.3693 21.495 60.34 21.6257 60.2812C21.7583 60.2206 21.8691 60.1345 21.9581 60.0227C22.049 59.911 22.1125 59.7765 22.1484 59.6193H22.9751C22.9448 59.9015 22.853 60.1534 22.6996 60.375C22.5462 60.5966 22.3407 60.7708 22.0831 60.8977C21.8274 61.0246 21.5272 61.0881 21.1825 61.0881ZM25.1534 61.0966C24.8769 61.0966 24.6269 61.0455 24.4034 60.9432C24.1799 60.839 24.0028 60.6884 23.8722 60.4915C23.7434 60.2945 23.679 60.053 23.679 59.767C23.679 59.5208 23.7263 59.3182 23.821 59.1591C23.9157 59 24.0436 58.8741 24.2045 58.7812C24.3655 58.6884 24.5455 58.6184 24.7443 58.571C24.9432 58.5237 25.1458 58.4877 25.3523 58.4631C25.6136 58.4328 25.8258 58.4081 25.9886 58.3892C26.1515 58.3684 26.2699 58.3352 26.3438 58.2898C26.4176 58.2443 26.4545 58.1705 26.4545 58.0682V58.0483C26.4545 57.8002 26.3845 57.608 26.2443 57.4716C26.1061 57.3352 25.8996 57.267 25.625 57.267C25.339 57.267 25.1136 57.3305 24.9489 57.4574C24.786 57.5824 24.6733 57.7216 24.6108 57.875L23.8125 57.6932C23.9072 57.428 24.0455 57.214 24.2273 57.0511C24.411 56.8864 24.6222 56.767 24.8608 56.6932C25.0994 56.6174 25.3504 56.5795 25.6136 56.5795C25.7879 56.5795 25.9725 56.6004 26.1676 56.642C26.3646 56.6818 26.5483 56.7557 26.7188 56.8636C26.8911 56.9716 27.0322 57.1259 27.142 57.3267C27.2519 57.5256 27.3068 57.7841 27.3068 58.1023V61H26.4773V60.4034H26.4432C26.3883 60.5133 26.3059 60.6212 26.196 60.7273C26.0862 60.8333 25.9451 60.9214 25.7727 60.9915C25.6004 61.0616 25.3939 61.0966 25.1534 61.0966ZM25.3381 60.4148C25.5729 60.4148 25.7737 60.3684 25.9403 60.2756C26.1089 60.1828 26.2367 60.0616 26.3239 59.9119C26.4129 59.7604 26.4574 59.5985 26.4574 59.4261V58.8636C26.4271 58.8939 26.3684 58.9223 26.2812 58.9489C26.196 58.9735 26.0985 58.9953 25.9886 59.0142C25.8788 59.0312 25.7718 59.0473 25.6676 59.0625C25.5634 59.0758 25.4763 59.0871 25.4062 59.0966C25.2415 59.1174 25.0909 59.1525 24.9545 59.2017C24.8201 59.2509 24.7121 59.322 24.6307 59.4148C24.5511 59.5057 24.5114 59.6269 24.5114 59.7784C24.5114 59.9886 24.589 60.1477 24.7443 60.2557C24.8996 60.3617 25.0975 60.4148 25.3381 60.4148ZM28.4382 61V56.6364H29.2592V57.3295H29.3047C29.3842 57.0947 29.5244 56.91 29.7251 56.7756C29.9278 56.6392 30.157 56.571 30.4126 56.571C30.4657 56.571 30.5282 56.5729 30.6001 56.5767C30.674 56.5805 30.7318 56.5852 30.7734 56.5909V57.4034C30.7393 57.3939 30.6787 57.3835 30.5916 57.3722C30.5045 57.3589 30.4174 57.3523 30.3303 57.3523C30.1295 57.3523 29.9505 57.3949 29.7933 57.4801C29.638 57.5634 29.5149 57.6799 29.424 57.8295C29.3331 57.9773 29.2876 58.1458 29.2876 58.3352V61H28.4382ZM32.9858 61.0852C32.6335 61.0852 32.3191 60.9953 32.0426 60.8153C31.768 60.6335 31.5521 60.375 31.3949 60.0398C31.2396 59.7027 31.1619 59.2983 31.1619 58.8267C31.1619 58.3551 31.2405 57.9517 31.3977 57.6165C31.5568 57.2812 31.7746 57.0246 32.0511 56.8466C32.3277 56.6686 32.6411 56.5795 32.9915 56.5795C33.2623 56.5795 33.4801 56.625 33.6449 56.7159C33.8116 56.8049 33.9403 56.9091 34.0312 57.0284C34.1241 57.1477 34.196 57.2528 34.2472 57.3438H34.2983V55.1818H35.1477V61H34.3182V60.321H34.2472C34.196 60.4138 34.1222 60.5199 34.0256 60.6392C33.9309 60.7585 33.8002 60.8627 33.6335 60.9517C33.4669 61.0407 33.2509 61.0852 32.9858 61.0852ZM33.1733 60.3608C33.4176 60.3608 33.6241 60.2964 33.7926 60.1676C33.9631 60.0369 34.0919 59.8561 34.179 59.625C34.268 59.3939 34.3125 59.125 34.3125 58.8182C34.3125 58.5152 34.2689 58.25 34.1818 58.0227C34.0947 57.7955 33.9669 57.6184 33.7983 57.4915C33.6297 57.3646 33.4214 57.3011 33.1733 57.3011C32.9176 57.3011 32.7045 57.3674 32.5341 57.5C32.3636 57.6326 32.2348 57.8134 32.1477 58.0426C32.0625 58.2718 32.0199 58.5303 32.0199 58.8182C32.0199 59.1098 32.0634 59.3722 32.1506 59.6051C32.2377 59.8381 32.3665 60.0227 32.5369 60.1591C32.7093 60.2936 32.9214 60.3608 33.1733 60.3608ZM39.63 57.7017L38.8601 57.8381C38.8279 57.7396 38.7768 57.6458 38.7067 57.5568C38.6385 57.4678 38.5457 57.3949 38.4283 57.3381C38.3108 57.2812 38.1641 57.2528 37.9879 57.2528C37.7474 57.2528 37.5466 57.3068 37.3857 57.4148C37.2247 57.5208 37.1442 57.6581 37.1442 57.8267C37.1442 57.9725 37.1982 58.09 37.3061 58.179C37.4141 58.268 37.5883 58.3409 37.8288 58.3977L38.522 58.5568C38.9235 58.6496 39.2228 58.7926 39.4197 58.9858C39.6167 59.179 39.7152 59.4299 39.7152 59.7386C39.7152 60 39.6394 60.233 39.4879 60.4375C39.3383 60.6402 39.129 60.7992 38.8601 60.9148C38.593 61.0303 38.2834 61.0881 37.9311 61.0881C37.4425 61.0881 37.0438 60.9839 36.7351 60.7756C36.4264 60.5653 36.237 60.267 36.1669 59.8807L36.9879 59.7557C37.0391 59.9697 37.1442 60.1316 37.3033 60.2415C37.4624 60.3494 37.6697 60.4034 37.9254 60.4034C38.2038 60.4034 38.4264 60.3456 38.593 60.2301C38.7597 60.1127 38.843 59.9697 38.843 59.8011C38.843 59.6648 38.7919 59.5502 38.6896 59.4574C38.5893 59.3646 38.4349 59.2945 38.2266 59.2472L37.4879 59.0852C37.0807 58.9924 36.7796 58.8447 36.5845 58.642C36.3913 58.4394 36.2947 58.1828 36.2947 57.8722C36.2947 57.6146 36.3667 57.3892 36.5107 57.196C36.6546 57.0028 36.8535 56.8523 37.1072 56.7443C37.361 56.6345 37.6518 56.5795 37.9794 56.5795C38.451 56.5795 38.8222 56.6818 39.093 56.8864C39.3639 57.089 39.5429 57.3608 39.63 57.7017ZM43.7124 61L42.4283 56.6364H43.3061L44.1612 59.8409H44.2038L45.0618 56.6364H45.9396L46.7919 59.8267H46.8345L47.6839 56.6364H48.5618L47.2805 61H46.4141L45.5277 57.8494H45.4624L44.576 61H43.7124ZM49.3679 61V56.6364H50.2173V61H49.3679ZM49.7969 55.9631C49.6491 55.9631 49.5223 55.9138 49.4162 55.8153C49.312 55.715 49.2599 55.5956 49.2599 55.4574C49.2599 55.3172 49.312 55.1979 49.4162 55.0994C49.5223 54.9991 49.6491 54.9489 49.7969 54.9489C49.9446 54.9489 50.0705 54.9991 50.1747 55.0994C50.2808 55.1979 50.3338 55.3172 50.3338 55.4574C50.3338 55.5956 50.2808 55.715 50.1747 55.8153C50.0705 55.9138 49.9446 55.9631 49.7969 55.9631ZM53.397 56.6364V57.3182H51.0135V56.6364H53.397ZM51.6527 55.5909H52.5021V59.7188C52.5021 59.8835 52.5268 60.0076 52.576 60.0909C52.6252 60.1723 52.6887 60.2282 52.7663 60.2585C52.8459 60.2869 52.9321 60.3011 53.0249 60.3011C53.093 60.3011 53.1527 60.2964 53.2038 60.2869C53.255 60.2775 53.2947 60.2699 53.3232 60.2642L53.4766 60.9659C53.4273 60.9848 53.3572 61.0038 53.2663 61.0227C53.1754 61.0436 53.0618 61.0549 52.9254 61.0568C52.7019 61.0606 52.4936 61.0208 52.3004 60.9375C52.1072 60.8542 51.951 60.7254 51.8317 60.5511C51.7124 60.3769 51.6527 60.1581 51.6527 59.8949V55.5909ZM55.2798 58.4091V61H54.4304V55.1818H55.2685V57.3466H55.3224C55.4247 57.1117 55.581 56.9252 55.7912 56.7869C56.0014 56.6487 56.276 56.5795 56.6151 56.5795C56.9143 56.5795 57.1757 56.6411 57.3991 56.7642C57.6245 56.8873 57.7988 57.071 57.9219 57.3153C58.0469 57.5578 58.1094 57.8608 58.1094 58.2244V61H57.2599V58.3267C57.2599 58.0066 57.1776 57.7585 57.0128 57.5824C56.848 57.4044 56.6188 57.3153 56.3253 57.3153C56.1245 57.3153 55.9446 57.358 55.7855 57.4432C55.6283 57.5284 55.5043 57.6534 55.4134 57.8182C55.3243 57.9811 55.2798 58.178 55.2798 58.4091ZM61.081 61.0881C60.6719 61.0881 60.3149 60.9943 60.0099 60.8068C59.705 60.6193 59.4683 60.357 59.2997 60.0199C59.1312 59.6828 59.0469 59.2888 59.0469 58.8381C59.0469 58.3854 59.1312 57.9896 59.2997 57.6506C59.4683 57.3116 59.705 57.0483 60.0099 56.8608C60.3149 56.6733 60.6719 56.5795 61.081 56.5795C61.4901 56.5795 61.8471 56.6733 62.152 56.8608C62.4569 57.0483 62.6937 57.3116 62.8622 57.6506C63.0308 57.9896 63.1151 58.3854 63.1151 58.8381C63.1151 59.2888 63.0308 59.6828 62.8622 60.0199C62.6937 60.357 62.4569 60.6193 62.152 60.8068C61.8471 60.9943 61.4901 61.0881 61.081 61.0881ZM61.0838 60.375C61.349 60.375 61.5687 60.3049 61.7429 60.1648C61.9171 60.0246 62.0459 59.8381 62.1293 59.6051C62.2145 59.3722 62.2571 59.1155 62.2571 58.8352C62.2571 58.5568 62.2145 58.3011 62.1293 58.0682C62.0459 57.8333 61.9171 57.6449 61.7429 57.5028C61.5687 57.3608 61.349 57.2898 61.0838 57.2898C60.8168 57.2898 60.5952 57.3608 60.419 57.5028C60.2448 57.6449 60.1151 57.8333 60.0298 58.0682C59.9465 58.3011 59.9048 58.5568 59.9048 58.8352C59.9048 59.1155 59.9465 59.3722 60.0298 59.6051C60.1151 59.8381 60.2448 60.0246 60.419 60.1648C60.5952 60.3049 60.8168 60.375 61.0838 60.375ZM66.8274 59.1903V56.6364H67.6797V61H66.8445V60.2443H66.799C66.6986 60.4773 66.5376 60.6714 66.3161 60.8267C66.0964 60.9801 65.8227 61.0568 65.495 61.0568C65.2147 61.0568 64.9666 60.9953 64.7507 60.8722C64.5367 60.7472 64.3681 60.5625 64.245 60.3182C64.1238 60.0739 64.0632 59.7718 64.0632 59.4119V56.6364H64.9126V59.3097C64.9126 59.607 64.995 59.8437 65.1598 60.0199C65.3246 60.196 65.5386 60.2841 65.8018 60.2841C65.9609 60.2841 66.1191 60.2443 66.2763 60.1648C66.4354 60.0852 66.567 59.965 66.6712 59.804C66.7772 59.643 66.8293 59.4384 66.8274 59.1903ZM70.858 56.6364V57.3182H68.4744V56.6364H70.858ZM69.1136 55.5909H69.9631V59.7188C69.9631 59.8835 69.9877 60.0076 70.0369 60.0909C70.0862 60.1723 70.1496 60.2282 70.2273 60.2585C70.3068 60.2869 70.393 60.3011 70.4858 60.3011C70.554 60.3011 70.6136 60.2964 70.6648 60.2869C70.7159 60.2775 70.7557 60.2699 70.7841 60.2642L70.9375 60.9659C70.8883 60.9848 70.8182 61.0038 70.7273 61.0227C70.6364 61.0436 70.5227 61.0549 70.3864 61.0568C70.1629 61.0606 69.9545 61.0208 69.7614 60.9375C69.5682 60.8542 69.4119 60.7254 69.2926 60.5511C69.1733 60.3769 69.1136 60.1581 69.1136 59.8949V55.5909ZM32.522 65.1818V71H31.6726V65.1818H32.522ZM35.5028 71.0881C35.0938 71.0881 34.7367 70.9943 34.4318 70.8068C34.1269 70.6193 33.8902 70.357 33.7216 70.0199C33.553 69.6828 33.4688 69.2888 33.4688 68.8381C33.4688 68.3854 33.553 67.9896 33.7216 67.6506C33.8902 67.3116 34.1269 67.0483 34.4318 66.8608C34.7367 66.6733 35.0938 66.5795 35.5028 66.5795C35.9119 66.5795 36.2689 66.6733 36.5739 66.8608C36.8788 67.0483 37.1155 67.3116 37.2841 67.6506C37.4527 67.9896 37.5369 68.3854 37.5369 68.8381C37.5369 69.2888 37.4527 69.6828 37.2841 70.0199C37.1155 70.357 36.8788 70.6193 36.5739 70.8068C36.2689 70.9943 35.9119 71.0881 35.5028 71.0881ZM35.5057 70.375C35.7708 70.375 35.9905 70.3049 36.1648 70.1648C36.339 70.0246 36.4678 69.8381 36.5511 69.6051C36.6364 69.3722 36.679 69.1155 36.679 68.8352C36.679 68.5568 36.6364 68.3011 36.5511 68.0682C36.4678 67.8333 36.339 67.6449 36.1648 67.5028C35.9905 67.3608 35.7708 67.2898 35.5057 67.2898C35.2386 67.2898 35.017 67.3608 34.8409 67.5028C34.6667 67.6449 34.5369 67.8333 34.4517 68.0682C34.3684 68.3011 34.3267 68.5568 34.3267 68.8352C34.3267 69.1155 34.3684 69.3722 34.4517 69.6051C34.5369 69.8381 34.6667 70.0246 34.8409 70.1648C35.017 70.3049 35.2386 70.375 35.5057 70.375ZM40.3232 71.0881C39.9141 71.0881 39.5571 70.9943 39.2521 70.8068C38.9472 70.6193 38.7105 70.357 38.5419 70.0199C38.3733 69.6828 38.2891 69.2888 38.2891 68.8381C38.2891 68.3854 38.3733 67.9896 38.5419 67.6506C38.7105 67.3116 38.9472 67.0483 39.2521 66.8608C39.5571 66.6733 39.9141 66.5795 40.3232 66.5795C40.7322 66.5795 41.0893 66.6733 41.3942 66.8608C41.6991 67.0483 41.9358 67.3116 42.1044 67.6506C42.273 67.9896 42.3572 68.3854 42.3572 68.8381C42.3572 69.2888 42.273 69.6828 42.1044 70.0199C41.9358 70.357 41.6991 70.6193 41.3942 70.8068C41.0893 70.9943 40.7322 71.0881 40.3232 71.0881ZM40.326 70.375C40.5911 70.375 40.8108 70.3049 40.9851 70.1648C41.1593 70.0246 41.2881 69.8381 41.3714 69.6051C41.4567 69.3722 41.4993 69.1155 41.4993 68.8352C41.4993 68.5568 41.4567 68.3011 41.3714 68.0682C41.2881 67.8333 41.1593 67.6449 40.9851 67.5028C40.8108 67.3608 40.5911 67.2898 40.326 67.2898C40.0589 67.2898 39.8374 67.3608 39.6612 67.5028C39.487 67.6449 39.3572 67.8333 39.272 68.0682C39.1887 68.3011 39.147 68.5568 39.147 68.8352C39.147 69.1155 39.1887 69.3722 39.272 69.6051C39.3572 69.8381 39.487 70.0246 39.6612 70.1648C39.8374 70.3049 40.0589 70.375 40.326 70.375ZM44.0866 69.5199L44.081 68.483H44.2287L45.9673 66.6364H46.9844L45.0014 68.7386H44.8679L44.0866 69.5199ZM43.3054 71V65.1818H44.1548V71H43.3054ZM46.0611 71L44.4986 68.9261L45.0838 68.3324L47.1037 71H46.0611ZM47.7585 71V66.6364H48.608V71H47.7585ZM48.1875 65.9631C48.0398 65.9631 47.9129 65.9138 47.8068 65.8153C47.7027 65.715 47.6506 65.5956 47.6506 65.4574C47.6506 65.3172 47.7027 65.1979 47.8068 65.0994C47.9129 64.9991 48.0398 64.9489 48.1875 64.9489C48.3352 64.9489 48.4612 64.9991 48.5653 65.0994C48.6714 65.1979 48.7244 65.3172 48.7244 65.4574C48.7244 65.5956 48.6714 65.715 48.5653 65.8153C48.4612 65.9138 48.3352 65.9631 48.1875 65.9631ZM50.6001 68.4091V71H49.7507V66.6364H50.5661V67.3466H50.62C50.7204 67.1155 50.8776 66.9299 51.0916 66.7898C51.3075 66.6496 51.5793 66.5795 51.907 66.5795C52.2043 66.5795 52.4647 66.642 52.6882 66.767C52.9117 66.8902 53.085 67.0739 53.2081 67.3182C53.3312 67.5625 53.3928 67.8646 53.3928 68.2244V71H52.5433V68.3267C52.5433 68.0104 52.4609 67.7633 52.2962 67.5852C52.1314 67.4053 51.9051 67.3153 51.6172 67.3153C51.4202 67.3153 51.245 67.358 51.0916 67.4432C50.9401 67.5284 50.8198 67.6534 50.7308 67.8182C50.6437 67.9811 50.6001 68.178 50.6001 68.4091ZM56.3615 72.7273C56.0149 72.7273 55.7166 72.6818 55.4666 72.5909C55.2185 72.5 55.0159 72.3797 54.8587 72.2301C54.7015 72.0805 54.584 71.9167 54.5064 71.7386L55.2365 71.4375C55.2876 71.5208 55.3558 71.6089 55.4411 71.7017C55.5282 71.7964 55.6456 71.8769 55.7933 71.9432C55.9429 72.0095 56.1352 72.0426 56.37 72.0426C56.692 72.0426 56.9581 71.964 57.1683 71.8068C57.3786 71.6515 57.4837 71.4034 57.4837 71.0625V70.2045H57.4297C57.3786 70.2973 57.3047 70.4006 57.2081 70.5142C57.1134 70.6278 56.9827 70.7263 56.8161 70.8097C56.6494 70.893 56.4325 70.9347 56.1655 70.9347C55.8208 70.9347 55.5102 70.8542 55.2337 70.6932C54.959 70.5303 54.7412 70.2907 54.5803 69.9744C54.4212 69.6562 54.3416 69.2652 54.3416 68.8011C54.3416 68.3371 54.4202 67.9394 54.5774 67.608C54.7365 67.2765 54.9543 67.0227 55.2308 66.8466C55.5073 66.6686 55.8208 66.5795 56.1712 66.5795C56.442 66.5795 56.6607 66.625 56.8274 66.7159C56.9941 66.8049 57.1238 66.9091 57.2166 67.0284C57.3113 67.1477 57.3842 67.2528 57.4354 67.3438H57.4979V66.6364H58.3303V71.0966C58.3303 71.4716 58.2431 71.7794 58.0689 72.0199C57.8946 72.2604 57.6589 72.4384 57.3615 72.554C57.0661 72.6695 56.7327 72.7273 56.3615 72.7273ZM56.353 70.2301C56.5973 70.2301 56.8037 70.1733 56.9723 70.0597C57.1428 69.9441 57.2715 69.7794 57.3587 69.5653C57.4477 69.3494 57.4922 69.0909 57.4922 68.7898C57.4922 68.4962 57.4486 68.2377 57.3615 68.0142C57.2744 67.7907 57.1465 67.6165 56.978 67.4915C56.8094 67.3646 56.6011 67.3011 56.353 67.3011C56.0973 67.3011 55.8842 67.3674 55.7138 67.5C55.5433 67.6307 55.4145 67.8087 55.3274 68.0341C55.2422 68.2595 55.1996 68.5114 55.1996 68.7898C55.1996 69.0758 55.2431 69.3267 55.3303 69.5426C55.4174 69.7585 55.5462 69.9271 55.7166 70.0483C55.889 70.1695 56.1011 70.2301 56.353 70.2301Z" fill="black"/>
<path d="M75.4957 123.727V115H77.3409V121.976H77.392L79.3906 120.723V122.359L77.2301 123.727H75.4957ZM69.6246 123.727V115H71.4698V121.976H71.521L73.5195 120.723V122.359L71.359 123.727H69.6246Z" fill="black"/>
</svg>
