<svg width="90" height="135" viewBox="0 0 90 135" fill="none" xmlns="http://www.w3.org/2000/svg">
<path d="M0 8C0 3.58172 3.58172 0 8 0H82C86.4183 0 90 3.58172 90 8V127C90 131.418 86.4183 135 82 135H8C3.58172 135 0 131.418 0 127V8Z" fill="white"/>
<rect x="4.5" y="4.5" width="81" height="126" rx="7.5" stroke="black"/>
<circle cx="45" cy="68" r="7" fill="#E42A37"/>
<rect x="17" y="65" width="56" height="6" rx="2" fill="black"/>
<circle cx="45" cy="47" r="7" fill="#E42A37"/>
<rect x="17" y="44" width="56" height="6" rx="2" fill="black"/>
<circle cx="45" cy="32" r="7" fill="#E42A37"/>
<rect x="17" y="29" width="56" height="6" rx="2" fill="black"/>
<circle cx="45" cy="104" r="7" fill="#E42A37"/>
<rect x="17" y="101" width="56" height="6" rx="2" fill="black"/>
<circle cx="45" cy="89" r="7" fill="#E42A37"/>
<rect x="17" y="86" width="56" height="6" rx="2" fill="black"/>
<path d="M13.8949 20.1193C13.2926 20.1193 12.7557 20.0085 12.2841 19.7869C11.8153 19.5653 11.4432 19.2599 11.1676 18.8707C10.892 18.4815 10.7486 18.0355 10.7372 17.5327H12.527C12.5469 17.8707 12.6889 18.1449 12.9531 18.3551C13.2173 18.5653 13.5312 18.6705 13.8949 18.6705C14.1847 18.6705 14.4403 18.6065 14.6619 18.4787C14.8864 18.348 15.0611 18.1676 15.1861 17.9375C15.3139 17.7045 15.3778 17.4375 15.3778 17.1364C15.3778 16.8295 15.3125 16.5597 15.1818 16.3267C15.054 16.0937 14.8764 15.9119 14.6491 15.7812C14.4219 15.6506 14.1619 15.5838 13.8693 15.581C13.6136 15.581 13.3651 15.6335 13.1236 15.7386C12.8849 15.8437 12.6989 15.9872 12.5653 16.169L10.9247 15.875L11.3381 11.2727H16.6733V12.7812H12.8594L12.6335 14.9673H12.6847C12.8381 14.7514 13.0696 14.5724 13.3793 14.4304C13.6889 14.2884 14.0355 14.2173 14.419 14.2173C14.9446 14.2173 15.4134 14.3409 15.8253 14.5881C16.2372 14.8352 16.5625 15.1747 16.8011 15.6065C17.0398 16.0355 17.1577 16.5298 17.1548 17.0895C17.1577 17.6776 17.0213 18.2003 16.7457 18.6577C16.473 19.1122 16.0909 19.4702 15.5994 19.7315C15.1108 19.9901 14.5426 20.1193 13.8949 20.1193Z" fill="black"/>
<path d="M76.1051 114.881C76.7074 114.881 77.2443 114.991 77.7159 115.213C78.1847 115.435 78.5568 115.74 78.8324 116.129C79.108 116.518 79.2514 116.964 79.2628 117.467H77.473C77.4531 117.129 77.3111 116.855 77.0469 116.645C76.7827 116.435 76.4688 116.33 76.1051 116.33C75.8153 116.33 75.5597 116.393 75.3381 116.521C75.1136 116.652 74.9389 116.832 74.8139 117.062C74.6861 117.295 74.6222 117.563 74.6222 117.864C74.6222 118.17 74.6875 118.44 74.8182 118.673C74.946 118.906 75.1236 119.088 75.3509 119.219C75.5781 119.349 75.8381 119.416 76.1307 119.419C76.3864 119.419 76.6349 119.366 76.8764 119.261C77.1151 119.156 77.3011 119.013 77.4347 118.831L79.0753 119.125L78.6619 123.727H73.3267V122.219H77.1406L77.3665 120.033H77.3153C77.1619 120.249 76.9304 120.428 76.6207 120.57C76.3111 120.712 75.9645 120.783 75.581 120.783C75.0554 120.783 74.5866 120.659 74.1747 120.412C73.7628 120.165 73.4375 119.825 73.1989 119.393C72.9602 118.964 72.8423 118.47 72.8452 117.911C72.8423 117.322 72.9787 116.8 73.2543 116.342C73.527 115.888 73.9091 115.53 74.4006 115.268C74.8892 115.01 75.4574 114.881 76.1051 114.881Z" fill="black"/>
</svg>
