<svg width="90" height="135" viewBox="0 0 90 135" fill="none" xmlns="http://www.w3.org/2000/svg">
<rect width="90" height="135" rx="8" fill="white"/>
<rect x="4.5" y="4.5" width="81" height="126" rx="7.5" stroke="black"/>
<path d="M14.5043 11.2727V20H12.6591V13.0241H12.608L10.6094 14.277V12.6406L12.7699 11.2727H14.5043ZM16.4464 18.4659V17.0128L20.0898 11.2727H21.3427V13.2841H20.6012L18.3043 16.919V16.9872H23.4819V18.4659H16.4464ZM20.6353 20V18.0227L20.6694 17.3793V11.2727H22.3995V20H20.6353Z" fill="black"/>
<path d="M27.1204 45.1818L28.7397 49.9205H28.805L30.4244 45.1818H31.3732L29.2795 51H28.2653L26.1715 45.1818H27.1204ZM32.1452 51V46.6364H32.9947V51H32.1452ZM32.5742 45.9631C32.4265 45.9631 32.2996 45.9138 32.1935 45.8153C32.0894 45.715 32.0373 45.5956 32.0373 45.4574C32.0373 45.3172 32.0894 45.1979 32.1935 45.0994C32.2996 44.9991 32.4265 44.9489 32.5742 44.9489C32.7219 44.9489 32.8479 44.9991 32.9521 45.0994C33.0581 45.1979 33.1112 45.3172 33.1112 45.4574C33.1112 45.5956 33.0581 45.715 32.9521 45.8153C32.8479 45.9138 32.7219 45.9631 32.5742 45.9631ZM36.0181 51.0881C35.5882 51.0881 35.2179 50.9962 34.9073 50.8125C34.5986 50.6269 34.36 50.3665 34.1914 50.0312C34.0247 49.6941 33.9414 49.2992 33.9414 48.8466C33.9414 48.3996 34.0247 48.0057 34.1914 47.6648C34.36 47.3239 34.5948 47.0578 34.896 46.8665C35.199 46.6752 35.5531 46.5795 35.9585 46.5795C36.2047 46.5795 36.4433 46.6203 36.6744 46.7017C36.9054 46.7831 37.1128 46.911 37.2965 47.0852C37.4802 47.2595 37.6251 47.4858 37.7312 47.7642C37.8372 48.0407 37.8903 48.3769 37.8903 48.7727V49.0739H34.4215V48.4375H37.0579C37.0579 48.214 37.0124 48.0161 36.9215 47.8438C36.8306 47.6695 36.7028 47.5322 36.538 47.4318C36.3751 47.3314 36.1838 47.2812 35.9641 47.2812C35.7255 47.2812 35.5172 47.34 35.3391 47.4574C35.163 47.5729 35.0266 47.7244 34.93 47.9119C34.8353 48.0975 34.788 48.2992 34.788 48.517V49.0142C34.788 49.3059 34.8391 49.554 34.9414 49.7585C35.0456 49.9631 35.1905 50.1193 35.3761 50.2273C35.5617 50.3333 35.7785 50.3864 36.0266 50.3864C36.1876 50.3864 36.3344 50.3636 36.467 50.3182C36.5996 50.2708 36.7141 50.2008 36.8107 50.108C36.9073 50.0152 36.9812 49.9006 37.0323 49.7642L37.8363 49.9091C37.7719 50.1458 37.6564 50.3532 37.4897 50.5312C37.3249 50.7074 37.1175 50.8447 36.8675 50.9432C36.6194 51.0398 36.3363 51.0881 36.0181 51.0881ZM39.771 51L38.4869 46.6364H39.3647L40.2198 49.8409H40.2624L41.1204 46.6364H41.9982L42.8505 49.8267H42.8931L43.7425 46.6364H44.6204L43.3391 51H42.4727L41.5863 47.8494H41.521L40.6346 51H39.771ZM48.1033 51H47.1715L49.2653 45.1818H50.2795L52.3732 51H51.4414L49.7965 46.2386H49.7511L48.1033 51ZM48.2596 48.7216H51.2823V49.4602H48.2596V48.7216ZM57.9094 45.1818V51H57.1026L54.1452 46.733H54.0913V51H53.2134V45.1818H54.0259L56.9862 49.4545H57.0401V45.1818H57.9094ZM58.7411 45.1818H59.7383L61.2582 47.8267H61.3207L62.8406 45.1818H63.8377L61.7269 48.7159V51H60.8519V48.7159L58.7411 45.1818ZM23.0632 55.9375V55.1818H27.5661V55.9375H25.7507V61H24.8757V55.9375H23.0632ZM29.7003 61L28.0866 55.1818H29.0099L30.1435 59.6875H30.1974L31.3764 55.1818H32.2912L33.4702 59.6903H33.5241L34.6548 55.1818H35.581L33.9645 61H33.081L31.8565 56.642H31.8111L30.5866 61H29.7003ZM41.1463 58.0909C41.1463 58.7121 41.0327 59.2462 40.8054 59.6932C40.5781 60.1383 40.2666 60.4811 39.8707 60.7216C39.4768 60.9602 39.0289 61.0795 38.527 61.0795C38.0232 61.0795 37.5734 60.9602 37.1776 60.7216C36.7836 60.4811 36.473 60.1373 36.2457 59.6903C36.0185 59.2434 35.9048 58.7102 35.9048 58.0909C35.9048 57.4697 36.0185 56.9366 36.2457 56.4915C36.473 56.0445 36.7836 55.7017 37.1776 55.4631C37.5734 55.2225 38.0232 55.1023 38.527 55.1023C39.0289 55.1023 39.4768 55.2225 39.8707 55.4631C40.2666 55.7017 40.5781 56.0445 40.8054 56.4915C41.0327 56.9366 41.1463 57.4697 41.1463 58.0909ZM40.277 58.0909C40.277 57.6174 40.2003 57.2187 40.0469 56.8949C39.8954 56.5691 39.687 56.3229 39.4219 56.1562C39.1586 55.9877 38.8603 55.9034 38.527 55.9034C38.1918 55.9034 37.8925 55.9877 37.6293 56.1562C37.366 56.3229 37.1577 56.5691 37.0043 56.8949C36.8527 57.2187 36.777 57.6174 36.777 58.0909C36.777 58.5644 36.8527 58.964 37.0043 59.2898C37.1577 59.6136 37.366 59.8598 37.6293 60.0284C37.8925 60.1951 38.1918 60.2784 38.527 60.2784C38.8603 60.2784 39.1586 60.1951 39.4219 60.0284C39.687 59.8598 39.8954 59.6136 40.0469 59.2898C40.2003 58.964 40.277 58.5644 40.277 58.0909ZM46.1278 61.0881C45.7055 61.0881 45.3419 60.9924 45.0369 60.8011C44.7339 60.608 44.5009 60.3419 44.3381 60.0028C44.1752 59.6638 44.0938 59.2756 44.0938 58.8381C44.0938 58.3949 44.1771 58.0038 44.3438 57.6648C44.5104 57.3239 44.7453 57.0578 45.0483 56.8665C45.3513 56.6752 45.7083 56.5795 46.1193 56.5795C46.4508 56.5795 46.7462 56.6411 47.0057 56.7642C47.2652 56.8854 47.4744 57.0559 47.6335 57.2756C47.7945 57.4953 47.8902 57.7519 47.9205 58.0455H47.0938C47.0483 57.8409 46.9441 57.6648 46.7812 57.517C46.6203 57.3693 46.4044 57.2955 46.1335 57.2955C45.8968 57.2955 45.6894 57.358 45.5114 57.483C45.3352 57.6061 45.1979 57.7822 45.0994 58.0114C45.0009 58.2386 44.9517 58.5076 44.9517 58.8182C44.9517 59.1364 45 59.411 45.0966 59.642C45.1932 59.8731 45.3295 60.0521 45.5057 60.179C45.6837 60.3059 45.893 60.3693 46.1335 60.3693C46.2945 60.3693 46.4403 60.34 46.571 60.2812C46.7036 60.2206 46.8144 60.1345 46.9034 60.0227C46.9943 59.911 47.0578 59.7765 47.0938 59.6193H47.9205C47.8902 59.9015 47.7983 60.1534 47.6449 60.375C47.4915 60.5966 47.286 60.7708 47.0284 60.8977C46.7727 61.0246 46.4725 61.0881 46.1278 61.0881ZM50.0987 61.0966C49.8222 61.0966 49.5722 61.0455 49.3487 60.9432C49.1252 60.839 48.9482 60.6884 48.8175 60.4915C48.6887 60.2945 48.6243 60.053 48.6243 59.767C48.6243 59.5208 48.6716 59.3182 48.7663 59.1591C48.861 59 48.9889 58.8741 49.1499 58.7812C49.3108 58.6884 49.4908 58.6184 49.6896 58.571C49.8885 58.5237 50.0911 58.4877 50.2976 58.4631C50.5589 58.4328 50.7711 58.4081 50.9339 58.3892C51.0968 58.3684 51.2152 58.3352 51.2891 58.2898C51.3629 58.2443 51.3999 58.1705 51.3999 58.0682V58.0483C51.3999 57.8002 51.3298 57.608 51.1896 57.4716C51.0514 57.3352 50.8449 57.267 50.5703 57.267C50.2843 57.267 50.0589 57.3305 49.8942 57.4574C49.7313 57.5824 49.6186 57.7216 49.5561 57.875L48.7578 57.6932C48.8525 57.428 48.9908 57.214 49.1726 57.0511C49.3563 56.8864 49.5675 56.767 49.8061 56.6932C50.0447 56.6174 50.2957 56.5795 50.5589 56.5795C50.7332 56.5795 50.9179 56.6004 51.1129 56.642C51.3099 56.6818 51.4936 56.7557 51.6641 56.8636C51.8364 56.9716 51.9775 57.1259 52.0874 57.3267C52.1972 57.5256 52.2521 57.7841 52.2521 58.1023V61H51.4226V60.4034H51.3885C51.3336 60.5133 51.2512 60.6212 51.1413 60.7273C51.0315 60.8333 50.8904 60.9214 50.718 60.9915C50.5457 61.0616 50.3393 61.0966 50.0987 61.0966ZM50.2834 60.4148C50.5182 60.4148 50.719 60.3684 50.8857 60.2756C51.0542 60.1828 51.1821 60.0616 51.2692 59.9119C51.3582 59.7604 51.4027 59.5985 51.4027 59.4261V58.8636C51.3724 58.8939 51.3137 58.9223 51.2266 58.9489C51.1413 58.9735 51.0438 58.9953 50.9339 59.0142C50.8241 59.0312 50.7171 59.0473 50.6129 59.0625C50.5088 59.0758 50.4216 59.0871 50.3516 59.0966C50.1868 59.1174 50.0362 59.1525 49.8999 59.2017C49.7654 59.2509 49.6574 59.322 49.576 59.4148C49.4964 59.5057 49.4567 59.6269 49.4567 59.7784C49.4567 59.9886 49.5343 60.1477 49.6896 60.2557C49.8449 60.3617 50.0429 60.4148 50.2834 60.4148ZM53.3835 61V56.6364H54.2045V57.3295H54.25C54.3295 57.0947 54.4697 56.91 54.6705 56.7756C54.8731 56.6392 55.1023 56.571 55.358 56.571C55.411 56.571 55.4735 56.5729 55.5455 56.5767C55.6193 56.5805 55.6771 56.5852 55.7188 56.5909V57.4034C55.6847 57.3939 55.6241 57.3835 55.5369 57.3722C55.4498 57.3589 55.3627 57.3523 55.2756 57.3523C55.0748 57.3523 54.8958 57.3949 54.7386 57.4801C54.5833 57.5634 54.4602 57.6799 54.3693 57.8295C54.2784 57.9773 54.233 58.1458 54.233 58.3352V61H53.3835ZM57.9311 61.0852C57.5788 61.0852 57.2644 60.9953 56.9879 60.8153C56.7133 60.6335 56.4974 60.375 56.3402 60.0398C56.1849 59.7027 56.1072 59.2983 56.1072 58.8267C56.1072 58.3551 56.1858 57.9517 56.343 57.6165C56.5021 57.2812 56.7199 57.0246 56.9964 56.8466C57.273 56.6686 57.5864 56.5795 57.9368 56.5795C58.2076 56.5795 58.4254 56.625 58.5902 56.7159C58.7569 56.8049 58.8857 56.9091 58.9766 57.0284C59.0694 57.1477 59.1413 57.2528 59.1925 57.3438H59.2436V55.1818H60.093V61H59.2635V60.321H59.1925C59.1413 60.4138 59.0675 60.5199 58.9709 60.6392C58.8762 60.7585 58.7455 60.8627 58.5788 60.9517C58.4122 61.0407 58.1963 61.0852 57.9311 61.0852ZM58.1186 60.3608C58.3629 60.3608 58.5694 60.2964 58.7379 60.1676C58.9084 60.0369 59.0372 59.8561 59.1243 59.625C59.2133 59.3939 59.2578 59.125 59.2578 58.8182C59.2578 58.5152 59.2143 58.25 59.1271 58.0227C59.04 57.7955 58.9122 57.6184 58.7436 57.4915C58.575 57.3646 58.3667 57.3011 58.1186 57.3011C57.8629 57.3011 57.6499 57.3674 57.4794 57.5C57.3089 57.6326 57.1802 57.8134 57.093 58.0426C57.0078 58.2718 56.9652 58.5303 56.9652 58.8182C56.9652 59.1098 57.0088 59.3722 57.0959 59.6051C57.183 59.8381 57.3118 60.0227 57.4822 60.1591C57.6546 60.2936 57.8667 60.3608 58.1186 60.3608ZM64.5753 57.7017L63.8054 57.8381C63.7732 57.7396 63.7221 57.6458 63.652 57.5568C63.5838 57.4678 63.491 57.3949 63.3736 57.3381C63.2562 57.2812 63.1094 57.2528 62.9332 57.2528C62.6927 57.2528 62.492 57.3068 62.331 57.4148C62.17 57.5208 62.0895 57.6581 62.0895 57.8267C62.0895 57.9725 62.1435 58.09 62.2514 58.179C62.3594 58.268 62.5336 58.3409 62.7741 58.3977L63.4673 58.5568C63.8688 58.6496 64.1681 58.7926 64.3651 58.9858C64.562 59.179 64.6605 59.4299 64.6605 59.7386C64.6605 60 64.5848 60.233 64.4332 60.4375C64.2836 60.6402 64.0743 60.7992 63.8054 60.9148C63.5384 61.0303 63.2287 61.0881 62.8764 61.0881C62.3878 61.0881 61.9891 60.9839 61.6804 60.7756C61.3717 60.5653 61.1823 60.267 61.1122 59.8807L61.9332 59.7557C61.9844 59.9697 62.0895 60.1316 62.2486 60.2415C62.4077 60.3494 62.6151 60.4034 62.8707 60.4034C63.1491 60.4034 63.3717 60.3456 63.5384 60.2301C63.705 60.1127 63.7884 59.9697 63.7884 59.8011C63.7884 59.6648 63.7372 59.5502 63.6349 59.4574C63.5346 59.3646 63.3802 59.2945 63.1719 59.2472L62.4332 59.0852C62.026 58.9924 61.7249 58.8447 61.5298 58.642C61.3366 58.4394 61.2401 58.1828 61.2401 57.8722C61.2401 57.6146 61.312 57.3892 61.456 57.196C61.5999 57.0028 61.7988 56.8523 62.0526 56.7443C62.3063 56.6345 62.5971 56.5795 62.9247 56.5795C63.3963 56.5795 63.7675 56.6818 64.0384 56.8864C64.3092 57.089 64.4882 57.3608 64.5753 57.7017ZM66.1541 61.054C65.9988 61.054 65.8653 60.9991 65.7536 60.8892C65.6418 60.7775 65.5859 60.643 65.5859 60.4858C65.5859 60.3305 65.6418 60.1979 65.7536 60.0881C65.8653 59.9763 65.9988 59.9205 66.1541 59.9205C66.3094 59.9205 66.4429 59.9763 66.5547 60.0881C66.6664 60.1979 66.7223 60.3305 66.7223 60.4858C66.7223 60.59 66.6958 60.6856 66.6428 60.7727C66.5916 60.858 66.5234 60.9261 66.4382 60.9773C66.353 61.0284 66.2583 61.054 66.1541 61.054ZM26.4389 65.1818V71H25.5611V65.1818H26.4389ZM29.7259 66.6364V67.3182H27.2599V66.6364H29.7259ZM27.9361 71V66.1307C27.9361 65.858 27.9957 65.6316 28.1151 65.4517C28.2344 65.2699 28.3925 65.1345 28.5895 65.0455C28.7865 64.9545 29.0005 64.9091 29.2315 64.9091C29.402 64.9091 29.5478 64.9233 29.669 64.9517C29.7902 64.9782 29.8802 65.0028 29.9389 65.0256L29.7401 65.7131C29.7003 65.7017 29.6491 65.6884 29.5866 65.6733C29.5241 65.6562 29.4484 65.6477 29.3594 65.6477C29.1529 65.6477 29.0052 65.6989 28.9162 65.8011C28.8291 65.9034 28.7855 66.0511 28.7855 66.2443V71H27.9361ZM34.353 71.0852C34.0007 71.0852 33.6863 70.9953 33.4098 70.8153C33.1352 70.6335 32.9193 70.375 32.7621 70.0398C32.6068 69.7027 32.5291 69.2983 32.5291 68.8267C32.5291 68.3551 32.6077 67.9517 32.7649 67.6165C32.924 67.2812 33.1418 67.0246 33.4183 66.8466C33.6948 66.6686 34.0083 66.5795 34.3587 66.5795C34.6295 66.5795 34.8473 66.625 35.0121 66.7159C35.1787 66.8049 35.3075 66.9091 35.3984 67.0284C35.4912 67.1477 35.5632 67.2528 35.6143 67.3438H35.6655V65.1818H36.5149V71H35.6854V70.321H35.6143C35.5632 70.4138 35.4893 70.5199 35.3928 70.6392C35.2981 70.7585 35.1674 70.8627 35.0007 70.9517C34.834 71.0407 34.6181 71.0852 34.353 71.0852ZM34.5405 70.3608C34.7848 70.3608 34.9912 70.2964 35.1598 70.1676C35.3303 70.0369 35.459 69.8561 35.5462 69.625C35.6352 69.3939 35.6797 69.125 35.6797 68.8182C35.6797 68.5152 35.6361 68.25 35.549 68.0227C35.4619 67.7955 35.334 67.6184 35.1655 67.4915C34.9969 67.3646 34.7886 67.3011 34.5405 67.3011C34.2848 67.3011 34.0717 67.3674 33.9013 67.5C33.7308 67.6326 33.602 67.8134 33.5149 68.0426C33.4297 68.2718 33.3871 68.5303 33.3871 68.8182C33.3871 69.1098 33.4306 69.3722 33.5178 69.6051C33.6049 69.8381 33.7337 70.0227 33.9041 70.1591C34.0765 70.2936 34.2886 70.3608 34.5405 70.3608ZM39.608 71.0881C39.178 71.0881 38.8078 70.9962 38.4972 70.8125C38.1884 70.6269 37.9498 70.3665 37.7812 70.0312C37.6146 69.6941 37.5312 69.2992 37.5312 68.8466C37.5312 68.3996 37.6146 68.0057 37.7812 67.6648C37.9498 67.3239 38.1847 67.0578 38.4858 66.8665C38.7888 66.6752 39.143 66.5795 39.5483 66.5795C39.7945 66.5795 40.0331 66.6203 40.2642 66.7017C40.4953 66.7831 40.7027 66.911 40.8864 67.0852C41.0701 67.2595 41.215 67.4858 41.321 67.7642C41.4271 68.0407 41.4801 68.3769 41.4801 68.7727V69.0739H38.0114V68.4375H40.6477C40.6477 68.214 40.6023 68.0161 40.5114 67.8438C40.4205 67.6695 40.2926 67.5322 40.1278 67.4318C39.965 67.3314 39.7737 67.2812 39.554 67.2812C39.3153 67.2812 39.107 67.34 38.929 67.4574C38.7528 67.5729 38.6165 67.7244 38.5199 67.9119C38.4252 68.0975 38.3778 68.2992 38.3778 68.517V69.0142C38.3778 69.3059 38.429 69.554 38.5312 69.7585C38.6354 69.9631 38.7803 70.1193 38.9659 70.2273C39.1515 70.3333 39.3684 70.3864 39.6165 70.3864C39.7775 70.3864 39.9242 70.3636 40.0568 70.3182C40.1894 70.2708 40.304 70.2008 40.4006 70.108C40.4972 70.0152 40.571 69.9006 40.6222 69.7642L41.4261 69.9091C41.3617 70.1458 41.2462 70.3532 41.0795 70.5312C40.9148 70.7074 40.7074 70.8447 40.4574 70.9432C40.2093 71.0398 39.9261 71.0881 39.608 71.0881ZM45.6925 67.7017L44.9226 67.8381C44.8904 67.7396 44.8393 67.6458 44.7692 67.5568C44.701 67.4678 44.6082 67.3949 44.4908 67.3381C44.3733 67.2812 44.2266 67.2528 44.0504 67.2528C43.8099 67.2528 43.6091 67.3068 43.4482 67.4148C43.2872 67.5208 43.2067 67.6581 43.2067 67.8267C43.2067 67.9725 43.2607 68.09 43.3686 68.179C43.4766 68.268 43.6508 68.3409 43.8913 68.3977L44.5845 68.5568C44.986 68.6496 45.2853 68.7926 45.4822 68.9858C45.6792 69.179 45.7777 69.4299 45.7777 69.7386C45.7777 70 45.7019 70.233 45.5504 70.4375C45.4008 70.6402 45.1915 70.7992 44.9226 70.9148C44.6555 71.0303 44.3459 71.0881 43.9936 71.0881C43.505 71.0881 43.1063 70.9839 42.7976 70.7756C42.4889 70.5653 42.2995 70.267 42.2294 69.8807L43.0504 69.7557C43.1016 69.9697 43.2067 70.1316 43.3658 70.2415C43.5249 70.3494 43.7322 70.4034 43.9879 70.4034C44.2663 70.4034 44.4889 70.3456 44.6555 70.2301C44.8222 70.1127 44.9055 69.9697 44.9055 69.8011C44.9055 69.6648 44.8544 69.5502 44.7521 69.4574C44.6518 69.3646 44.4974 69.2945 44.2891 69.2472L43.5504 69.0852C43.1432 68.9924 42.8421 68.8447 42.647 68.642C42.4538 68.4394 42.3572 68.1828 42.3572 67.8722C42.3572 67.6146 42.4292 67.3892 42.5732 67.196C42.7171 67.0028 42.916 66.8523 43.1697 66.7443C43.4235 66.6345 43.7143 66.5795 44.0419 66.5795C44.5135 66.5795 44.8847 66.6818 45.1555 66.8864C45.4264 67.089 45.6054 67.3608 45.6925 67.7017ZM46.7116 71V66.6364H47.5611V71H46.7116ZM47.1406 65.9631C46.9929 65.9631 46.866 65.9138 46.7599 65.8153C46.6558 65.715 46.6037 65.5956 46.6037 65.4574C46.6037 65.3172 46.6558 65.1979 46.7599 65.0994C46.866 64.9991 46.9929 64.9489 47.1406 64.9489C47.2884 64.9489 47.4143 64.9991 47.5185 65.0994C47.6245 65.1979 47.6776 65.3172 47.6776 65.4574C47.6776 65.5956 47.6245 65.715 47.5185 65.8153C47.4143 65.9138 47.2884 65.9631 47.1406 65.9631ZM48.7038 71V66.6364H49.5249V67.3295H49.5703C49.6499 67.0947 49.79 66.91 49.9908 66.7756C50.1934 66.6392 50.4226 66.571 50.6783 66.571C50.7313 66.571 50.7938 66.5729 50.8658 66.5767C50.9396 66.5805 50.9974 66.5852 51.0391 66.5909V67.4034C51.005 67.3939 50.9444 67.3835 50.8572 67.3722C50.7701 67.3589 50.683 67.3523 50.5959 67.3523C50.3951 67.3523 50.2161 67.3949 50.0589 67.4801C49.9036 67.5634 49.7805 67.6799 49.6896 67.8295C49.5987 67.9773 49.5533 68.1458 49.5533 68.3352V71H48.7038ZM53.4986 71.0881C53.0687 71.0881 52.6984 70.9962 52.3878 70.8125C52.0791 70.6269 51.8404 70.3665 51.6719 70.0312C51.5052 69.6941 51.4219 69.2992 51.4219 68.8466C51.4219 68.3996 51.5052 68.0057 51.6719 67.6648C51.8404 67.3239 52.0753 67.0578 52.3764 66.8665C52.6795 66.6752 53.0336 66.5795 53.4389 66.5795C53.6851 66.5795 53.9238 66.6203 54.1548 66.7017C54.3859 66.7831 54.5933 66.911 54.777 67.0852C54.9607 67.2595 55.1056 67.4858 55.2116 67.7642C55.3177 68.0407 55.3707 68.3769 55.3707 68.7727V69.0739H51.902V68.4375H54.5384C54.5384 68.214 54.4929 68.0161 54.402 67.8438C54.3111 67.6695 54.1832 67.5322 54.0185 67.4318C53.8556 67.3314 53.6643 67.2812 53.4446 67.2812C53.206 67.2812 52.9976 67.34 52.8196 67.4574C52.6435 67.5729 52.5071 67.7244 52.4105 67.9119C52.3158 68.0975 52.2685 68.2992 52.2685 68.517V69.0142C52.2685 69.3059 52.3196 69.554 52.4219 69.7585C52.526 69.9631 52.6709 70.1193 52.8565 70.2273C53.0421 70.3333 53.259 70.3864 53.5071 70.3864C53.6681 70.3864 53.8149 70.3636 53.9474 70.3182C54.08 70.2708 54.1946 70.2008 54.2912 70.108C54.3878 70.0152 54.4616 69.9006 54.5128 69.7642L55.3168 69.9091C55.2524 70.1458 55.1368 70.3532 54.9702 70.5312C54.8054 70.7074 54.598 70.8447 54.348 70.9432C54.0999 71.0398 53.8168 71.0881 53.4986 71.0881ZM57.9467 71.0852C57.5945 71.0852 57.2801 70.9953 57.0036 70.8153C56.7289 70.6335 56.513 70.375 56.3558 70.0398C56.2005 69.7027 56.1229 69.2983 56.1229 68.8267C56.1229 68.3551 56.2015 67.9517 56.3587 67.6165C56.5178 67.2812 56.7356 67.0246 57.0121 66.8466C57.2886 66.6686 57.602 66.5795 57.9524 66.5795C58.2232 66.5795 58.4411 66.625 58.6058 66.7159C58.7725 66.8049 58.9013 66.9091 58.9922 67.0284C59.085 67.1477 59.157 67.2528 59.2081 67.3438H59.2592V65.1818H60.1087V71H59.2791V70.321H59.2081C59.157 70.4138 59.0831 70.5199 58.9865 70.6392C58.8918 70.7585 58.7611 70.8627 58.5945 70.9517C58.4278 71.0407 58.2119 71.0852 57.9467 71.0852ZM58.1342 70.3608C58.3786 70.3608 58.585 70.2964 58.7536 70.1676C58.924 70.0369 59.0528 69.8561 59.1399 69.625C59.2289 69.3939 59.2734 69.125 59.2734 68.8182C59.2734 68.5152 59.2299 68.25 59.1428 68.0227C59.0556 67.7955 58.9278 67.6184 58.7592 67.4915C58.5907 67.3646 58.3823 67.3011 58.1342 67.3011C57.8786 67.3011 57.6655 67.3674 57.495 67.5C57.3246 67.6326 57.1958 67.8134 57.1087 68.0426C57.0234 68.2718 56.9808 68.5303 56.9808 68.8182C56.9808 69.1098 57.0244 69.3722 57.1115 69.6051C57.1986 69.8381 57.3274 70.0227 57.4979 70.1591C57.6702 70.2936 57.8823 70.3608 58.1342 70.3608ZM62.4261 70.2045L62.3835 70.5142C62.3551 70.7415 62.3068 70.9782 62.2386 71.2244C62.1723 71.4725 62.1032 71.7027 62.0312 71.9148C61.9612 72.1269 61.9034 72.2955 61.858 72.4205H61.2557C61.2803 72.303 61.3144 72.1439 61.358 71.9432C61.4015 71.7443 61.4441 71.5218 61.4858 71.2756C61.5275 71.0294 61.5587 70.7784 61.5795 70.5227L61.608 70.2045H62.4261ZM23.1104 77.7017L22.3406 77.8381C22.3084 77.7396 22.2572 77.6458 22.1871 77.5568C22.119 77.4678 22.0262 77.3949 21.9087 77.3381C21.7913 77.2812 21.6445 77.2528 21.4684 77.2528C21.2279 77.2528 21.0271 77.3068 20.8661 77.4148C20.7051 77.5208 20.6246 77.6581 20.6246 77.8267C20.6246 77.9725 20.6786 78.09 20.7866 78.179C20.8945 78.268 21.0688 78.3409 21.3093 78.3977L22.0025 78.5568C22.404 78.6496 22.7032 78.7926 22.9002 78.9858C23.0972 79.179 23.1957 79.4299 23.1957 79.7386C23.1957 80 23.1199 80.233 22.9684 80.4375C22.8188 80.6402 22.6095 80.7992 22.3406 80.9148C22.0735 81.0303 21.7638 81.0881 21.4116 81.0881C20.9229 81.0881 20.5243 80.9839 20.2156 80.7756C19.9068 80.5653 19.7174 80.267 19.6474 79.8807L20.4684 79.7557C20.5195 79.9697 20.6246 80.1316 20.7837 80.2415C20.9428 80.3494 21.1502 80.4034 21.4059 80.4034C21.6843 80.4034 21.9068 80.3456 22.0735 80.2301C22.2402 80.1127 22.3235 79.9697 22.3235 79.8011C22.3235 79.6648 22.2724 79.5502 22.1701 79.4574C22.0697 79.3646 21.9154 79.2945 21.707 79.2472L20.9684 79.0852C20.5612 78.9924 20.2601 78.8447 20.065 78.642C19.8718 78.4394 19.7752 78.1828 19.7752 77.8722C19.7752 77.6146 19.8472 77.3892 19.9911 77.196C20.1351 77.0028 20.3339 76.8523 20.5877 76.7443C20.8415 76.6345 21.1322 76.5795 21.4599 76.5795C21.9315 76.5795 22.3027 76.6818 22.5735 76.8864C22.8443 77.089 23.0233 77.3608 23.1104 77.7017ZM25.0756 81L23.7915 76.6364H24.6694L25.5245 79.8409H25.5671L26.4251 76.6364H27.3029L28.1552 79.8267H28.1978L29.0472 76.6364H29.9251L28.6438 81H27.7773L26.891 77.8494H26.8256L25.9393 81H25.0756ZM32.0011 81.0966C31.7246 81.0966 31.4746 81.0455 31.2511 80.9432C31.0276 80.839 30.8505 80.6884 30.7198 80.4915C30.591 80.2945 30.5266 80.053 30.5266 79.767C30.5266 79.5208 30.574 79.3182 30.6687 79.1591C30.7634 79 30.8912 78.8741 31.0522 78.7812C31.2132 78.6884 31.3931 78.6184 31.592 78.571C31.7908 78.5237 31.9935 78.4877 32.1999 78.4631C32.4613 78.4328 32.6734 78.4081 32.8363 78.3892C32.9992 78.3684 33.1175 78.3352 33.1914 78.2898C33.2653 78.2443 33.3022 78.1705 33.3022 78.0682V78.0483C33.3022 77.8002 33.2321 77.608 33.092 77.4716C32.9537 77.3352 32.7473 77.267 32.4727 77.267C32.1867 77.267 31.9613 77.3305 31.7965 77.4574C31.6336 77.5824 31.521 77.7216 31.4585 77.875L30.6602 77.6932C30.7549 77.428 30.8931 77.214 31.0749 77.0511C31.2586 76.8864 31.4698 76.767 31.7085 76.6932C31.9471 76.6174 32.198 76.5795 32.4613 76.5795C32.6355 76.5795 32.8202 76.6004 33.0153 76.642C33.2122 76.6818 33.396 76.7557 33.5664 76.8636C33.7388 76.9716 33.8799 77.1259 33.9897 77.3267C34.0996 77.5256 34.1545 77.7841 34.1545 78.1023V81H33.3249V80.4034H33.2908C33.2359 80.5133 33.1535 80.6212 33.0437 80.7273C32.9338 80.8333 32.7927 80.9214 32.6204 80.9915C32.448 81.0616 32.2416 81.0966 32.0011 81.0966ZM32.1857 80.4148C32.4206 80.4148 32.6213 80.3684 32.788 80.2756C32.9566 80.1828 33.0844 80.0616 33.1715 79.9119C33.2605 79.7604 33.305 79.5985 33.305 79.4261V78.8636C33.2747 78.8939 33.216 78.9223 33.1289 78.9489C33.0437 78.9735 32.9461 78.9953 32.8363 79.0142C32.7264 79.0312 32.6194 79.0473 32.5153 79.0625C32.4111 79.0758 32.324 79.0871 32.2539 79.0966C32.0891 79.1174 31.9386 79.1525 31.8022 79.2017C31.6677 79.2509 31.5598 79.322 31.4783 79.4148C31.3988 79.5057 31.359 79.6269 31.359 79.7784C31.359 79.9886 31.4367 80.1477 31.592 80.2557C31.7473 80.3617 31.9452 80.4148 32.1857 80.4148ZM35.2859 82.6364V76.6364H36.1154V77.3438H36.1864C36.2357 77.2528 36.3067 77.1477 36.3995 77.0284C36.4923 76.9091 36.6211 76.8049 36.7859 76.7159C36.9506 76.625 37.1684 76.5795 37.4393 76.5795C37.7915 76.5795 38.1059 76.6686 38.3825 76.8466C38.659 77.0246 38.8758 77.2812 39.033 77.6165C39.1921 77.9517 39.2717 78.3551 39.2717 78.8267C39.2717 79.2983 39.1931 79.7027 39.0359 80.0398C38.8787 80.375 38.6628 80.6335 38.3881 80.8153C38.1135 80.9953 37.8001 81.0852 37.4478 81.0852C37.1826 81.0852 36.9658 81.0407 36.7972 80.9517C36.6306 80.8627 36.4999 80.7585 36.4052 80.6392C36.3105 80.5199 36.2376 80.4138 36.1864 80.321H36.1353V82.6364H35.2859ZM36.1183 78.8182C36.1183 79.125 36.1628 79.3939 36.2518 79.625C36.3408 79.8561 36.4696 80.0369 36.6381 80.1676C36.8067 80.2964 37.0131 80.3608 37.2575 80.3608C37.5112 80.3608 37.7234 80.2936 37.8938 80.1591C38.0643 80.0227 38.1931 79.8381 38.2802 79.6051C38.3692 79.3722 38.4137 79.1098 38.4137 78.8182C38.4137 78.5303 38.3701 78.2718 38.283 78.0426C38.1978 77.8134 38.069 77.6326 37.8967 77.5C37.7262 77.3674 37.5131 77.3011 37.2575 77.3011C37.0112 77.3011 36.8029 77.3646 36.6325 77.4915C36.4639 77.6184 36.3361 77.7955 36.2489 78.0227C36.1618 78.25 36.1183 78.5152 36.1183 78.8182ZM44.3775 76.6364V77.3182H41.994V76.6364H44.3775ZM42.6332 75.5909H43.4826V79.7188C43.4826 79.8835 43.5072 80.0076 43.5565 80.0909C43.6057 80.1723 43.6692 80.2282 43.7468 80.2585C43.8263 80.2869 43.9125 80.3011 44.0053 80.3011C44.0735 80.3011 44.1332 80.2964 44.1843 80.2869C44.2354 80.2775 44.2752 80.2699 44.3036 80.2642L44.457 80.9659C44.4078 80.9848 44.3377 81.0038 44.2468 81.0227C44.1559 81.0436 44.0423 81.0549 43.9059 81.0568C43.6824 81.0606 43.4741 81.0208 43.2809 80.9375C43.0877 80.8542 42.9315 80.7254 42.8121 80.5511C42.6928 80.3769 42.6332 80.1581 42.6332 79.8949V75.5909ZM46.2603 78.4091V81H45.4109V75.1818H46.2489V77.3466H46.3029C46.4052 77.1117 46.5614 76.9252 46.7717 76.7869C46.9819 76.6487 47.2565 76.5795 47.5955 76.5795C47.8948 76.5795 48.1561 76.6411 48.3796 76.7642C48.605 76.8873 48.7792 77.071 48.9023 77.3153C49.0273 77.5578 49.0898 77.8608 49.0898 78.2244V81H48.2404V78.3267C48.2404 78.0066 48.158 77.7585 47.9933 77.5824C47.8285 77.4044 47.5993 77.3153 47.3058 77.3153C47.105 77.3153 46.9251 77.358 46.766 77.4432C46.6088 77.5284 46.4847 77.6534 46.3938 77.8182C46.3048 77.9811 46.2603 78.178 46.2603 78.4091ZM52.104 81.0881C51.6741 81.0881 51.3039 80.9962 50.9933 80.8125C50.6845 80.6269 50.4459 80.3665 50.2773 80.0312C50.1107 79.6941 50.0273 79.2992 50.0273 78.8466C50.0273 78.3996 50.1107 78.0057 50.2773 77.6648C50.4459 77.3239 50.6808 77.0578 50.9819 76.8665C51.2849 76.6752 51.6391 76.5795 52.0444 76.5795C52.2906 76.5795 52.5292 76.6203 52.7603 76.7017C52.9914 76.7831 53.1987 76.911 53.3825 77.0852C53.5662 77.2595 53.7111 77.4858 53.8171 77.7642C53.9232 78.0407 53.9762 78.3769 53.9762 78.7727V79.0739H50.5075V78.4375H53.1438C53.1438 78.214 53.0984 78.0161 53.0075 77.8438C52.9165 77.6695 52.7887 77.5322 52.6239 77.4318C52.4611 77.3314 52.2698 77.2812 52.0501 77.2812C51.8114 77.2812 51.6031 77.34 51.4251 77.4574C51.2489 77.5729 51.1126 77.7244 51.016 77.9119C50.9213 78.0975 50.8739 78.2992 50.8739 78.517V79.0142C50.8739 79.3059 50.9251 79.554 51.0273 79.7585C51.1315 79.9631 51.2764 80.1193 51.462 80.2273C51.6476 80.3333 51.8645 80.3864 52.1126 80.3864C52.2736 80.3864 52.4203 80.3636 52.5529 80.3182C52.6855 80.2708 52.8001 80.2008 52.8967 80.108C52.9933 80.0152 53.0671 79.9006 53.1183 79.7642L53.9222 79.9091C53.8578 80.1458 53.7423 80.3532 53.5756 80.5312C53.4109 80.7074 53.2035 80.8447 52.9535 80.9432C52.7054 81.0398 52.4222 81.0881 52.104 81.0881ZM59.0728 76.6364V77.3182H56.6893V76.6364H59.0728ZM57.3285 75.5909H58.1779V79.7188C58.1779 79.8835 58.2025 80.0076 58.2518 80.0909C58.301 80.1723 58.3645 80.2282 58.4421 80.2585C58.5217 80.2869 58.6078 80.3011 58.7006 80.3011C58.7688 80.3011 58.8285 80.2964 58.8796 80.2869C58.9308 80.2775 58.9705 80.2699 58.9989 80.2642L59.1523 80.9659C59.1031 80.9848 59.033 81.0038 58.9421 81.0227C58.8512 81.0436 58.7376 81.0549 58.6012 81.0568C58.3777 81.0606 58.1694 81.0208 57.9762 80.9375C57.783 80.8542 57.6268 80.7254 57.5075 80.5511C57.3881 80.3769 57.3285 80.1581 57.3285 79.8949V75.5909ZM60.9585 81L59.6744 76.6364H60.5522L61.4073 79.8409H61.4499L62.3079 76.6364H63.1857L64.038 79.8267H64.0806L64.93 76.6364H65.8079L64.5266 81H63.6602L62.7738 77.8494H62.7085L61.8221 81H60.9585ZM68.3192 81.0881C67.9102 81.0881 67.5531 80.9943 67.2482 80.8068C66.9433 80.6193 66.7066 80.357 66.538 80.0199C66.3694 79.6828 66.2852 79.2888 66.2852 78.8381C66.2852 78.3854 66.3694 77.9896 66.538 77.6506C66.7066 77.3116 66.9433 77.0483 67.2482 76.8608C67.5531 76.6733 67.9102 76.5795 68.3192 76.5795C68.7283 76.5795 69.0853 76.6733 69.3903 76.8608C69.6952 77.0483 69.9319 77.3116 70.1005 77.6506C70.2691 77.9896 70.3533 78.3854 70.3533 78.8381C70.3533 79.2888 70.2691 79.6828 70.1005 80.0199C69.9319 80.357 69.6952 80.6193 69.3903 80.8068C69.0853 80.9943 68.7283 81.0881 68.3192 81.0881ZM68.3221 80.375C68.5872 80.375 68.8069 80.3049 68.9812 80.1648C69.1554 80.0246 69.2842 79.8381 69.3675 79.6051C69.4528 79.3722 69.4954 79.1155 69.4954 78.8352C69.4954 78.5568 69.4528 78.3011 69.3675 78.0682C69.2842 77.8333 69.1554 77.6449 68.9812 77.5028C68.8069 77.3608 68.5872 77.2898 68.3221 77.2898C68.055 77.2898 67.8335 77.3608 67.6573 77.5028C67.4831 77.6449 67.3533 77.8333 67.2681 78.0682C67.1848 78.3011 67.1431 78.5568 67.1431 78.8352C67.1431 79.1155 67.1848 79.3722 67.2681 79.6051C67.3533 79.8381 67.4831 80.0246 67.6573 80.1648C67.8335 80.3049 68.055 80.375 68.3221 80.375ZM23.9016 86.6364L22.3192 91H21.4102L19.8249 86.6364H20.7369L21.842 89.9943H21.8874L22.9897 86.6364H23.9016ZM24.6999 91V86.6364H25.5494V91H24.6999ZM25.1289 85.9631C24.9812 85.9631 24.8543 85.9138 24.7482 85.8153C24.6441 85.715 24.592 85.5956 24.592 85.4574C24.592 85.3172 24.6441 85.1979 24.7482 85.0994C24.8543 84.9991 24.9812 84.9489 25.1289 84.9489C25.2766 84.9489 25.4026 84.9991 25.5067 85.0994C25.6128 85.1979 25.6658 85.3172 25.6658 85.4574C25.6658 85.5956 25.6128 85.715 25.5067 85.8153C25.4026 85.9138 25.2766 85.9631 25.1289 85.9631ZM28.5728 91.0881C28.1429 91.0881 27.7726 90.9962 27.462 90.8125C27.1533 90.6269 26.9147 90.3665 26.7461 90.0312C26.5794 89.6941 26.4961 89.2992 26.4961 88.8466C26.4961 88.3996 26.5794 88.0057 26.7461 87.6648C26.9147 87.3239 27.1495 87.0578 27.4506 86.8665C27.7537 86.6752 28.1078 86.5795 28.5131 86.5795C28.7594 86.5795 28.998 86.6203 29.229 86.7017C29.4601 86.7831 29.6675 86.911 29.8512 87.0852C30.0349 87.2595 30.1798 87.4858 30.2859 87.7642C30.3919 88.0407 30.445 88.3769 30.445 88.7727V89.0739H26.9762V88.4375H29.6126C29.6126 88.214 29.5671 88.0161 29.4762 87.8438C29.3853 87.6695 29.2575 87.5322 29.0927 87.4318C28.9298 87.3314 28.7385 87.2812 28.5188 87.2812C28.2802 87.2812 28.0719 87.34 27.8938 87.4574C27.7177 87.5729 27.5813 87.7244 27.4847 87.9119C27.39 88.0975 27.3427 88.2992 27.3427 88.517V89.0142C27.3427 89.3059 27.3938 89.554 27.4961 89.7585C27.6003 89.9631 27.7451 90.1193 27.9308 90.2273C28.1164 90.3333 28.3332 90.3864 28.5813 90.3864C28.7423 90.3864 28.8891 90.3636 29.0217 90.3182C29.1542 90.2708 29.2688 90.2008 29.3654 90.108C29.462 90.0152 29.5359 89.9006 29.587 89.7642L30.391 89.9091C30.3266 90.1458 30.2111 90.3532 30.0444 90.5312C29.8796 90.7074 29.6722 90.8447 29.4222 90.9432C29.1741 91.0398 28.891 91.0881 28.5728 91.0881ZM32.3256 91L31.0415 86.6364H31.9194L32.7745 89.8409H32.8171L33.6751 86.6364H34.5529L35.4052 89.8267H35.4478L36.2972 86.6364H37.1751L35.8938 91H35.0273L34.141 87.8494H34.0756L33.1893 91H32.3256ZM39.729 91.0881C39.2991 91.0881 38.9289 90.9962 38.6183 90.8125C38.3095 90.6269 38.0709 90.3665 37.9023 90.0312C37.7357 89.6941 37.6523 89.2992 37.6523 88.8466C37.6523 88.3996 37.7357 88.0057 37.9023 87.6648C38.0709 87.3239 38.3058 87.0578 38.6069 86.8665C38.9099 86.6752 39.2641 86.5795 39.6694 86.5795C39.9156 86.5795 40.1542 86.6203 40.3853 86.7017C40.6164 86.7831 40.8237 86.911 41.0075 87.0852C41.1912 87.2595 41.3361 87.4858 41.4421 87.7642C41.5482 88.0407 41.6012 88.3769 41.6012 88.7727V89.0739H38.1325V88.4375H40.7688C40.7688 88.214 40.7234 88.0161 40.6325 87.8438C40.5415 87.6695 40.4137 87.5322 40.2489 87.4318C40.0861 87.3314 39.8948 87.2812 39.6751 87.2812C39.4364 87.2812 39.2281 87.34 39.0501 87.4574C38.8739 87.5729 38.7376 87.7244 38.641 87.9119C38.5463 88.0975 38.4989 88.2992 38.4989 88.517V89.0142C38.4989 89.3059 38.5501 89.554 38.6523 89.7585C38.7565 89.9631 38.9014 90.1193 39.087 90.2273C39.2726 90.3333 39.4895 90.3864 39.7376 90.3864C39.8986 90.3864 40.0453 90.3636 40.1779 90.3182C40.3105 90.2708 40.4251 90.2008 40.5217 90.108C40.6183 90.0152 40.6921 89.9006 40.7433 89.7642L41.5472 89.9091C41.4828 90.1458 41.3673 90.3532 41.2006 90.5312C41.0359 90.7074 40.8285 90.8447 40.5785 90.9432C40.3304 91.0398 40.0472 91.0881 39.729 91.0881ZM44.1772 91.0852C43.8249 91.0852 43.5105 90.9953 43.234 90.8153C42.9594 90.6335 42.7435 90.375 42.5863 90.0398C42.431 89.7027 42.3533 89.2983 42.3533 88.8267C42.3533 88.3551 42.4319 87.9517 42.5891 87.6165C42.7482 87.2812 42.966 87.0246 43.2425 86.8466C43.5191 86.6686 43.8325 86.5795 44.1829 86.5795C44.4537 86.5795 44.6715 86.625 44.8363 86.7159C45.003 86.8049 45.1317 86.9091 45.2227 87.0284C45.3155 87.1477 45.3874 87.2528 45.4386 87.3438H45.4897V85.1818H46.3391V91H45.5096V90.321H45.4386C45.3874 90.4138 45.3136 90.5199 45.217 90.6392C45.1223 90.7585 44.9916 90.8627 44.8249 90.9517C44.6583 91.0407 44.4424 91.0852 44.1772 91.0852ZM44.3647 90.3608C44.609 90.3608 44.8155 90.2964 44.984 90.1676C45.1545 90.0369 45.2833 89.8561 45.3704 89.625C45.4594 89.3939 45.5039 89.125 45.5039 88.8182C45.5039 88.5152 45.4603 88.25 45.3732 88.0227C45.2861 87.7955 45.1583 87.6184 44.9897 87.4915C44.8211 87.3646 44.6128 87.3011 44.3647 87.3011C44.109 87.3011 43.896 87.3674 43.7255 87.5C43.555 87.6326 43.4263 87.8134 43.3391 88.0426C43.2539 88.2718 43.2113 88.5303 43.2113 88.8182C43.2113 89.1098 43.2549 89.3722 43.342 89.6051C43.4291 89.8381 43.5579 90.0227 43.7283 90.1591C43.9007 90.2936 44.1128 90.3608 44.3647 90.3608ZM51.5067 91.0881C51.0844 91.0881 50.7208 90.9924 50.4158 90.8011C50.1128 90.608 49.8799 90.3419 49.717 90.0028C49.5541 89.6638 49.4727 89.2756 49.4727 88.8381C49.4727 88.3949 49.556 88.0038 49.7227 87.6648C49.8893 87.3239 50.1242 87.0578 50.4272 86.8665C50.7302 86.6752 51.0872 86.5795 51.4982 86.5795C51.8297 86.5795 52.1251 86.6411 52.3846 86.7642C52.6441 86.8854 52.8533 87.0559 53.0124 87.2756C53.1734 87.4953 53.2691 87.7519 53.2994 88.0455H52.4727C52.4272 87.8409 52.323 87.6648 52.1602 87.517C51.9992 87.3693 51.7833 87.2955 51.5124 87.2955C51.2757 87.2955 51.0683 87.358 50.8903 87.483C50.7141 87.6061 50.5768 87.7822 50.4783 88.0114C50.3799 88.2386 50.3306 88.5076 50.3306 88.8182C50.3306 89.1364 50.3789 89.411 50.4755 89.642C50.5721 89.8731 50.7085 90.0521 50.8846 90.179C51.0626 90.3059 51.2719 90.3693 51.5124 90.3693C51.6734 90.3693 51.8192 90.34 51.9499 90.2812C52.0825 90.2206 52.1933 90.1345 52.2823 90.0227C52.3732 89.911 52.4367 89.7765 52.4727 89.6193H53.2994C53.2691 89.9015 53.1772 90.1534 53.0238 90.375C52.8704 90.5966 52.6649 90.7708 52.4073 90.8977C52.1516 91.0246 51.8514 91.0881 51.5067 91.0881ZM55.4776 91.0966C55.2011 91.0966 54.9511 91.0455 54.7276 90.9432C54.5041 90.839 54.3271 90.6884 54.1964 90.4915C54.0676 90.2945 54.0032 90.053 54.0032 89.767C54.0032 89.5208 54.0505 89.3182 54.1452 89.1591C54.2399 89 54.3678 88.8741 54.5288 88.7812C54.6897 88.6884 54.8697 88.6184 55.0685 88.571C55.2674 88.5237 55.4701 88.4877 55.6765 88.4631C55.9379 88.4328 56.15 88.4081 56.3129 88.3892C56.4757 88.3684 56.5941 88.3352 56.668 88.2898C56.7418 88.2443 56.7788 88.1705 56.7788 88.0682V88.0483C56.7788 87.8002 56.7087 87.608 56.5685 87.4716C56.4303 87.3352 56.2238 87.267 55.9492 87.267C55.6632 87.267 55.4379 87.3305 55.2731 87.4574C55.1102 87.5824 54.9975 87.7216 54.935 87.875L54.1367 87.6932C54.2314 87.428 54.3697 87.214 54.5515 87.0511C54.7352 86.8864 54.9464 86.767 55.185 86.6932C55.4237 86.6174 55.6746 86.5795 55.9379 86.5795C56.1121 86.5795 56.2968 86.6004 56.4918 86.642C56.6888 86.6818 56.8725 86.7557 57.043 86.8636C57.2153 86.9716 57.3564 87.1259 57.4663 87.3267C57.5761 87.5256 57.631 87.7841 57.631 88.1023V91H56.8015V90.4034H56.7674C56.7125 90.5133 56.6301 90.6212 56.5202 90.7273C56.4104 90.8333 56.2693 90.9214 56.0969 90.9915C55.9246 91.0616 55.7182 91.0966 55.4776 91.0966ZM55.6623 90.4148C55.8971 90.4148 56.0979 90.3684 56.2646 90.2756C56.4331 90.1828 56.561 90.0616 56.6481 89.9119C56.7371 89.7604 56.7816 89.5985 56.7816 89.4261V88.8636C56.7513 88.8939 56.6926 88.9223 56.6055 88.9489C56.5202 88.9735 56.4227 88.9953 56.3129 89.0142C56.203 89.0312 56.096 89.0473 55.9918 89.0625C55.8877 89.0758 55.8005 89.0871 55.7305 89.0966C55.5657 89.1174 55.4151 89.1525 55.2788 89.2017C55.1443 89.2509 55.0363 89.322 54.9549 89.4148C54.8754 89.5057 54.8356 89.6269 54.8356 89.7784C54.8356 89.9886 54.9132 90.1477 55.0685 90.2557C55.2238 90.3617 55.4218 90.4148 55.6623 90.4148ZM58.7624 91V86.6364H59.5835V87.3295H59.6289C59.7085 87.0947 59.8486 86.91 60.0494 86.7756C60.252 86.6392 60.4812 86.571 60.7369 86.571C60.7899 86.571 60.8524 86.5729 60.9244 86.5767C60.9982 86.5805 61.056 86.5852 61.0977 86.5909V87.4034C61.0636 87.3939 61.003 87.3835 60.9158 87.3722C60.8287 87.3589 60.7416 87.3523 60.6545 87.3523C60.4537 87.3523 60.2747 87.3949 60.1175 87.4801C59.9622 87.5634 59.8391 87.6799 59.7482 87.8295C59.6573 87.9773 59.6119 88.1458 59.6119 88.3352V91H58.7624ZM63.31 91.0852C62.9577 91.0852 62.6433 90.9953 62.3668 90.8153C62.0922 90.6335 61.8763 90.375 61.7191 90.0398C61.5638 89.7027 61.4862 89.2983 61.4862 88.8267C61.4862 88.3551 61.5647 87.9517 61.7219 87.6165C61.881 87.2812 62.0988 87.0246 62.3754 86.8466C62.6519 86.6686 62.9653 86.5795 63.3157 86.5795C63.5865 86.5795 63.8043 86.625 63.9691 86.7159C64.1358 86.8049 64.2646 86.9091 64.3555 87.0284C64.4483 87.1477 64.5202 87.2528 64.5714 87.3438H64.6225V85.1818H65.4719V91H64.6424V90.321H64.5714C64.5202 90.4138 64.4464 90.5199 64.3498 90.6392C64.2551 90.7585 64.1244 90.8627 63.9577 90.9517C63.7911 91.0407 63.5752 91.0852 63.31 91.0852ZM63.4975 90.3608C63.7418 90.3608 63.9483 90.2964 64.1168 90.1676C64.2873 90.0369 64.4161 89.8561 64.5032 89.625C64.5922 89.3939 64.6367 89.125 64.6367 88.8182C64.6367 88.5152 64.5932 88.25 64.506 88.0227C64.4189 87.7955 64.2911 87.6184 64.1225 87.4915C63.954 87.3646 63.7456 87.3011 63.4975 87.3011C63.2418 87.3011 63.0288 87.3674 62.8583 87.5C62.6879 87.6326 62.5591 87.8134 62.4719 88.0426C62.3867 88.2718 62.3441 88.5303 62.3441 88.8182C62.3441 89.1098 62.3877 89.3722 62.4748 89.6051C62.5619 89.8381 62.6907 90.0227 62.8612 90.1591C63.0335 90.2936 63.2456 90.3608 63.4975 90.3608ZM69.9542 87.7017L69.1843 87.8381C69.1521 87.7396 69.101 87.6458 69.0309 87.5568C68.9627 87.4678 68.8699 87.3949 68.7525 87.3381C68.6351 87.2812 68.4883 87.2528 68.3121 87.2528C68.0716 87.2528 67.8709 87.3068 67.7099 87.4148C67.5489 87.5208 67.4684 87.6581 67.4684 87.8267C67.4684 87.9725 67.5224 88.09 67.6303 88.179C67.7383 88.268 67.9125 88.3409 68.1531 88.3977L68.8462 88.5568C69.2478 88.6496 69.547 88.7926 69.744 88.9858C69.9409 89.179 70.0394 89.4299 70.0394 89.7386C70.0394 90 69.9637 90.233 69.8121 90.4375C69.6625 90.6402 69.4532 90.7992 69.1843 90.9148C68.9173 91.0303 68.6076 91.0881 68.2553 91.0881C67.7667 91.0881 67.368 90.9839 67.0593 90.7756C66.7506 90.5653 66.5612 90.267 66.4911 89.8807L67.3121 89.7557C67.3633 89.9697 67.4684 90.1316 67.6275 90.2415C67.7866 90.3494 67.994 90.4034 68.2496 90.4034C68.5281 90.4034 68.7506 90.3456 68.9173 90.2301C69.0839 90.1127 69.1673 89.9697 69.1673 89.8011C69.1673 89.6648 69.1161 89.5502 69.0138 89.4574C68.9135 89.3646 68.7591 89.2945 68.5508 89.2472L67.8121 89.0852C67.4049 88.9924 67.1038 88.8447 66.9087 88.642C66.7156 88.4394 66.619 88.1828 66.619 87.8722C66.619 87.6146 66.6909 87.3892 66.8349 87.196C66.9788 87.0028 67.1777 86.8523 67.4315 86.7443C67.6853 86.6345 67.976 86.5795 68.3036 86.5795C68.7752 86.5795 69.1464 86.6818 69.4173 86.8864C69.6881 87.089 69.8671 87.3608 69.9542 87.7017Z" fill="black"/>
<path d="M75.4957 123.727V115H77.3409V121.976H77.392L79.3906 120.723V122.359L77.2301 123.727H75.4957ZM73.5536 116.534V117.987L69.9102 123.727H68.6573V121.716H69.3988L71.6957 118.081V118.013H66.5181V116.534H73.5536ZM69.3647 115V116.977L69.3306 117.621V123.727H67.6005V115H69.3647Z" fill="black"/>
</svg>
