<svg width="90" height="135" viewBox="0 0 90 135" fill="none" xmlns="http://www.w3.org/2000/svg">
<rect width="90" height="135" rx="8" fill="white"/>
<rect x="4.5" y="4.5" width="81" height="126" rx="7.5" stroke="black"/>
<path d="M14.5043 11.2727V20H12.6591V13.0241H12.608L10.6094 14.277V12.6406L12.7699 11.2727H14.5043ZM20.0004 20.1918C19.2674 20.1889 18.6367 20.0085 18.1083 19.6506C17.5827 19.2926 17.1779 18.7741 16.8938 18.0952C16.6126 17.4162 16.4734 16.5994 16.4762 15.6449C16.4762 14.6932 16.6168 13.8821 16.8981 13.2116C17.1822 12.5412 17.587 12.0312 18.1126 11.6818C18.641 11.3295 19.2702 11.1534 20.0004 11.1534C20.7305 11.1534 21.3583 11.3295 21.8839 11.6818C22.4123 12.0341 22.8185 12.5455 23.1026 13.2159C23.3867 13.8835 23.5273 14.6932 23.5245 15.6449C23.5245 16.6023 23.3825 17.4205 23.0984 18.0994C22.8171 18.7784 22.4137 19.2969 21.8881 19.6548C21.3626 20.0128 20.7333 20.1918 20.0004 20.1918ZM20.0004 18.6619C20.5004 18.6619 20.8995 18.4105 21.1978 17.9077C21.4961 17.4048 21.6438 16.6506 21.641 15.6449C21.641 14.983 21.5728 14.4318 21.4364 13.9915C21.3029 13.5511 21.1126 13.2202 20.8654 12.9986C20.6211 12.777 20.3327 12.6662 20.0004 12.6662C19.5032 12.6662 19.1055 12.9148 18.8072 13.4119C18.5089 13.9091 18.3583 14.6534 18.3555 15.6449C18.3555 16.3153 18.4222 16.875 18.5558 17.3239C18.6921 17.7699 18.8839 18.1051 19.131 18.3295C19.3782 18.5511 19.668 18.6619 20.0004 18.6619Z" fill="black"/>
<path d="M14.9876 45.1818L16.6069 49.9205H16.6722L18.2915 45.1818H19.2404L17.1467 51H16.1325L14.0387 45.1818H14.9876ZM20.0124 51V46.6364H20.8619V51H20.0124ZM20.4414 45.9631C20.2937 45.9631 20.1668 45.9138 20.0607 45.8153C19.9566 45.715 19.9045 45.5956 19.9045 45.4574C19.9045 45.3172 19.9566 45.1979 20.0607 45.0994C20.1668 44.9991 20.2937 44.9489 20.4414 44.9489C20.5891 44.9489 20.7151 44.9991 20.8192 45.0994C20.9253 45.1979 20.9783 45.3172 20.9783 45.4574C20.9783 45.5956 20.9253 45.715 20.8192 45.8153C20.7151 45.9138 20.5891 45.9631 20.4414 45.9631ZM23.8853 51.0881C23.4554 51.0881 23.0851 50.9962 22.7745 50.8125C22.4658 50.6269 22.2272 50.3665 22.0586 50.0312C21.8919 49.6941 21.8086 49.2992 21.8086 48.8466C21.8086 48.3996 21.8919 48.0057 22.0586 47.6648C22.2272 47.3239 22.462 47.0578 22.7631 46.8665C23.0662 46.6752 23.4203 46.5795 23.8256 46.5795C24.0719 46.5795 24.3105 46.6203 24.5415 46.7017C24.7726 46.7831 24.98 46.911 25.1637 47.0852C25.3474 47.2595 25.4923 47.4858 25.5984 47.7642C25.7044 48.0407 25.7575 48.3769 25.7575 48.7727V49.0739H22.2887V48.4375H24.9251C24.9251 48.214 24.8796 48.0161 24.7887 47.8438C24.6978 47.6695 24.57 47.5322 24.4052 47.4318C24.2423 47.3314 24.051 47.2812 23.8313 47.2812C23.5927 47.2812 23.3844 47.34 23.2063 47.4574C23.0302 47.5729 22.8938 47.7244 22.7972 47.9119C22.7025 48.0975 22.6552 48.2992 22.6552 48.517V49.0142C22.6552 49.3059 22.7063 49.554 22.8086 49.7585C22.9128 49.9631 23.0576 50.1193 23.2433 50.2273C23.4289 50.3333 23.6457 50.3864 23.8938 50.3864C24.0548 50.3864 24.2016 50.3636 24.3342 50.3182C24.4667 50.2708 24.5813 50.2008 24.6779 50.108C24.7745 50.0152 24.8484 49.9006 24.8995 49.7642L25.7035 49.9091C25.6391 50.1458 25.5236 50.3532 25.3569 50.5312C25.1921 50.7074 24.9847 50.8447 24.7347 50.9432C24.4866 51.0398 24.2035 51.0881 23.8853 51.0881ZM27.6381 51L26.354 46.6364H27.2319L28.087 49.8409H28.1296L28.9876 46.6364H29.8654L30.7177 49.8267H30.7603L31.6097 46.6364H32.4876L31.2063 51H30.3398L29.4535 47.8494H29.3881L28.5018 51H27.6381ZM37.2489 51.0881C36.8398 51.0881 36.4828 50.9943 36.1779 50.8068C35.873 50.6193 35.6362 50.357 35.4677 50.0199C35.2991 49.6828 35.2148 49.2888 35.2148 48.8381C35.2148 48.3854 35.2991 47.9896 35.4677 47.6506C35.6362 47.3116 35.873 47.0483 36.1779 46.8608C36.4828 46.6733 36.8398 46.5795 37.2489 46.5795C37.658 46.5795 38.015 46.6733 38.32 46.8608C38.6249 47.0483 38.8616 47.3116 39.0302 47.6506C39.1987 47.9896 39.283 48.3854 39.283 48.8381C39.283 49.2888 39.1987 49.6828 39.0302 50.0199C38.8616 50.357 38.6249 50.6193 38.32 50.8068C38.015 50.9943 37.658 51.0881 37.2489 51.0881ZM37.2518 50.375C37.5169 50.375 37.7366 50.3049 37.9109 50.1648C38.0851 50.0246 38.2139 49.8381 38.2972 49.6051C38.3825 49.3722 38.4251 49.1155 38.4251 48.8352C38.4251 48.5568 38.3825 48.3011 38.2972 48.0682C38.2139 47.8333 38.0851 47.6449 37.9109 47.5028C37.7366 47.3608 37.5169 47.2898 37.2518 47.2898C36.9847 47.2898 36.7631 47.3608 36.587 47.5028C36.4128 47.6449 36.283 47.8333 36.1978 48.0682C36.1145 48.3011 36.0728 48.5568 36.0728 48.8352C36.0728 49.1155 36.1145 49.3722 36.1978 49.6051C36.283 49.8381 36.4128 50.0246 36.587 50.1648C36.7631 50.3049 36.9847 50.375 37.2518 50.375ZM41.0806 48.4091V51H40.2312V46.6364H41.0465V47.3466H41.1005C41.2009 47.1155 41.3581 46.9299 41.5721 46.7898C41.788 46.6496 42.0598 46.5795 42.3874 46.5795C42.6848 46.5795 42.9452 46.642 43.1687 46.767C43.3922 46.8902 43.5655 47.0739 43.6886 47.3182C43.8117 47.5625 43.8732 47.8646 43.8732 48.2244V51H43.0238V48.3267C43.0238 48.0104 42.9414 47.7633 42.7766 47.5852C42.6119 47.4053 42.3855 47.3153 42.0977 47.3153C41.9007 47.3153 41.7255 47.358 41.5721 47.4432C41.4206 47.5284 41.3003 47.6534 41.2113 47.8182C41.1242 47.9811 41.0806 48.178 41.0806 48.4091ZM46.8931 51.0881C46.4632 51.0881 46.0929 50.9962 45.7823 50.8125C45.4736 50.6269 45.235 50.3665 45.0664 50.0312C44.8997 49.6941 44.8164 49.2992 44.8164 48.8466C44.8164 48.3996 44.8997 48.0057 45.0664 47.6648C45.235 47.3239 45.4698 47.0578 45.771 46.8665C46.074 46.6752 46.4281 46.5795 46.8335 46.5795C47.0797 46.5795 47.3183 46.6203 47.5494 46.7017C47.7804 46.7831 47.9878 46.911 48.1715 47.0852C48.3552 47.2595 48.5001 47.4858 48.6062 47.7642C48.7122 48.0407 48.7653 48.3769 48.7653 48.7727V49.0739H45.2965V48.4375H47.9329C47.9329 48.214 47.8874 48.0161 47.7965 47.8438C47.7056 47.6695 47.5778 47.5322 47.413 47.4318C47.2501 47.3314 47.0588 47.2812 46.8391 47.2812C46.6005 47.2812 46.3922 47.34 46.2141 47.4574C46.038 47.5729 45.9016 47.7244 45.805 47.9119C45.7103 48.0975 45.663 48.2992 45.663 48.517V49.0142C45.663 49.3059 45.7141 49.554 45.8164 49.7585C45.9206 49.9631 46.0655 50.1193 46.2511 50.2273C46.4367 50.3333 46.6535 50.3864 46.9016 50.3864C47.0626 50.3864 47.2094 50.3636 47.342 50.3182C47.4746 50.2708 47.5891 50.2008 47.6857 50.108C47.7823 50.0152 47.8562 49.9006 47.9073 49.7642L48.7113 49.9091C48.6469 50.1458 48.5314 50.3532 48.3647 50.5312C48.1999 50.7074 47.9925 50.8447 47.7425 50.9432C47.4944 51.0398 47.2113 51.0881 46.8931 51.0881ZM53.663 51.0881C53.2406 51.0881 52.877 50.9924 52.5721 50.8011C52.2691 50.608 52.0361 50.3419 51.8732 50.0028C51.7103 49.6638 51.6289 49.2756 51.6289 48.8381C51.6289 48.3949 51.7122 48.0038 51.8789 47.6648C52.0456 47.3239 52.2804 47.0578 52.5835 46.8665C52.8865 46.6752 53.2435 46.5795 53.6545 46.5795C53.9859 46.5795 54.2814 46.6411 54.5408 46.7642C54.8003 46.8854 55.0096 47.0559 55.1687 47.2756C55.3297 47.4953 55.4253 47.7519 55.4556 48.0455H54.6289C54.5835 47.8409 54.4793 47.6648 54.3164 47.517C54.1554 47.3693 53.9395 47.2955 53.6687 47.2955C53.4319 47.2955 53.2246 47.358 53.0465 47.483C52.8704 47.6061 52.7331 47.7822 52.6346 48.0114C52.5361 48.2386 52.4869 48.5076 52.4869 48.8182C52.4869 49.1364 52.5352 49.411 52.6317 49.642C52.7283 49.8731 52.8647 50.0521 53.0408 50.179C53.2189 50.3059 53.4281 50.3693 53.6687 50.3693C53.8297 50.3693 53.9755 50.34 54.1062 50.2812C54.2388 50.2206 54.3496 50.1345 54.4386 50.0227C54.5295 49.911 54.5929 49.7765 54.6289 49.6193H55.4556C55.4253 49.9015 55.3335 50.1534 55.18 50.375C55.0266 50.5966 54.8211 50.7708 54.5636 50.8977C54.3079 51.0246 54.0077 51.0881 53.663 51.0881ZM57.6339 51.0966C57.3574 51.0966 57.1074 51.0455 56.8839 50.9432C56.6604 50.839 56.4833 50.6884 56.3526 50.4915C56.2238 50.2945 56.1594 50.053 56.1594 49.767C56.1594 49.5208 56.2068 49.3182 56.3015 49.1591C56.3962 49 56.524 48.8741 56.685 48.7812C56.846 48.6884 57.0259 48.6184 57.2248 48.571C57.4237 48.5237 57.6263 48.4877 57.8327 48.4631C58.0941 48.4328 58.3062 48.4081 58.4691 48.3892C58.632 48.3684 58.7504 48.3352 58.8242 48.2898C58.8981 48.2443 58.935 48.1705 58.935 48.0682V48.0483C58.935 47.8002 58.8649 47.608 58.7248 47.4716C58.5865 47.3352 58.3801 47.267 58.1055 47.267C57.8195 47.267 57.5941 47.3305 57.4293 47.4574C57.2665 47.5824 57.1538 47.7216 57.0913 47.875L56.293 47.6932C56.3877 47.428 56.5259 47.214 56.7077 47.0511C56.8915 46.8864 57.1026 46.767 57.3413 46.6932C57.5799 46.6174 57.8308 46.5795 58.0941 46.5795C58.2683 46.5795 58.453 46.6004 58.6481 46.642C58.8451 46.6818 59.0288 46.7557 59.1992 46.8636C59.3716 46.9716 59.5127 47.1259 59.6225 47.3267C59.7324 47.5256 59.7873 47.7841 59.7873 48.1023V51H58.9577V50.4034H58.9237C58.8687 50.5133 58.7863 50.6212 58.6765 50.7273C58.5666 50.8333 58.4255 50.9214 58.2532 50.9915C58.0808 51.0616 57.8744 51.0966 57.6339 51.0966ZM57.8185 50.4148C58.0534 50.4148 58.2541 50.3684 58.4208 50.2756C58.5894 50.1828 58.7172 50.0616 58.8043 49.9119C58.8933 49.7604 58.9379 49.5985 58.9379 49.4261V48.8636C58.9076 48.8939 58.8488 48.9223 58.7617 48.9489C58.6765 48.9735 58.579 48.9953 58.4691 49.0142C58.3593 49.0312 58.2522 49.0473 58.1481 49.0625C58.0439 49.0758 57.9568 49.0871 57.8867 49.0966C57.7219 49.1174 57.5714 49.1525 57.435 49.2017C57.3005 49.2509 57.1926 49.322 57.1112 49.4148C57.0316 49.5057 56.9918 49.6269 56.9918 49.7784C56.9918 49.9886 57.0695 50.1477 57.2248 50.2557C57.3801 50.3617 57.578 50.4148 57.8185 50.4148ZM60.9187 51V46.6364H61.7397V47.3295H61.7852C61.8647 47.0947 62.0049 46.91 62.2056 46.7756C62.4083 46.6392 62.6374 46.571 62.8931 46.571C62.9461 46.571 63.0086 46.5729 63.0806 46.5767C63.1545 46.5805 63.2122 46.5852 63.2539 46.5909V47.4034C63.2198 47.3939 63.1592 47.3835 63.0721 47.3722C62.985 47.3589 62.8978 47.3523 62.8107 47.3523C62.61 47.3523 62.431 47.3949 62.2738 47.4801C62.1185 47.5634 61.9954 47.6799 61.9045 47.8295C61.8136 47.9773 61.7681 48.1458 61.7681 48.3352V51H60.9187ZM65.4663 51.0852C65.114 51.0852 64.7996 50.9953 64.5231 50.8153C64.2485 50.6335 64.0326 50.375 63.8754 50.0398C63.7201 49.7027 63.6424 49.2983 63.6424 48.8267C63.6424 48.3551 63.721 47.9517 63.8782 47.6165C64.0373 47.2812 64.2551 47.0246 64.5316 46.8466C64.8081 46.6686 65.1216 46.5795 65.4719 46.5795C65.7428 46.5795 65.9606 46.625 66.1254 46.7159C66.292 46.8049 66.4208 46.9091 66.5117 47.0284C66.6045 47.1477 66.6765 47.2528 66.7276 47.3438H66.7788V45.1818H67.6282V51H66.7987V50.321H66.7276C66.6765 50.4138 66.6026 50.5199 66.506 50.6392C66.4113 50.7585 66.2807 50.8627 66.114 50.9517C65.9473 51.0407 65.7314 51.0852 65.4663 51.0852ZM65.6538 50.3608C65.8981 50.3608 66.1045 50.2964 66.2731 50.1676C66.4435 50.0369 66.5723 49.8561 66.6594 49.625C66.7485 49.3939 66.793 49.125 66.793 48.8182C66.793 48.5152 66.7494 48.25 66.6623 48.0227C66.5752 47.7955 66.4473 47.6184 66.2788 47.4915C66.1102 47.3646 65.9019 47.3011 65.6538 47.3011C65.3981 47.3011 65.185 47.3674 65.0146 47.5C64.8441 47.6326 64.7153 47.8134 64.6282 48.0426C64.543 48.2718 64.5004 48.5303 64.5004 48.8182C64.5004 49.1098 64.5439 49.3722 64.631 49.6051C64.7182 49.8381 64.8469 50.0227 65.0174 50.1591C65.1897 50.2936 65.4019 50.3608 65.6538 50.3608ZM70.9577 51V46.6364H71.8072V51H70.9577ZM71.3867 45.9631C71.239 45.9631 71.1121 45.9138 71.006 45.8153C70.9019 45.715 70.8498 45.5956 70.8498 45.4574C70.8498 45.3172 70.9019 45.1979 71.006 45.0994C71.1121 44.9991 71.239 44.9489 71.3867 44.9489C71.5344 44.9489 71.6604 44.9991 71.7646 45.0994C71.8706 45.1979 71.9237 45.3172 71.9237 45.4574C71.9237 45.5956 71.8706 45.715 71.7646 45.8153C71.6604 45.9138 71.5344 45.9631 71.3867 45.9631ZM73.7994 48.4091V51H72.9499V46.6364H73.7653V47.3466H73.8192C73.9196 47.1155 74.0768 46.9299 74.2908 46.7898C74.5067 46.6496 74.7785 46.5795 75.1062 46.5795C75.4035 46.5795 75.6639 46.642 75.8874 46.767C76.1109 46.8902 76.2842 47.0739 76.4073 47.3182C76.5304 47.5625 76.592 47.8646 76.592 48.2244V51H75.7425V48.3267C75.7425 48.0104 75.6602 47.7633 75.4954 47.5852C75.3306 47.4053 75.1043 47.3153 74.8164 47.3153C74.6194 47.3153 74.4442 47.358 74.2908 47.4432C74.1393 47.5284 74.0191 47.6534 73.93 47.8182C73.8429 47.9811 73.7994 48.178 73.7994 48.4091ZM9.84872 61.0966C9.57221 61.0966 9.32221 61.0455 9.09872 60.9432C8.87524 60.839 8.69815 60.6884 8.56747 60.4915C8.43868 60.2945 8.37429 60.053 8.37429 59.767C8.37429 59.5208 8.42164 59.3182 8.51634 59.1591C8.61103 59 8.73887 58.8741 8.89986 58.7812C9.06084 58.6884 9.24077 58.6184 9.43963 58.571C9.63849 58.5237 9.84115 58.4877 10.0476 58.4631C10.3089 58.4328 10.5211 58.4081 10.6839 58.3892C10.8468 58.3684 10.9652 58.3352 11.0391 58.2898C11.1129 58.2443 11.1499 58.1705 11.1499 58.0682V58.0483C11.1499 57.8002 11.0798 57.608 10.9396 57.4716C10.8014 57.3352 10.5949 57.267 10.3203 57.267C10.0343 57.267 9.80895 57.3305 9.64418 57.4574C9.4813 57.5824 9.36861 57.7216 9.30611 57.875L8.50781 57.6932C8.60251 57.428 8.74077 57.214 8.92259 57.0511C9.1063 56.8864 9.31747 56.767 9.55611 56.6932C9.79474 56.6174 10.0457 56.5795 10.3089 56.5795C10.4832 56.5795 10.6679 56.6004 10.8629 56.642C11.0599 56.6818 11.2436 56.7557 11.4141 56.8636C11.5864 56.9716 11.7275 57.1259 11.8374 57.3267C11.9472 57.5256 12.0021 57.7841 12.0021 58.1023V61H11.1726V60.4034H11.1385C11.0836 60.5133 11.0012 60.6212 10.8913 60.7273C10.7815 60.8333 10.6404 60.9214 10.468 60.9915C10.2957 61.0616 10.0893 61.0966 9.84872 61.0966ZM10.0334 60.4148C10.2682 60.4148 10.469 60.3684 10.6357 60.2756C10.8042 60.1828 10.9321 60.0616 11.0192 59.9119C11.1082 59.7604 11.1527 59.5985 11.1527 59.4261V58.8636C11.1224 58.8939 11.0637 58.9223 10.9766 58.9489C10.8913 58.9735 10.7938 58.9953 10.6839 59.0142C10.5741 59.0312 10.4671 59.0473 10.3629 59.0625C10.2588 59.0758 10.1716 59.0871 10.1016 59.0966C9.93679 59.1174 9.78622 59.1525 9.64986 59.2017C9.51539 59.2509 9.40743 59.322 9.32599 59.4148C9.24645 59.5057 9.20668 59.6269 9.20668 59.7784C9.20668 59.9886 9.28433 60.1477 9.43963 60.2557C9.59493 60.3617 9.79285 60.4148 10.0334 60.4148ZM13.983 58.4091V61H13.1335V56.6364H13.9489V57.3466H14.0028C14.1032 57.1155 14.2604 56.9299 14.4744 56.7898C14.6903 56.6496 14.9621 56.5795 15.2898 56.5795C15.5871 56.5795 15.8475 56.642 16.071 56.767C16.2945 56.8902 16.4678 57.0739 16.5909 57.3182C16.714 57.5625 16.7756 57.8646 16.7756 58.2244V61H15.9261V58.3267C15.9261 58.0104 15.8438 57.7633 15.679 57.5852C15.5142 57.4053 15.2879 57.3153 15 57.3153C14.803 57.3153 14.6278 57.358 14.4744 57.4432C14.3229 57.5284 14.2027 57.6534 14.1136 57.8182C14.0265 57.9811 13.983 58.178 13.983 58.4091ZM21.87 61.0881C21.4609 61.0881 21.1039 60.9943 20.799 60.8068C20.4941 60.6193 20.2573 60.357 20.0888 60.0199C19.9202 59.6828 19.8359 59.2888 19.8359 58.8381C19.8359 58.3854 19.9202 57.9896 20.0888 57.6506C20.2573 57.3116 20.4941 57.0483 20.799 56.8608C21.1039 56.6733 21.4609 56.5795 21.87 56.5795C22.2791 56.5795 22.6361 56.6733 22.9411 56.8608C23.246 57.0483 23.4827 57.3116 23.6513 57.6506C23.8198 57.9896 23.9041 58.3854 23.9041 58.8381C23.9041 59.2888 23.8198 59.6828 23.6513 60.0199C23.4827 60.357 23.246 60.6193 22.9411 60.8068C22.6361 60.9943 22.2791 61.0881 21.87 61.0881ZM21.8729 60.375C22.138 60.375 22.3577 60.3049 22.532 60.1648C22.7062 60.0246 22.835 59.8381 22.9183 59.6051C23.0036 59.3722 23.0462 59.1155 23.0462 58.8352C23.0462 58.5568 23.0036 58.3011 22.9183 58.0682C22.835 57.8333 22.7062 57.6449 22.532 57.5028C22.3577 57.3608 22.138 57.2898 21.8729 57.2898C21.6058 57.2898 21.3842 57.3608 21.2081 57.5028C21.0339 57.6449 20.9041 57.8333 20.8189 58.0682C20.7356 58.3011 20.6939 58.5568 20.6939 58.8352C20.6939 59.1155 20.7356 59.3722 20.8189 59.6051C20.9041 59.8381 21.0339 60.0246 21.2081 60.1648C21.3842 60.3049 21.6058 60.375 21.8729 60.375ZM24.8523 62.6364V56.6364H25.6818V57.3438H25.7528C25.8021 57.2528 25.8731 57.1477 25.9659 57.0284C26.0587 56.9091 26.1875 56.8049 26.3523 56.7159C26.517 56.625 26.7348 56.5795 27.0057 56.5795C27.358 56.5795 27.6723 56.6686 27.9489 56.8466C28.2254 57.0246 28.4422 57.2812 28.5994 57.6165C28.7585 57.9517 28.8381 58.3551 28.8381 58.8267C28.8381 59.2983 28.7595 59.7027 28.6023 60.0398C28.4451 60.375 28.2292 60.6335 27.9545 60.8153C27.6799 60.9953 27.3665 61.0852 27.0142 61.0852C26.7491 61.0852 26.5322 61.0407 26.3636 60.9517C26.197 60.8627 26.0663 60.7585 25.9716 60.6392C25.8769 60.5199 25.804 60.4138 25.7528 60.321H25.7017V62.6364H24.8523ZM25.6847 58.8182C25.6847 59.125 25.7292 59.3939 25.8182 59.625C25.9072 59.8561 26.036 60.0369 26.2045 60.1676C26.3731 60.2964 26.5795 60.3608 26.8239 60.3608C27.0777 60.3608 27.2898 60.2936 27.4602 60.1591C27.6307 60.0227 27.7595 59.8381 27.8466 59.6051C27.9356 59.3722 27.9801 59.1098 27.9801 58.8182C27.9801 58.5303 27.9366 58.2718 27.8494 58.0426C27.7642 57.8134 27.6354 57.6326 27.4631 57.5C27.2926 57.3674 27.0795 57.3011 26.8239 57.3011C26.5777 57.3011 26.3693 57.3646 26.1989 57.4915C26.0303 57.6184 25.9025 57.7955 25.8153 58.0227C25.7282 58.25 25.6847 58.5152 25.6847 58.8182ZM29.7898 62.6364V56.6364H30.6193V57.3438H30.6903C30.7396 57.2528 30.8106 57.1477 30.9034 57.0284C30.9962 56.9091 31.125 56.8049 31.2898 56.7159C31.4545 56.625 31.6723 56.5795 31.9432 56.5795C32.2955 56.5795 32.6098 56.6686 32.8864 56.8466C33.1629 57.0246 33.3797 57.2812 33.5369 57.6165C33.696 57.9517 33.7756 58.3551 33.7756 58.8267C33.7756 59.2983 33.697 59.7027 33.5398 60.0398C33.3826 60.375 33.1667 60.6335 32.892 60.8153C32.6174 60.9953 32.304 61.0852 31.9517 61.0852C31.6866 61.0852 31.4697 61.0407 31.3011 60.9517C31.1345 60.8627 31.0038 60.7585 30.9091 60.6392C30.8144 60.5199 30.7415 60.4138 30.6903 60.321H30.6392V62.6364H29.7898ZM30.6222 58.8182C30.6222 59.125 30.6667 59.3939 30.7557 59.625C30.8447 59.8561 30.9735 60.0369 31.142 60.1676C31.3106 60.2964 31.517 60.3608 31.7614 60.3608C32.0152 60.3608 32.2273 60.2936 32.3977 60.1591C32.5682 60.0227 32.697 59.8381 32.7841 59.6051C32.8731 59.3722 32.9176 59.1098 32.9176 58.8182C32.9176 58.5303 32.8741 58.2718 32.7869 58.0426C32.7017 57.8134 32.5729 57.6326 32.4006 57.5C32.2301 57.3674 32.017 57.3011 31.7614 57.3011C31.5152 57.3011 31.3068 57.3646 31.1364 57.4915C30.9678 57.6184 30.84 57.7955 30.7528 58.0227C30.6657 58.25 30.6222 58.5152 30.6222 58.8182ZM36.5653 61.0881C36.1563 61.0881 35.7992 60.9943 35.4943 60.8068C35.1894 60.6193 34.9527 60.357 34.7841 60.0199C34.6155 59.6828 34.5312 59.2888 34.5312 58.8381C34.5312 58.3854 34.6155 57.9896 34.7841 57.6506C34.9527 57.3116 35.1894 57.0483 35.4943 56.8608C35.7992 56.6733 36.1563 56.5795 36.5653 56.5795C36.9744 56.5795 37.3314 56.6733 37.6364 56.8608C37.9413 57.0483 38.178 57.3116 38.3466 57.6506C38.5152 57.9896 38.5994 58.3854 38.5994 58.8381C38.5994 59.2888 38.5152 59.6828 38.3466 60.0199C38.178 60.357 37.9413 60.6193 37.6364 60.8068C37.3314 60.9943 36.9744 61.0881 36.5653 61.0881ZM36.5682 60.375C36.8333 60.375 37.053 60.3049 37.2273 60.1648C37.4015 60.0246 37.5303 59.8381 37.6136 59.6051C37.6989 59.3722 37.7415 59.1155 37.7415 58.8352C37.7415 58.5568 37.6989 58.3011 37.6136 58.0682C37.5303 57.8333 37.4015 57.6449 37.2273 57.5028C37.053 57.3608 36.8333 57.2898 36.5682 57.2898C36.3011 57.2898 36.0795 57.3608 35.9034 57.5028C35.7292 57.6449 35.5994 57.8333 35.5142 58.0682C35.4309 58.3011 35.3892 58.5568 35.3892 58.8352C35.3892 59.1155 35.4309 59.3722 35.5142 59.6051C35.5994 59.8381 35.7292 60.0246 35.9034 60.1648C36.0795 60.3049 36.3011 60.375 36.5682 60.375ZM40.397 58.4091V61H39.5476V56.6364H40.3629V57.3466H40.4169C40.5173 57.1155 40.6745 56.9299 40.8885 56.7898C41.1044 56.6496 41.3762 56.5795 41.7038 56.5795C42.0012 56.5795 42.2616 56.642 42.4851 56.767C42.7086 56.8902 42.8819 57.0739 43.005 57.3182C43.1281 57.5625 43.1896 57.8646 43.1896 58.2244V61H42.3402V58.3267C42.3402 58.0104 42.2578 57.7633 42.093 57.5852C41.9283 57.4053 41.7019 57.3153 41.4141 57.3153C41.2171 57.3153 41.0419 57.358 40.8885 57.4432C40.737 57.5284 40.6167 57.6534 40.5277 57.8182C40.4406 57.9811 40.397 58.178 40.397 58.4091ZM46.2095 61.0881C45.7796 61.0881 45.4093 60.9962 45.0987 60.8125C44.79 60.6269 44.5514 60.3665 44.3828 60.0312C44.2161 59.6941 44.1328 59.2992 44.1328 58.8466C44.1328 58.3996 44.2161 58.0057 44.3828 57.6648C44.5514 57.3239 44.7862 57.0578 45.0874 56.8665C45.3904 56.6752 45.7446 56.5795 46.1499 56.5795C46.3961 56.5795 46.6347 56.6203 46.8658 56.7017C47.0968 56.7831 47.3042 56.911 47.4879 57.0852C47.6716 57.2595 47.8165 57.4858 47.9226 57.7642C48.0286 58.0407 48.0817 58.3769 48.0817 58.7727V59.0739H44.6129V58.4375H47.2493C47.2493 58.214 47.2038 58.0161 47.1129 57.8438C47.022 57.6695 46.8942 57.5322 46.7294 57.4318C46.5665 57.3314 46.3752 57.2812 46.1555 57.2812C45.9169 57.2812 45.7086 57.34 45.5305 57.4574C45.3544 57.5729 45.218 57.7244 45.1214 57.9119C45.0268 58.0975 44.9794 58.2992 44.9794 58.517V59.0142C44.9794 59.3059 45.0305 59.554 45.1328 59.7585C45.237 59.9631 45.3819 60.1193 45.5675 60.2273C45.7531 60.3333 45.9699 60.3864 46.218 60.3864C46.379 60.3864 46.5258 60.3636 46.6584 60.3182C46.791 60.2708 46.9055 60.2008 47.0021 60.108C47.0987 60.0152 47.1726 59.9006 47.2237 59.7642L48.0277 59.9091C47.9633 60.1458 47.8478 60.3532 47.6811 60.5312C47.5163 60.7074 47.3089 60.8447 47.0589 60.9432C46.8108 61.0398 46.5277 61.0881 46.2095 61.0881ZM49.8736 58.4091V61H49.0241V56.6364H49.8395V57.3466H49.8935C49.9938 57.1155 50.151 56.9299 50.3651 56.7898C50.581 56.6496 50.8527 56.5795 51.1804 56.5795C51.4777 56.5795 51.7382 56.642 51.9616 56.767C52.1851 56.8902 52.3584 57.0739 52.4815 57.3182C52.6046 57.5625 52.6662 57.8646 52.6662 58.2244V61H51.8168V58.3267C51.8168 58.0104 51.7344 57.7633 51.5696 57.5852C51.4048 57.4053 51.1785 57.3153 50.8906 57.3153C50.6937 57.3153 50.5185 57.358 50.3651 57.4432C50.2135 57.5284 50.0933 57.6534 50.0043 57.8182C49.9171 57.9811 49.8736 58.178 49.8736 58.4091ZM55.8423 56.6364V57.3182H53.4588V56.6364H55.8423ZM54.098 55.5909H54.9474V59.7188C54.9474 59.8835 54.9721 60.0076 55.0213 60.0909C55.0705 60.1723 55.134 60.2282 55.2116 60.2585C55.2912 60.2869 55.3774 60.3011 55.4702 60.3011C55.5384 60.3011 55.598 60.2964 55.6491 60.2869C55.7003 60.2775 55.7401 60.2699 55.7685 60.2642L55.9219 60.9659C55.8726 60.9848 55.8026 61.0038 55.7116 61.0227C55.6207 61.0436 55.5071 61.0549 55.3707 61.0568C55.1473 61.0606 54.9389 61.0208 54.7457 60.9375C54.5526 60.8542 54.3963 60.7254 54.277 60.5511C54.1577 60.3769 54.098 60.1581 54.098 59.8949V55.5909ZM57.7308 55.1818V55.7273C57.7308 55.8883 57.7005 56.0578 57.6399 56.2358C57.5812 56.4119 57.4979 56.5814 57.3899 56.7443C57.282 56.9072 57.1551 57.0473 57.0092 57.1648L56.5888 56.8636C56.7005 56.7008 56.7971 56.5275 56.8786 56.3438C56.9619 56.16 57.0036 55.9574 57.0036 55.7358V55.1818H57.7308ZM61.2706 57.7017L60.5007 57.8381C60.4685 57.7396 60.4174 57.6458 60.3473 57.5568C60.2791 57.4678 60.1863 57.3949 60.0689 57.3381C59.9515 57.2812 59.8047 57.2528 59.6286 57.2528C59.388 57.2528 59.1873 57.3068 59.0263 57.4148C58.8653 57.5208 58.7848 57.6581 58.7848 57.8267C58.7848 57.9725 58.8388 58.09 58.9467 58.179C59.0547 58.268 59.2289 58.3409 59.4695 58.3977L60.1626 58.5568C60.5642 58.6496 60.8634 58.7926 61.0604 58.9858C61.2573 59.179 61.3558 59.4299 61.3558 59.7386C61.3558 60 61.2801 60.233 61.1286 60.4375C60.9789 60.6402 60.7696 60.7992 60.5007 60.9148C60.2337 61.0303 59.924 61.0881 59.5717 61.0881C59.0831 61.0881 58.6844 60.9839 58.3757 60.7756C58.067 60.5653 57.8776 60.267 57.8075 59.8807L58.6286 59.7557C58.6797 59.9697 58.7848 60.1316 58.9439 60.2415C59.103 60.3494 59.3104 60.4034 59.5661 60.4034C59.8445 60.4034 60.067 60.3456 60.2337 60.2301C60.4003 60.1127 60.4837 59.9697 60.4837 59.8011C60.4837 59.6648 60.4325 59.5502 60.3303 59.4574C60.2299 59.3646 60.0755 59.2945 59.8672 59.2472L59.1286 59.0852C58.7214 58.9924 58.4202 58.8447 58.2251 58.642C58.032 58.4394 57.9354 58.1828 57.9354 57.8722C57.9354 57.6146 58.0073 57.3892 58.1513 57.196C58.2952 57.0028 58.4941 56.8523 58.7479 56.7443C59.0017 56.6345 59.2924 56.5795 59.62 56.5795C60.0916 56.5795 60.4628 56.6818 60.7337 56.8864C61.0045 57.089 61.1835 57.3608 61.2706 57.7017ZM65.2564 58.4091V61H64.407V55.1818H65.245V57.3466H65.299C65.4013 57.1117 65.5575 56.9252 65.7678 56.7869C65.978 56.6487 66.2526 56.5795 66.5916 56.5795C66.8909 56.5795 67.1522 56.6411 67.3757 56.7642C67.6011 56.8873 67.7753 57.071 67.8984 57.3153C68.0234 57.5578 68.0859 57.8608 68.0859 58.2244V61H67.2365V58.3267C67.2365 58.0066 67.1541 57.7585 66.9893 57.5824C66.8246 57.4044 66.5954 57.3153 66.3018 57.3153C66.1011 57.3153 65.9212 57.358 65.7621 57.4432C65.6049 57.5284 65.4808 57.6534 65.3899 57.8182C65.3009 57.9811 65.2564 58.178 65.2564 58.4091ZM70.4893 61.0966C70.2128 61.0966 69.9628 61.0455 69.7393 60.9432C69.5159 60.839 69.3388 60.6884 69.2081 60.4915C69.0793 60.2945 69.0149 60.053 69.0149 59.767C69.0149 59.5208 69.0623 59.3182 69.157 59.1591C69.2517 59 69.3795 58.8741 69.5405 58.7812C69.7015 58.6884 69.8814 58.6184 70.0803 58.571C70.2791 58.5237 70.4818 58.4877 70.6882 58.4631C70.9496 58.4328 71.1617 58.4081 71.3246 58.3892C71.4875 58.3684 71.6058 58.3352 71.6797 58.2898C71.7536 58.2443 71.7905 58.1705 71.7905 58.0682V58.0483C71.7905 57.8002 71.7204 57.608 71.5803 57.4716C71.442 57.3352 71.2356 57.267 70.9609 57.267C70.675 57.267 70.4496 57.3305 70.2848 57.4574C70.1219 57.5824 70.0092 57.7216 69.9467 57.875L69.1484 57.6932C69.2431 57.428 69.3814 57.214 69.5632 57.0511C69.7469 56.8864 69.9581 56.767 70.1967 56.6932C70.4354 56.6174 70.6863 56.5795 70.9496 56.5795C71.1238 56.5795 71.3085 56.6004 71.5036 56.642C71.7005 56.6818 71.8842 56.7557 72.0547 56.8636C72.227 56.9716 72.3681 57.1259 72.478 57.3267C72.5878 57.5256 72.6428 57.7841 72.6428 58.1023V61H71.8132V60.4034H71.7791C71.7242 60.5133 71.6418 60.6212 71.532 60.7273C71.4221 60.8333 71.281 60.9214 71.1087 60.9915C70.9363 61.0616 70.7299 61.0966 70.4893 61.0966ZM70.674 60.4148C70.9089 60.4148 71.1096 60.3684 71.2763 60.2756C71.4448 60.1828 71.5727 60.0616 71.6598 59.9119C71.7488 59.7604 71.7933 59.5985 71.7933 59.4261V58.8636C71.763 58.8939 71.7043 58.9223 71.6172 58.9489C71.532 58.9735 71.4344 58.9953 71.3246 59.0142C71.2147 59.0312 71.1077 59.0473 71.0036 59.0625C70.8994 59.0758 70.8123 59.0871 70.7422 59.0966C70.5774 59.1174 70.4268 59.1525 70.2905 59.2017C70.156 59.2509 70.0481 59.322 69.9666 59.4148C69.8871 59.5057 69.8473 59.6269 69.8473 59.7784C69.8473 59.9886 69.925 60.1477 70.0803 60.2557C70.2356 60.3617 70.4335 60.4148 70.674 60.4148ZM74.6236 58.4091V61H73.7741V56.6364H74.5895V57.3466H74.6435C74.7438 57.1155 74.901 56.9299 75.1151 56.7898C75.331 56.6496 75.6027 56.5795 75.9304 56.5795C76.2277 56.5795 76.4882 56.642 76.7116 56.767C76.9351 56.8902 77.1084 57.0739 77.2315 57.3182C77.3546 57.5625 77.4162 57.8646 77.4162 58.2244V61H76.5668V58.3267C76.5668 58.0104 76.4844 57.7633 76.3196 57.5852C76.1548 57.4053 75.9285 57.3153 75.6406 57.3153C75.4437 57.3153 75.2685 57.358 75.1151 57.4432C74.9635 57.5284 74.8433 57.6534 74.7543 57.8182C74.6671 57.9811 74.6236 58.178 74.6236 58.4091ZM80.1889 61.0852C79.8366 61.0852 79.5223 60.9953 79.2457 60.8153C78.9711 60.6335 78.7552 60.375 78.598 60.0398C78.4427 59.7027 78.3651 59.2983 78.3651 58.8267C78.3651 58.3551 78.4437 57.9517 78.6009 57.6165C78.7599 57.2812 78.9777 57.0246 79.2543 56.8466C79.5308 56.6686 79.8442 56.5795 80.1946 56.5795C80.4654 56.5795 80.6832 56.625 80.848 56.7159C81.0147 56.8049 81.1435 56.9091 81.2344 57.0284C81.3272 57.1477 81.3991 57.2528 81.4503 57.3438H81.5014V55.1818H82.3509V61H81.5213V60.321H81.4503C81.3991 60.4138 81.3253 60.5199 81.2287 60.6392C81.134 60.7585 81.0033 60.8627 80.8366 60.9517C80.67 61.0407 80.4541 61.0852 80.1889 61.0852ZM80.3764 60.3608C80.6207 60.3608 80.8272 60.2964 80.9957 60.1676C81.1662 60.0369 81.295 59.8561 81.3821 59.625C81.4711 59.3939 81.5156 59.125 81.5156 58.8182C81.5156 58.5152 81.4721 58.25 81.3849 58.0227C81.2978 57.7955 81.17 57.6184 81.0014 57.4915C80.8329 57.3646 80.6245 57.3011 80.3764 57.3011C80.1207 57.3011 79.9077 57.3674 79.7372 57.5C79.5668 57.6326 79.438 57.8134 79.3509 58.0426C79.2656 58.2718 79.223 58.5303 79.223 58.8182C79.223 59.1098 79.2666 59.3722 79.3537 59.6051C79.4408 59.8381 79.5696 60.0227 79.7401 60.1591C79.9124 60.2936 80.1245 60.3608 80.3764 60.3608Z" fill="black"/>
<path d="M75.4957 123.727V115H77.3409V121.976H77.392L79.3906 120.723V122.359L77.2301 123.727H75.4957ZM69.9996 114.808C70.7326 114.811 71.3633 114.991 71.8917 115.349C72.4173 115.707 72.8221 116.226 73.1062 116.905C73.3874 117.584 73.5266 118.401 73.5238 119.355C73.5238 120.307 73.3832 121.118 73.1019 121.788C72.8178 122.459 72.413 122.969 71.8874 123.318C71.359 123.67 70.7298 123.847 69.9996 123.847C69.2695 123.847 68.6417 123.67 68.1161 123.318C67.5877 122.966 67.1815 122.455 66.8974 121.784C66.6133 121.116 66.4727 120.307 66.4755 119.355C66.4755 118.398 66.6175 117.58 66.9016 116.901C67.1829 116.222 67.5863 115.703 68.1119 115.345C68.6374 114.987 69.2667 114.808 69.9996 114.808ZM69.9996 116.338C69.4996 116.338 69.1005 116.589 68.8022 117.092C68.5039 117.595 68.3562 118.349 68.359 119.355C68.359 120.017 68.4272 120.568 68.5636 121.009C68.6971 121.449 68.8874 121.78 69.1346 122.001C69.3789 122.223 69.6673 122.334 69.9996 122.334C70.4968 122.334 70.8945 122.085 71.1928 121.588C71.4911 121.091 71.6417 120.347 71.6445 119.355C71.6445 118.685 71.5778 118.125 71.4442 117.676C71.3079 117.23 71.1161 116.895 70.869 116.67C70.6218 116.449 70.332 116.338 69.9996 116.338Z" fill="black"/>
</svg>
