<svg width="90" height="135" viewBox="0 0 90 135" fill="none" xmlns="http://www.w3.org/2000/svg">
<rect width="90" height="135" rx="8" fill="white"/>
<rect x="4.5" y="4.5" width="81" height="126" rx="7.5" stroke="black"/>
<path d="M14.5043 11.2727V20H12.6591V13.0241H12.608L10.6094 14.277V12.6406L12.7699 11.2727H14.5043ZM19.8043 20.1193C19.168 20.1193 18.6012 20.0099 18.104 19.7912C17.6097 19.5696 17.2191 19.2656 16.9322 18.8793C16.6481 18.4901 16.5018 18.0412 16.4933 17.5327H18.3512C18.3626 17.7457 18.4322 17.9332 18.56 18.0952C18.6907 18.2543 18.864 18.3778 19.0799 18.4659C19.2958 18.554 19.5387 18.598 19.8086 18.598C20.0898 18.598 20.3384 18.5483 20.5543 18.4489C20.7702 18.3494 20.9393 18.2116 21.0614 18.0355C21.1836 17.8594 21.2447 17.6562 21.2447 17.4261C21.2447 17.1932 21.1793 16.9872 21.0487 16.8082C20.9208 16.6264 20.7362 16.4844 20.4947 16.3821C20.256 16.2798 19.9719 16.2287 19.6424 16.2287H18.8285V14.8736H19.6424C19.9208 14.8736 20.1665 14.8253 20.3796 14.7287C20.5955 14.6321 20.7631 14.4986 20.8825 14.3281C21.0018 14.1548 21.0614 13.9531 21.0614 13.723C21.0614 13.5043 21.0089 13.3125 20.9038 13.1477C20.8015 12.9801 20.6566 12.8494 20.4691 12.7557C20.2844 12.6619 20.0685 12.6151 19.8214 12.6151C19.5714 12.6151 19.3427 12.6605 19.1353 12.7514C18.9279 12.8395 18.7617 12.9659 18.6367 13.1307C18.5117 13.2955 18.445 13.4886 18.4364 13.7102H16.668C16.6765 13.2074 16.82 12.7642 17.0984 12.3807C17.3768 11.9972 17.7518 11.6974 18.2234 11.4815C18.6978 11.2628 19.2333 11.1534 19.8299 11.1534C20.4322 11.1534 20.9592 11.2628 21.4109 11.4815C21.8626 11.7003 22.2134 11.9957 22.4634 12.3679C22.7163 12.7372 22.8413 13.152 22.8384 13.6122C22.8413 14.1009 22.6893 14.5085 22.3825 14.8352C22.0785 15.1619 21.6822 15.3693 21.1935 15.4574V15.5256C21.8356 15.608 22.3242 15.831 22.6594 16.1946C22.9975 16.5554 23.1651 17.0071 23.1623 17.5497C23.1651 18.0469 23.0217 18.4886 22.7319 18.875C22.445 19.2614 22.0487 19.5653 21.543 19.7869C21.0373 20.0085 20.4577 20.1193 19.8043 20.1193Z" fill="black"/>
<path d="M17.4798 45.1818L19.0991 49.9205H19.1644L20.7837 45.1818H21.7326L19.6388 51H18.6246L16.5309 45.1818H17.4798ZM22.5046 51V46.6364H23.354V51H22.5046ZM22.9336 45.9631C22.7859 45.9631 22.659 45.9138 22.5529 45.8153C22.4487 45.715 22.3967 45.5956 22.3967 45.4574C22.3967 45.3172 22.4487 45.1979 22.5529 45.0994C22.659 44.9991 22.7859 44.9489 22.9336 44.9489C23.0813 44.9489 23.2073 44.9991 23.3114 45.0994C23.4175 45.1979 23.4705 45.3172 23.4705 45.4574C23.4705 45.5956 23.4175 45.715 23.3114 45.8153C23.2073 45.9138 23.0813 45.9631 22.9336 45.9631ZM26.3775 51.0881C25.9476 51.0881 25.5773 50.9962 25.2667 50.8125C24.958 50.6269 24.7193 50.3665 24.5508 50.0312C24.3841 49.6941 24.3008 49.2992 24.3008 48.8466C24.3008 48.3996 24.3841 48.0057 24.5508 47.6648C24.7193 47.3239 24.9542 47.0578 25.2553 46.8665C25.5584 46.6752 25.9125 46.5795 26.3178 46.5795C26.564 46.5795 26.8027 46.6203 27.0337 46.7017C27.2648 46.7831 27.4722 46.911 27.6559 47.0852C27.8396 47.2595 27.9845 47.4858 28.0906 47.7642C28.1966 48.0407 28.2496 48.3769 28.2496 48.7727V49.0739H24.7809V48.4375H27.4173C27.4173 48.214 27.3718 48.0161 27.2809 47.8438C27.19 47.6695 27.0621 47.5322 26.8974 47.4318C26.7345 47.3314 26.5432 47.2812 26.3235 47.2812C26.0849 47.2812 25.8765 47.34 25.6985 47.4574C25.5224 47.5729 25.386 47.7244 25.2894 47.9119C25.1947 48.0975 25.1474 48.2992 25.1474 48.517V49.0142C25.1474 49.3059 25.1985 49.554 25.3008 49.7585C25.4049 49.9631 25.5498 50.1193 25.7354 50.2273C25.921 50.3333 26.1379 50.3864 26.386 50.3864C26.547 50.3864 26.6938 50.3636 26.8263 50.3182C26.9589 50.2708 27.0735 50.2008 27.1701 50.108C27.2667 50.0152 27.3406 49.9006 27.3917 49.7642L28.1957 49.9091C28.1313 50.1458 28.0157 50.3532 27.8491 50.5312C27.6843 50.7074 27.4769 50.8447 27.2269 50.9432C26.9788 51.0398 26.6957 51.0881 26.3775 51.0881ZM30.1303 51L28.8462 46.6364H29.7241L30.5792 49.8409H30.6218L31.4798 46.6364H32.3576L33.2099 49.8267H33.2525L34.1019 46.6364H34.9798L33.6985 51H32.832L31.9457 47.8494H31.8803L30.994 51H30.1303ZM38.4627 51H37.5309L39.6246 45.1818H40.6388L42.7326 51H41.8008L40.1559 46.2386H40.1104L38.4627 51ZM38.619 48.7216H41.6417V49.4602H38.619V48.7216ZM48.2688 45.1818V51H47.462L44.5046 46.733H44.4506V51H43.5728V45.1818H44.3853L47.3455 49.4545H47.3995V45.1818H48.2688ZM49.1005 45.1818H50.0977L51.6175 47.8267H51.68L53.1999 45.1818H54.1971L52.0863 48.7159V51H51.2113V48.7159L49.1005 45.1818ZM58.913 51.0881C58.4906 51.0881 58.127 50.9924 57.8221 50.8011C57.5191 50.608 57.2861 50.3419 57.1232 50.0028C56.9603 49.6638 56.8789 49.2756 56.8789 48.8381C56.8789 48.3949 56.9622 48.0038 57.1289 47.6648C57.2956 47.3239 57.5304 47.0578 57.8335 46.8665C58.1365 46.6752 58.4935 46.5795 58.9045 46.5795C59.2359 46.5795 59.5314 46.6411 59.7908 46.7642C60.0503 46.8854 60.2596 47.0559 60.4187 47.2756C60.5797 47.4953 60.6753 47.7519 60.7056 48.0455H59.8789C59.8335 47.8409 59.7293 47.6648 59.5664 47.517C59.4054 47.3693 59.1895 47.2955 58.9187 47.2955C58.6819 47.2955 58.4746 47.358 58.2965 47.483C58.1204 47.6061 57.9831 47.7822 57.8846 48.0114C57.7861 48.2386 57.7369 48.5076 57.7369 48.8182C57.7369 49.1364 57.7852 49.411 57.8817 49.642C57.9783 49.8731 58.1147 50.0521 58.2908 50.179C58.4689 50.3059 58.6781 50.3693 58.9187 50.3693C59.0797 50.3693 59.2255 50.34 59.3562 50.2812C59.4888 50.2206 59.5996 50.1345 59.6886 50.0227C59.7795 49.911 59.8429 49.7765 59.8789 49.6193H60.7056C60.6753 49.9015 60.5835 50.1534 60.43 50.375C60.2766 50.5966 60.0711 50.7708 59.8136 50.8977C59.5579 51.0246 59.2577 51.0881 58.913 51.0881ZM62.8839 51.0966C62.6074 51.0966 62.3574 51.0455 62.1339 50.9432C61.9104 50.839 61.7333 50.6884 61.6026 50.4915C61.4738 50.2945 61.4094 50.053 61.4094 49.767C61.4094 49.5208 61.4568 49.3182 61.5515 49.1591C61.6462 49 61.774 48.8741 61.935 48.7812C62.096 48.6884 62.2759 48.6184 62.4748 48.571C62.6737 48.5237 62.8763 48.4877 63.0827 48.4631C63.3441 48.4328 63.5562 48.4081 63.7191 48.3892C63.882 48.3684 64.0004 48.3352 64.0742 48.2898C64.1481 48.2443 64.185 48.1705 64.185 48.0682V48.0483C64.185 47.8002 64.1149 47.608 63.9748 47.4716C63.8365 47.3352 63.6301 47.267 63.3555 47.267C63.0695 47.267 62.8441 47.3305 62.6793 47.4574C62.5165 47.5824 62.4038 47.7216 62.3413 47.875L61.543 47.6932C61.6377 47.428 61.7759 47.214 61.9577 47.0511C62.1415 46.8864 62.3526 46.767 62.5913 46.6932C62.8299 46.6174 63.0808 46.5795 63.3441 46.5795C63.5183 46.5795 63.703 46.6004 63.8981 46.642C64.0951 46.6818 64.2788 46.7557 64.4492 46.8636C64.6216 46.9716 64.7627 47.1259 64.8725 47.3267C64.9824 47.5256 65.0373 47.7841 65.0373 48.1023V51H64.2077V50.4034H64.1737C64.1187 50.5133 64.0363 50.6212 63.9265 50.7273C63.8166 50.8333 63.6755 50.9214 63.5032 50.9915C63.3308 51.0616 63.1244 51.0966 62.8839 51.0966ZM63.0685 50.4148C63.3034 50.4148 63.5041 50.3684 63.6708 50.2756C63.8394 50.1828 63.9672 50.0616 64.0543 49.9119C64.1433 49.7604 64.1879 49.5985 64.1879 49.4261V48.8636C64.1576 48.8939 64.0988 48.9223 64.0117 48.9489C63.9265 48.9735 63.829 48.9953 63.7191 49.0142C63.6093 49.0312 63.5022 49.0473 63.3981 49.0625C63.2939 49.0758 63.2068 49.0871 63.1367 49.0966C62.9719 49.1174 62.8214 49.1525 62.685 49.2017C62.5505 49.2509 62.4426 49.322 62.3612 49.4148C62.2816 49.5057 62.2418 49.6269 62.2418 49.7784C62.2418 49.9886 62.3195 50.1477 62.4748 50.2557C62.6301 50.3617 62.828 50.4148 63.0685 50.4148ZM66.1687 51V46.6364H66.9897V47.3295H67.0352C67.1147 47.0947 67.2549 46.91 67.4556 46.7756C67.6583 46.6392 67.8874 46.571 68.1431 46.571C68.1961 46.571 68.2586 46.5729 68.3306 46.5767C68.4045 46.5805 68.4622 46.5852 68.5039 46.5909V47.4034C68.4698 47.3939 68.4092 47.3835 68.3221 47.3722C68.235 47.3589 68.1478 47.3523 68.0607 47.3523C67.86 47.3523 67.681 47.3949 67.5238 47.4801C67.3685 47.5634 67.2454 47.6799 67.1545 47.8295C67.0636 47.9773 67.0181 48.1458 67.0181 48.3352V51H66.1687ZM70.7163 51.0852C70.364 51.0852 70.0496 50.9953 69.7731 50.8153C69.4985 50.6335 69.2826 50.375 69.1254 50.0398C68.9701 49.7027 68.8924 49.2983 68.8924 48.8267C68.8924 48.3551 68.971 47.9517 69.1282 47.6165C69.2873 47.2812 69.5051 47.0246 69.7816 46.8466C70.0581 46.6686 70.3716 46.5795 70.7219 46.5795C70.9928 46.5795 71.2106 46.625 71.3754 46.7159C71.542 46.8049 71.6708 46.9091 71.7617 47.0284C71.8545 47.1477 71.9265 47.2528 71.9776 47.3438H72.0288V45.1818H72.8782V51H72.0487V50.321H71.9776C71.9265 50.4138 71.8526 50.5199 71.756 50.6392C71.6613 50.7585 71.5307 50.8627 71.364 50.9517C71.1973 51.0407 70.9814 51.0852 70.7163 51.0852ZM70.9038 50.3608C71.1481 50.3608 71.3545 50.2964 71.5231 50.1676C71.6935 50.0369 71.8223 49.8561 71.9094 49.625C71.9985 49.3939 72.043 49.125 72.043 48.8182C72.043 48.5152 71.9994 48.25 71.9123 48.0227C71.8252 47.7955 71.6973 47.6184 71.5288 47.4915C71.3602 47.3646 71.1519 47.3011 70.9038 47.3011C70.6481 47.3011 70.435 47.3674 70.2646 47.5C70.0941 47.6326 69.9653 47.8134 69.8782 48.0426C69.793 48.2718 69.7504 48.5303 69.7504 48.8182C69.7504 49.1098 69.7939 49.3722 69.881 49.6051C69.9682 49.8381 70.0969 50.0227 70.2674 50.1591C70.4397 50.2936 70.6519 50.3608 70.9038 50.3608ZM74.6502 51.054C74.4949 51.054 74.3614 50.9991 74.2496 50.8892C74.1379 50.7775 74.082 50.643 74.082 50.4858C74.082 50.3305 74.1379 50.1979 74.2496 50.0881C74.3614 49.9763 74.4949 49.9205 74.6502 49.9205C74.8055 49.9205 74.939 49.9763 75.0508 50.0881C75.1625 50.1979 75.2184 50.3305 75.2184 50.4858C75.2184 50.59 75.1919 50.6856 75.1388 50.7727C75.0877 50.858 75.0195 50.9261 74.9343 50.9773C74.8491 51.0284 74.7544 51.054 74.6502 51.054ZM26.4389 55.1818V61H25.5611V55.1818H26.4389ZM29.7259 56.6364V57.3182H27.2599V56.6364H29.7259ZM27.9361 61V56.1307C27.9361 55.858 27.9957 55.6316 28.1151 55.4517C28.2344 55.2699 28.3925 55.1345 28.5895 55.0455C28.7865 54.9545 29.0005 54.9091 29.2315 54.9091C29.402 54.9091 29.5478 54.9233 29.669 54.9517C29.7902 54.9782 29.8802 55.0028 29.9389 55.0256L29.7401 55.7131C29.7003 55.7017 29.6491 55.6884 29.5866 55.6733C29.5241 55.6562 29.4484 55.6477 29.3594 55.6477C29.1529 55.6477 29.0052 55.6989 28.9162 55.8011C28.8291 55.9034 28.7855 56.0511 28.7855 56.2443V61H27.9361ZM34.353 61.0852C34.0007 61.0852 33.6863 60.9953 33.4098 60.8153C33.1352 60.6335 32.9193 60.375 32.7621 60.0398C32.6068 59.7027 32.5291 59.2983 32.5291 58.8267C32.5291 58.3551 32.6077 57.9517 32.7649 57.6165C32.924 57.2812 33.1418 57.0246 33.4183 56.8466C33.6948 56.6686 34.0083 56.5795 34.3587 56.5795C34.6295 56.5795 34.8473 56.625 35.0121 56.7159C35.1787 56.8049 35.3075 56.9091 35.3984 57.0284C35.4912 57.1477 35.5632 57.2528 35.6143 57.3438H35.6655V55.1818H36.5149V61H35.6854V60.321H35.6143C35.5632 60.4138 35.4893 60.5199 35.3928 60.6392C35.2981 60.7585 35.1674 60.8627 35.0007 60.9517C34.834 61.0407 34.6181 61.0852 34.353 61.0852ZM34.5405 60.3608C34.7848 60.3608 34.9912 60.2964 35.1598 60.1676C35.3303 60.0369 35.459 59.8561 35.5462 59.625C35.6352 59.3939 35.6797 59.125 35.6797 58.8182C35.6797 58.5152 35.6361 58.25 35.549 58.0227C35.4619 57.7955 35.334 57.6184 35.1655 57.4915C34.9969 57.3646 34.7886 57.3011 34.5405 57.3011C34.2848 57.3011 34.0717 57.3674 33.9013 57.5C33.7308 57.6326 33.602 57.8134 33.5149 58.0426C33.4297 58.2718 33.3871 58.5303 33.3871 58.8182C33.3871 59.1098 33.4306 59.3722 33.5178 59.6051C33.6049 59.8381 33.7337 60.0227 33.9041 60.1591C34.0765 60.2936 34.2886 60.3608 34.5405 60.3608ZM39.608 61.0881C39.178 61.0881 38.8078 60.9962 38.4972 60.8125C38.1884 60.6269 37.9498 60.3665 37.7812 60.0312C37.6146 59.6941 37.5312 59.2992 37.5312 58.8466C37.5312 58.3996 37.6146 58.0057 37.7812 57.6648C37.9498 57.3239 38.1847 57.0578 38.4858 56.8665C38.7888 56.6752 39.143 56.5795 39.5483 56.5795C39.7945 56.5795 40.0331 56.6203 40.2642 56.7017C40.4953 56.7831 40.7027 56.911 40.8864 57.0852C41.0701 57.2595 41.215 57.4858 41.321 57.7642C41.4271 58.0407 41.4801 58.3769 41.4801 58.7727V59.0739H38.0114V58.4375H40.6477C40.6477 58.214 40.6023 58.0161 40.5114 57.8438C40.4205 57.6695 40.2926 57.5322 40.1278 57.4318C39.965 57.3314 39.7737 57.2812 39.554 57.2812C39.3153 57.2812 39.107 57.34 38.929 57.4574C38.7528 57.5729 38.6165 57.7244 38.5199 57.9119C38.4252 58.0975 38.3778 58.2992 38.3778 58.517V59.0142C38.3778 59.3059 38.429 59.554 38.5312 59.7585C38.6354 59.9631 38.7803 60.1193 38.9659 60.2273C39.1515 60.3333 39.3684 60.3864 39.6165 60.3864C39.7775 60.3864 39.9242 60.3636 40.0568 60.3182C40.1894 60.2708 40.304 60.2008 40.4006 60.108C40.4972 60.0152 40.571 59.9006 40.6222 59.7642L41.4261 59.9091C41.3617 60.1458 41.2462 60.3532 41.0795 60.5312C40.9148 60.7074 40.7074 60.8447 40.4574 60.9432C40.2093 61.0398 39.9261 61.0881 39.608 61.0881ZM45.6925 57.7017L44.9226 57.8381C44.8904 57.7396 44.8393 57.6458 44.7692 57.5568C44.701 57.4678 44.6082 57.3949 44.4908 57.3381C44.3733 57.2812 44.2266 57.2528 44.0504 57.2528C43.8099 57.2528 43.6091 57.3068 43.4482 57.4148C43.2872 57.5208 43.2067 57.6581 43.2067 57.8267C43.2067 57.9725 43.2607 58.09 43.3686 58.179C43.4766 58.268 43.6508 58.3409 43.8913 58.3977L44.5845 58.5568C44.986 58.6496 45.2853 58.7926 45.4822 58.9858C45.6792 59.179 45.7777 59.4299 45.7777 59.7386C45.7777 60 45.7019 60.233 45.5504 60.4375C45.4008 60.6402 45.1915 60.7992 44.9226 60.9148C44.6555 61.0303 44.3459 61.0881 43.9936 61.0881C43.505 61.0881 43.1063 60.9839 42.7976 60.7756C42.4889 60.5653 42.2995 60.267 42.2294 59.8807L43.0504 59.7557C43.1016 59.9697 43.2067 60.1316 43.3658 60.2415C43.5249 60.3494 43.7322 60.4034 43.9879 60.4034C44.2663 60.4034 44.4889 60.3456 44.6555 60.2301C44.8222 60.1127 44.9055 59.9697 44.9055 59.8011C44.9055 59.6648 44.8544 59.5502 44.7521 59.4574C44.6518 59.3646 44.4974 59.2945 44.2891 59.2472L43.5504 59.0852C43.1432 58.9924 42.8421 58.8447 42.647 58.642C42.4538 58.4394 42.3572 58.1828 42.3572 57.8722C42.3572 57.6146 42.4292 57.3892 42.5732 57.196C42.7171 57.0028 42.916 56.8523 43.1697 56.7443C43.4235 56.6345 43.7143 56.5795 44.0419 56.5795C44.5135 56.5795 44.8847 56.6818 45.1555 56.8864C45.4264 57.089 45.6054 57.3608 45.6925 57.7017ZM46.7116 61V56.6364H47.5611V61H46.7116ZM47.1406 55.9631C46.9929 55.9631 46.866 55.9138 46.7599 55.8153C46.6558 55.715 46.6037 55.5956 46.6037 55.4574C46.6037 55.3172 46.6558 55.1979 46.7599 55.0994C46.866 54.9991 46.9929 54.9489 47.1406 54.9489C47.2884 54.9489 47.4143 54.9991 47.5185 55.0994C47.6245 55.1979 47.6776 55.3172 47.6776 55.4574C47.6776 55.5956 47.6245 55.715 47.5185 55.8153C47.4143 55.9138 47.2884 55.9631 47.1406 55.9631ZM48.7038 61V56.6364H49.5249V57.3295H49.5703C49.6499 57.0947 49.79 56.91 49.9908 56.7756C50.1934 56.6392 50.4226 56.571 50.6783 56.571C50.7313 56.571 50.7938 56.5729 50.8658 56.5767C50.9396 56.5805 50.9974 56.5852 51.0391 56.5909V57.4034C51.005 57.3939 50.9444 57.3835 50.8572 57.3722C50.7701 57.3589 50.683 57.3523 50.5959 57.3523C50.3951 57.3523 50.2161 57.3949 50.0589 57.4801C49.9036 57.5634 49.7805 57.6799 49.6896 57.8295C49.5987 57.9773 49.5533 58.1458 49.5533 58.3352V61H48.7038ZM53.4986 61.0881C53.0687 61.0881 52.6984 60.9962 52.3878 60.8125C52.0791 60.6269 51.8404 60.3665 51.6719 60.0312C51.5052 59.6941 51.4219 59.2992 51.4219 58.8466C51.4219 58.3996 51.5052 58.0057 51.6719 57.6648C51.8404 57.3239 52.0753 57.0578 52.3764 56.8665C52.6795 56.6752 53.0336 56.5795 53.4389 56.5795C53.6851 56.5795 53.9238 56.6203 54.1548 56.7017C54.3859 56.7831 54.5933 56.911 54.777 57.0852C54.9607 57.2595 55.1056 57.4858 55.2116 57.7642C55.3177 58.0407 55.3707 58.3769 55.3707 58.7727V59.0739H51.902V58.4375H54.5384C54.5384 58.214 54.4929 58.0161 54.402 57.8438C54.3111 57.6695 54.1832 57.5322 54.0185 57.4318C53.8556 57.3314 53.6643 57.2812 53.4446 57.2812C53.206 57.2812 52.9976 57.34 52.8196 57.4574C52.6435 57.5729 52.5071 57.7244 52.4105 57.9119C52.3158 58.0975 52.2685 58.2992 52.2685 58.517V59.0142C52.2685 59.3059 52.3196 59.554 52.4219 59.7585C52.526 59.9631 52.6709 60.1193 52.8565 60.2273C53.0421 60.3333 53.259 60.3864 53.5071 60.3864C53.6681 60.3864 53.8149 60.3636 53.9474 60.3182C54.08 60.2708 54.1946 60.2008 54.2912 60.108C54.3878 60.0152 54.4616 59.9006 54.5128 59.7642L55.3168 59.9091C55.2524 60.1458 55.1368 60.3532 54.9702 60.5312C54.8054 60.7074 54.598 60.8447 54.348 60.9432C54.0999 61.0398 53.8168 61.0881 53.4986 61.0881ZM57.9467 61.0852C57.5945 61.0852 57.2801 60.9953 57.0036 60.8153C56.7289 60.6335 56.513 60.375 56.3558 60.0398C56.2005 59.7027 56.1229 59.2983 56.1229 58.8267C56.1229 58.3551 56.2015 57.9517 56.3587 57.6165C56.5178 57.2812 56.7356 57.0246 57.0121 56.8466C57.2886 56.6686 57.602 56.5795 57.9524 56.5795C58.2232 56.5795 58.4411 56.625 58.6058 56.7159C58.7725 56.8049 58.9013 56.9091 58.9922 57.0284C59.085 57.1477 59.157 57.2528 59.2081 57.3438H59.2592V55.1818H60.1087V61H59.2791V60.321H59.2081C59.157 60.4138 59.0831 60.5199 58.9865 60.6392C58.8918 60.7585 58.7611 60.8627 58.5945 60.9517C58.4278 61.0407 58.2119 61.0852 57.9467 61.0852ZM58.1342 60.3608C58.3786 60.3608 58.585 60.2964 58.7536 60.1676C58.924 60.0369 59.0528 59.8561 59.1399 59.625C59.2289 59.3939 59.2734 59.125 59.2734 58.8182C59.2734 58.5152 59.2299 58.25 59.1428 58.0227C59.0556 57.7955 58.9278 57.6184 58.7592 57.4915C58.5907 57.3646 58.3823 57.3011 58.1342 57.3011C57.8786 57.3011 57.6655 57.3674 57.495 57.5C57.3246 57.6326 57.1958 57.8134 57.1087 58.0426C57.0234 58.2718 56.9808 58.5303 56.9808 58.8182C56.9808 59.1098 57.0244 59.3722 57.1115 59.6051C57.1986 59.8381 57.3274 60.0227 57.4979 60.1591C57.6702 60.2936 57.8823 60.3608 58.1342 60.3608ZM62.4261 60.2045L62.3835 60.5142C62.3551 60.7415 62.3068 60.9782 62.2386 61.2244C62.1723 61.4725 62.1032 61.7027 62.0312 61.9148C61.9612 62.1269 61.9034 62.2955 61.858 62.4205H61.2557C61.2803 62.303 61.3144 62.1439 61.358 61.9432C61.4015 61.7443 61.4441 61.5218 61.4858 61.2756C61.5275 61.0294 61.5587 60.7784 61.5795 60.5227L61.608 60.2045H62.4261ZM24.7511 67.7017L23.9812 67.8381C23.949 67.7396 23.8978 67.6458 23.8278 67.5568C23.7596 67.4678 23.6668 67.3949 23.5494 67.3381C23.4319 67.2812 23.2852 67.2528 23.109 67.2528C22.8685 67.2528 22.6677 67.3068 22.5067 67.4148C22.3458 67.5208 22.2653 67.6581 22.2653 67.8267C22.2653 67.9725 22.3192 68.09 22.4272 68.179C22.5352 68.268 22.7094 68.3409 22.9499 68.3977L23.6431 68.5568C24.0446 68.6496 24.3439 68.7926 24.5408 68.9858C24.7378 69.179 24.8363 69.4299 24.8363 69.7386C24.8363 70 24.7605 70.233 24.609 70.4375C24.4594 70.6402 24.2501 70.7992 23.9812 70.9148C23.7141 71.0303 23.4045 71.0881 23.0522 71.0881C22.5636 71.0881 22.1649 70.9839 21.8562 70.7756C21.5475 70.5653 21.3581 70.267 21.288 69.8807L22.109 69.7557C22.1602 69.9697 22.2653 70.1316 22.4244 70.2415C22.5835 70.3494 22.7908 70.4034 23.0465 70.4034C23.3249 70.4034 23.5475 70.3456 23.7141 70.2301C23.8808 70.1127 23.9641 69.9697 23.9641 69.8011C23.9641 69.6648 23.913 69.5502 23.8107 69.4574C23.7103 69.3646 23.556 69.2945 23.3477 69.2472L22.609 69.0852C22.2018 68.9924 21.9007 68.8447 21.7056 68.642C21.5124 68.4394 21.4158 68.1828 21.4158 67.8722C21.4158 67.6146 21.4878 67.3892 21.6317 67.196C21.7757 67.0028 21.9746 66.8523 22.2283 66.7443C22.4821 66.6345 22.7728 66.5795 23.1005 66.5795C23.5721 66.5795 23.9433 66.6818 24.2141 66.8864C24.485 67.089 24.6639 67.3608 24.7511 67.7017ZM26.7163 71L25.4322 66.6364H26.31L27.1651 69.8409H27.2077L28.0657 66.6364H28.9435L29.7958 69.8267H29.8384L30.6879 66.6364H31.5657L30.2844 71H29.418L28.5316 67.8494H28.4663L27.5799 71H26.7163ZM33.6417 71.0966C33.3652 71.0966 33.1152 71.0455 32.8917 70.9432C32.6682 70.839 32.4911 70.6884 32.3604 70.4915C32.2317 70.2945 32.1673 70.053 32.1673 69.767C32.1673 69.5208 32.2146 69.3182 32.3093 69.1591C32.404 69 32.5318 68.8741 32.6928 68.7812C32.8538 68.6884 33.0337 68.6184 33.2326 68.571C33.4315 68.5237 33.6341 68.4877 33.8406 68.4631C34.1019 68.4328 34.314 68.4081 34.4769 68.3892C34.6398 68.3684 34.7582 68.3352 34.832 68.2898C34.9059 68.2443 34.9428 68.1705 34.9428 68.0682V68.0483C34.9428 67.8002 34.8728 67.608 34.7326 67.4716C34.5943 67.3352 34.3879 67.267 34.1133 67.267C33.8273 67.267 33.6019 67.3305 33.4371 67.4574C33.2743 67.5824 33.1616 67.7216 33.0991 67.875L32.3008 67.6932C32.3955 67.428 32.5337 67.214 32.7156 67.0511C32.8993 66.8864 33.1104 66.767 33.3491 66.6932C33.5877 66.6174 33.8387 66.5795 34.1019 66.5795C34.2762 66.5795 34.4608 66.6004 34.6559 66.642C34.8529 66.6818 35.0366 66.7557 35.207 66.8636C35.3794 66.9716 35.5205 67.1259 35.6303 67.3267C35.7402 67.5256 35.7951 67.7841 35.7951 68.1023V71H34.9656V70.4034H34.9315C34.8765 70.5133 34.7942 70.6212 34.6843 70.7273C34.5745 70.8333 34.4334 70.9214 34.261 70.9915C34.0887 71.0616 33.8822 71.0966 33.6417 71.0966ZM33.8263 70.4148C34.0612 70.4148 34.262 70.3684 34.4286 70.2756C34.5972 70.1828 34.725 70.0616 34.8121 69.9119C34.9012 69.7604 34.9457 69.5985 34.9457 69.4261V68.8636C34.9154 68.8939 34.8567 68.9223 34.7695 68.9489C34.6843 68.9735 34.5868 68.9953 34.4769 69.0142C34.3671 69.0312 34.2601 69.0473 34.1559 69.0625C34.0517 69.0758 33.9646 69.0871 33.8945 69.0966C33.7298 69.1174 33.5792 69.1525 33.4428 69.2017C33.3084 69.2509 33.2004 69.322 33.119 69.4148C33.0394 69.5057 32.9996 69.6269 32.9996 69.7784C32.9996 69.9886 33.0773 70.1477 33.2326 70.2557C33.3879 70.3617 33.5858 70.4148 33.8263 70.4148ZM36.9265 72.6364V66.6364H37.756V67.3438H37.8271C37.8763 67.2528 37.9473 67.1477 38.0401 67.0284C38.1329 66.9091 38.2617 66.8049 38.4265 66.7159C38.5913 66.625 38.8091 66.5795 39.0799 66.5795C39.4322 66.5795 39.7466 66.6686 40.0231 66.8466C40.2996 67.0246 40.5165 67.2812 40.6737 67.6165C40.8327 67.9517 40.9123 68.3551 40.9123 68.8267C40.9123 69.2983 40.8337 69.7027 40.6765 70.0398C40.5193 70.375 40.3034 70.6335 40.0288 70.8153C39.7541 70.9953 39.4407 71.0852 39.0884 71.0852C38.8233 71.0852 38.6064 71.0407 38.4379 70.9517C38.2712 70.8627 38.1405 70.7585 38.0458 70.6392C37.9511 70.5199 37.8782 70.4138 37.8271 70.321H37.7759V72.6364H36.9265ZM37.7589 68.8182C37.7589 69.125 37.8034 69.3939 37.8924 69.625C37.9814 69.8561 38.1102 70.0369 38.2788 70.1676C38.4473 70.2964 38.6538 70.3608 38.8981 70.3608C39.1519 70.3608 39.364 70.2936 39.5344 70.1591C39.7049 70.0227 39.8337 69.8381 39.9208 69.6051C40.0098 69.3722 40.0543 69.1098 40.0543 68.8182C40.0543 68.5303 40.0108 68.2718 39.9237 68.0426C39.8384 67.8134 39.7096 67.6326 39.5373 67.5C39.3668 67.3674 39.1538 67.3011 38.8981 67.3011C38.6519 67.3011 38.4435 67.3646 38.2731 67.4915C38.1045 67.6184 37.9767 67.7955 37.8896 68.0227C37.8024 68.25 37.7589 68.5152 37.7589 68.8182ZM43.9812 71V66.6364H44.8306V71H43.9812ZM44.4102 65.9631C44.2624 65.9631 44.1355 65.9138 44.0295 65.8153C43.9253 65.715 43.8732 65.5956 43.8732 65.4574C43.8732 65.3172 43.9253 65.1979 44.0295 65.0994C44.1355 64.9991 44.2624 64.9489 44.4102 64.9489C44.5579 64.9489 44.6838 64.9991 44.788 65.0994C44.8941 65.1979 44.9471 65.3172 44.9471 65.4574C44.9471 65.5956 44.8941 65.715 44.788 65.8153C44.6838 65.9138 44.5579 65.9631 44.4102 65.9631ZM48.0103 66.6364V67.3182H45.6268V66.6364H48.0103ZM46.266 65.5909H47.1154V69.7188C47.1154 69.8835 47.14 70.0076 47.1893 70.0909C47.2385 70.1723 47.302 70.2282 47.3796 70.2585C47.4592 70.2869 47.5453 70.3011 47.6381 70.3011C47.7063 70.3011 47.766 70.2964 47.8171 70.2869C47.8683 70.2775 47.908 70.2699 47.9364 70.2642L48.0898 70.9659C48.0406 70.9848 47.9705 71.0038 47.8796 71.0227C47.7887 71.0436 47.6751 71.0549 47.5387 71.0568C47.3152 71.0606 47.1069 71.0208 46.9137 70.9375C46.7205 70.8542 46.5643 70.7254 46.445 70.5511C46.3256 70.3769 46.266 70.1581 46.266 69.8949V65.5909ZM52.0131 71L50.729 66.6364H51.6069L52.462 69.8409H52.5046L53.3626 66.6364H54.2404L55.0927 69.8267H55.1353L55.9847 66.6364H56.8626L55.5813 71H54.7148L53.8285 67.8494H53.7631L52.8768 71H52.0131ZM57.6687 71V66.6364H58.5181V71H57.6687ZM58.0977 65.9631C57.9499 65.9631 57.823 65.9138 57.717 65.8153C57.6128 65.715 57.5607 65.5956 57.5607 65.4574C57.5607 65.3172 57.6128 65.1979 57.717 65.0994C57.823 64.9991 57.9499 64.9489 58.0977 64.9489C58.2454 64.9489 58.3713 64.9991 58.4755 65.0994C58.5816 65.1979 58.6346 65.3172 58.6346 65.4574C58.6346 65.5956 58.5816 65.715 58.4755 65.8153C58.3713 65.9138 58.2454 65.9631 58.0977 65.9631ZM61.6978 66.6364V67.3182H59.3143V66.6364H61.6978ZM59.9535 65.5909H60.8029V69.7188C60.8029 69.8835 60.8275 70.0076 60.8768 70.0909C60.926 70.1723 60.9895 70.2282 61.0671 70.2585C61.1467 70.2869 61.2328 70.3011 61.3256 70.3011C61.3938 70.3011 61.4535 70.2964 61.5046 70.2869C61.5558 70.2775 61.5955 70.2699 61.6239 70.2642L61.7773 70.9659C61.7281 70.9848 61.658 71.0038 61.5671 71.0227C61.4762 71.0436 61.3626 71.0549 61.2262 71.0568C61.0027 71.0606 60.7944 71.0208 60.6012 70.9375C60.408 70.8542 60.2518 70.7254 60.1325 70.5511C60.0131 70.3769 59.9535 70.1581 59.9535 69.8949V65.5909ZM63.5806 68.4091V71H62.7312V65.1818H63.5692V67.3466H63.6232C63.7255 67.1117 63.8817 66.9252 64.092 66.7869C64.3022 66.6487 64.5768 66.5795 64.9158 66.5795C65.2151 66.5795 65.4764 66.6411 65.6999 66.7642C65.9253 66.8873 66.0996 67.071 66.2227 67.3153C66.3477 67.5578 66.4102 67.8608 66.4102 68.2244V71H65.5607V68.3267C65.5607 68.0066 65.4783 67.7585 65.3136 67.5824C65.1488 67.4044 64.9196 67.3153 64.6261 67.3153C64.4253 67.3153 64.2454 67.358 64.0863 67.4432C63.9291 67.5284 63.805 67.6534 63.7141 67.8182C63.6251 67.9811 63.5806 68.178 63.5806 68.4091ZM22.3722 81.0966C22.0956 81.0966 21.8456 81.0455 21.6222 80.9432C21.3987 80.839 21.2216 80.6884 21.0909 80.4915C20.9621 80.2945 20.8977 80.053 20.8977 79.767C20.8977 79.5208 20.9451 79.3182 21.0398 79.1591C21.1345 79 21.2623 78.8741 21.4233 78.7812C21.5843 78.6884 21.7642 78.6184 21.9631 78.571C22.1619 78.5237 22.3646 78.4877 22.571 78.4631C22.8324 78.4328 23.0445 78.4081 23.2074 78.3892C23.3703 78.3684 23.4886 78.3352 23.5625 78.2898C23.6364 78.2443 23.6733 78.1705 23.6733 78.0682V78.0483C23.6733 77.8002 23.6032 77.608 23.4631 77.4716C23.3248 77.3352 23.1184 77.267 22.8438 77.267C22.5578 77.267 22.3324 77.3305 22.1676 77.4574C22.0047 77.5824 21.892 77.7216 21.8295 77.875L21.0312 77.6932C21.1259 77.428 21.2642 77.214 21.446 77.0511C21.6297 76.8864 21.8409 76.767 22.0795 76.6932C22.3182 76.6174 22.5691 76.5795 22.8324 76.5795C23.0066 76.5795 23.1913 76.6004 23.3864 76.642C23.5833 76.6818 23.767 76.7557 23.9375 76.8636C24.1098 76.9716 24.2509 77.1259 24.3608 77.3267C24.4706 77.5256 24.5256 77.7841 24.5256 78.1023V81H23.696V80.4034H23.6619C23.607 80.5133 23.5246 80.6212 23.4148 80.7273C23.3049 80.8333 23.1638 80.9214 22.9915 80.9915C22.8191 81.0616 22.6127 81.0966 22.3722 81.0966ZM22.5568 80.4148C22.7917 80.4148 22.9924 80.3684 23.1591 80.2756C23.3277 80.1828 23.4555 80.0616 23.5426 79.9119C23.6316 79.7604 23.6761 79.5985 23.6761 79.4261V78.8636C23.6458 78.8939 23.5871 78.9223 23.5 78.9489C23.4148 78.9735 23.3172 78.9953 23.2074 79.0142C23.0975 79.0312 22.9905 79.0473 22.8864 79.0625C22.7822 79.0758 22.6951 79.0871 22.625 79.0966C22.4602 79.1174 22.3097 79.1525 22.1733 79.2017C22.0388 79.2509 21.9309 79.322 21.8494 79.4148C21.7699 79.5057 21.7301 79.6269 21.7301 79.7784C21.7301 79.9886 21.8078 80.1477 21.9631 80.2557C22.1184 80.3617 22.3163 80.4148 22.5568 80.4148ZM26.5064 78.4091V81H25.657V76.6364H26.4723V77.3466H26.5263C26.6267 77.1155 26.7839 76.9299 26.9979 76.7898C27.2138 76.6496 27.4856 76.5795 27.8132 76.5795C28.1106 76.5795 28.371 76.642 28.5945 76.767C28.8179 76.8902 28.9912 77.0739 29.1143 77.3182C29.2375 77.5625 29.299 77.8646 29.299 78.2244V81H28.4496V78.3267C28.4496 78.0104 28.3672 77.7633 28.2024 77.5852C28.0376 77.4053 27.8113 77.3153 27.5234 77.3153C27.3265 77.3153 27.1513 77.358 26.9979 77.4432C26.8464 77.5284 26.7261 77.6534 26.6371 77.8182C26.55 77.9811 26.5064 78.178 26.5064 78.4091ZM32.2763 81.0881C31.8672 81.0881 31.5102 80.9943 31.2053 80.8068C30.9003 80.6193 30.6636 80.357 30.495 80.0199C30.3265 79.6828 30.2422 79.2888 30.2422 78.8381C30.2422 78.3854 30.3265 77.9896 30.495 77.6506C30.6636 77.3116 30.9003 77.0483 31.2053 76.8608C31.5102 76.6733 31.8672 76.5795 32.2763 76.5795C32.6854 76.5795 33.0424 76.6733 33.3473 76.8608C33.6522 77.0483 33.889 77.3116 34.0575 77.6506C34.2261 77.9896 34.3104 78.3854 34.3104 78.8381C34.3104 79.2888 34.2261 79.6828 34.0575 80.0199C33.889 80.357 33.6522 80.6193 33.3473 80.8068C33.0424 80.9943 32.6854 81.0881 32.2763 81.0881ZM32.2791 80.375C32.5443 80.375 32.764 80.3049 32.9382 80.1648C33.1125 80.0246 33.2412 79.8381 33.3246 79.6051C33.4098 79.3722 33.4524 79.1155 33.4524 78.8352C33.4524 78.5568 33.4098 78.3011 33.3246 78.0682C33.2412 77.8333 33.1125 77.6449 32.9382 77.5028C32.764 77.3608 32.5443 77.2898 32.2791 77.2898C32.0121 77.2898 31.7905 77.3608 31.6143 77.5028C31.4401 77.6449 31.3104 77.8333 31.2251 78.0682C31.1418 78.3011 31.1001 78.5568 31.1001 78.8352C31.1001 79.1155 31.1418 79.3722 31.2251 79.6051C31.3104 79.8381 31.4401 80.0246 31.6143 80.1648C31.7905 80.3049 32.0121 80.375 32.2791 80.375ZM37.2955 76.6364V77.3182H34.9119V76.6364H37.2955ZM35.5511 75.5909H36.4006V79.7188C36.4006 79.8835 36.4252 80.0076 36.4744 80.0909C36.5237 80.1723 36.5871 80.2282 36.6648 80.2585C36.7443 80.2869 36.8305 80.3011 36.9233 80.3011C36.9915 80.3011 37.0511 80.2964 37.1023 80.2869C37.1534 80.2775 37.1932 80.2699 37.2216 80.2642L37.375 80.9659C37.3258 80.9848 37.2557 81.0038 37.1648 81.0227C37.0739 81.0436 36.9602 81.0549 36.8239 81.0568C36.6004 81.0606 36.392 81.0208 36.1989 80.9375C36.0057 80.8542 35.8494 80.7254 35.7301 80.5511C35.6108 80.3769 35.5511 80.1581 35.5511 79.8949V75.5909ZM39.1783 78.4091V81H38.3288V75.1818H39.1669V77.3466H39.2209C39.3232 77.1117 39.4794 76.9252 39.6896 76.7869C39.8999 76.6487 40.1745 76.5795 40.5135 76.5795C40.8127 76.5795 41.0741 76.6411 41.2976 76.7642C41.523 76.8873 41.6972 77.071 41.8203 77.3153C41.9453 77.5578 42.0078 77.8608 42.0078 78.2244V81H41.1584V78.3267C41.1584 78.0066 41.076 77.7585 40.9112 77.5824C40.7464 77.4044 40.5173 77.3153 40.2237 77.3153C40.023 77.3153 39.843 77.358 39.6839 77.4432C39.5268 77.5284 39.4027 77.6534 39.3118 77.8182C39.2228 77.9811 39.1783 78.178 39.1783 78.4091ZM45.022 81.0881C44.5921 81.0881 44.2218 80.9962 43.9112 80.8125C43.6025 80.6269 43.3639 80.3665 43.1953 80.0312C43.0286 79.6941 42.9453 79.2992 42.9453 78.8466C42.9453 78.3996 43.0286 78.0057 43.1953 77.6648C43.3639 77.3239 43.5987 77.0578 43.8999 76.8665C44.2029 76.6752 44.5571 76.5795 44.9624 76.5795C45.2086 76.5795 45.4472 76.6203 45.6783 76.7017C45.9093 76.7831 46.1167 76.911 46.3004 77.0852C46.4841 77.2595 46.629 77.4858 46.7351 77.7642C46.8411 78.0407 46.8942 78.3769 46.8942 78.7727V79.0739H43.4254V78.4375H46.0618C46.0618 78.214 46.0163 78.0161 45.9254 77.8438C45.8345 77.6695 45.7067 77.5322 45.5419 77.4318C45.379 77.3314 45.1877 77.2812 44.968 77.2812C44.7294 77.2812 44.5211 77.34 44.343 77.4574C44.1669 77.5729 44.0305 77.7244 43.9339 77.9119C43.8393 78.0975 43.7919 78.2992 43.7919 78.517V79.0142C43.7919 79.3059 43.843 79.554 43.9453 79.7585C44.0495 79.9631 44.1944 80.1193 44.38 80.2273C44.5656 80.3333 44.7824 80.3864 45.0305 80.3864C45.1915 80.3864 45.3383 80.3636 45.4709 80.3182C45.6035 80.2708 45.718 80.2008 45.8146 80.108C45.9112 80.0152 45.9851 79.9006 46.0362 79.7642L46.8402 79.9091C46.7758 80.1458 46.6603 80.3532 46.4936 80.5312C46.3288 80.7074 46.1214 80.8447 45.8714 80.9432C45.6233 81.0398 45.3402 81.0881 45.022 81.0881ZM47.8366 81V76.6364H48.6577V77.3295H48.7031C48.7827 77.0947 48.9228 76.91 49.1236 76.7756C49.3262 76.6392 49.5554 76.571 49.8111 76.571C49.8641 76.571 49.9266 76.5729 49.9986 76.5767C50.0724 76.5805 50.1302 76.5852 50.1719 76.5909V77.4034C50.1378 77.3939 50.0772 77.3835 49.9901 77.3722C49.9029 77.3589 49.8158 77.3523 49.7287 77.3523C49.5279 77.3523 49.349 77.3949 49.1918 77.4801C49.0365 77.5634 48.9134 77.6799 48.8224 77.8295C48.7315 77.9773 48.6861 78.1458 48.6861 78.3352V81H47.8366ZM54.8622 81.0881C54.4399 81.0881 54.0762 80.9924 53.7713 80.8011C53.4683 80.608 53.2353 80.3419 53.0724 80.0028C52.9096 79.6638 52.8281 79.2756 52.8281 78.8381C52.8281 78.3949 52.9115 78.0038 53.0781 77.6648C53.2448 77.3239 53.4796 77.0578 53.7827 76.8665C54.0857 76.6752 54.4427 76.5795 54.8537 76.5795C55.1851 76.5795 55.4806 76.6411 55.7401 76.7642C55.9995 76.8854 56.2088 77.0559 56.3679 77.2756C56.5289 77.4953 56.6245 77.7519 56.6548 78.0455H55.8281C55.7827 77.8409 55.6785 77.6648 55.5156 77.517C55.3546 77.3693 55.1387 77.2955 54.8679 77.2955C54.6312 77.2955 54.4238 77.358 54.2457 77.483C54.0696 77.6061 53.9323 77.7822 53.8338 78.0114C53.7353 78.2386 53.6861 78.5076 53.6861 78.8182C53.6861 79.1364 53.7344 79.411 53.831 79.642C53.9276 79.8731 54.0639 80.0521 54.2401 80.179C54.4181 80.3059 54.6274 80.3693 54.8679 80.3693C55.0289 80.3693 55.1747 80.34 55.3054 80.2812C55.438 80.2206 55.5488 80.1345 55.6378 80.0227C55.7287 79.911 55.7921 79.7765 55.8281 79.6193H56.6548C56.6245 79.9015 56.5327 80.1534 56.3793 80.375C56.2259 80.5966 56.0204 80.7708 55.7628 80.8977C55.5071 81.0246 55.2069 81.0881 54.8622 81.0881ZM58.8331 81.0966C58.5566 81.0966 58.3066 81.0455 58.0831 80.9432C57.8596 80.839 57.6825 80.6884 57.5518 80.4915C57.4231 80.2945 57.3587 80.053 57.3587 79.767C57.3587 79.5208 57.406 79.3182 57.5007 79.1591C57.5954 79 57.7232 78.8741 57.8842 78.7812C58.0452 78.6884 58.2251 78.6184 58.424 78.571C58.6229 78.5237 58.8255 78.4877 59.032 78.4631C59.2933 78.4328 59.5054 78.4081 59.6683 78.3892C59.8312 78.3684 59.9496 78.3352 60.0234 78.2898C60.0973 78.2443 60.1342 78.1705 60.1342 78.0682V78.0483C60.1342 77.8002 60.0642 77.608 59.924 77.4716C59.7857 77.3352 59.5793 77.267 59.3047 77.267C59.0187 77.267 58.7933 77.3305 58.6286 77.4574C58.4657 77.5824 58.353 77.7216 58.2905 77.875L57.4922 77.6932C57.5869 77.428 57.7251 77.214 57.907 77.0511C58.0907 76.8864 58.3018 76.767 58.5405 76.6932C58.7791 76.6174 59.0301 76.5795 59.2933 76.5795C59.4676 76.5795 59.6522 76.6004 59.8473 76.642C60.0443 76.6818 60.228 76.7557 60.3984 76.8636C60.5708 76.9716 60.7119 77.1259 60.8217 77.3267C60.9316 77.5256 60.9865 77.7841 60.9865 78.1023V81H60.157V80.4034H60.1229C60.0679 80.5133 59.9856 80.6212 59.8757 80.7273C59.7659 80.8333 59.6248 80.9214 59.4524 80.9915C59.2801 81.0616 59.0736 81.0966 58.8331 81.0966ZM59.0178 80.4148C59.2526 80.4148 59.4534 80.3684 59.62 80.2756C59.7886 80.1828 59.9164 80.0616 60.0036 79.9119C60.0926 79.7604 60.1371 79.5985 60.1371 79.4261V78.8636C60.1068 78.8939 60.0481 78.9223 59.9609 78.9489C59.8757 78.9735 59.7782 78.9953 59.6683 79.0142C59.5585 79.0312 59.4515 79.0473 59.3473 79.0625C59.2431 79.0758 59.156 79.0871 59.0859 79.0966C58.9212 79.1174 58.7706 79.1525 58.6342 79.2017C58.4998 79.2509 58.3918 79.322 58.3104 79.4148C58.2308 79.5057 58.1911 79.6269 58.1911 79.7784C58.1911 79.9886 58.2687 80.1477 58.424 80.2557C58.5793 80.3617 58.7772 80.4148 59.0178 80.4148ZM62.1179 81V76.6364H62.9389V77.3295H62.9844C63.0639 77.0947 63.2041 76.91 63.4048 76.7756C63.6075 76.6392 63.8366 76.571 64.0923 76.571C64.1454 76.571 64.2079 76.5729 64.2798 76.5767C64.3537 76.5805 64.4115 76.5852 64.4531 76.5909V77.4034C64.419 77.3939 64.3584 77.3835 64.2713 77.3722C64.1842 77.3589 64.0971 77.3523 64.0099 77.3523C63.8092 77.3523 63.6302 77.3949 63.473 77.4801C63.3177 77.5634 63.1946 77.6799 63.1037 77.8295C63.0128 77.9773 62.9673 78.1458 62.9673 78.3352V81H62.1179ZM66.6655 81.0852C66.3132 81.0852 65.9988 80.9953 65.7223 80.8153C65.4477 80.6335 65.2318 80.375 65.0746 80.0398C64.9193 79.7027 64.8416 79.2983 64.8416 78.8267C64.8416 78.3551 64.9202 77.9517 65.0774 77.6165C65.2365 77.2812 65.4543 77.0246 65.7308 76.8466C66.0073 76.6686 66.3208 76.5795 66.6712 76.5795C66.942 76.5795 67.1598 76.625 67.3246 76.7159C67.4912 76.8049 67.62 76.9091 67.7109 77.0284C67.8037 77.1477 67.8757 77.2528 67.9268 77.3438H67.978V75.1818H68.8274V81H67.9979V80.321H67.9268C67.8757 80.4138 67.8018 80.5199 67.7053 80.6392C67.6106 80.7585 67.4799 80.8627 67.3132 80.9517C67.1465 81.0407 66.9306 81.0852 66.6655 81.0852ZM66.853 80.3608C67.0973 80.3608 67.3037 80.2964 67.4723 80.1676C67.6428 80.0369 67.7715 79.8561 67.8587 79.625C67.9477 79.3939 67.9922 79.125 67.9922 78.8182C67.9922 78.5152 67.9486 78.25 67.8615 78.0227C67.7744 77.7955 67.6465 77.6184 67.478 77.4915C67.3094 77.3646 67.1011 77.3011 66.853 77.3011C66.5973 77.3011 66.3842 77.3674 66.2138 77.5C66.0433 77.6326 65.9145 77.8134 65.8274 78.0426C65.7422 78.2718 65.6996 78.5303 65.6996 78.8182C65.6996 79.1098 65.7431 79.3722 65.8303 79.6051C65.9174 79.8381 66.0462 80.0227 66.2166 80.1591C66.389 80.2936 66.6011 80.3608 66.853 80.3608ZM17.0444 91L15.7603 86.6364H16.6381L17.4933 89.8409H17.5359L18.3938 86.6364H19.2717L20.1239 89.8267H20.1665L21.016 86.6364H21.8938L20.6126 91H19.7461L18.8597 87.8494H18.7944L17.908 91H17.0444ZM22.6999 91V86.6364H23.5494V91H22.6999ZM23.1289 85.9631C22.9812 85.9631 22.8543 85.9138 22.7482 85.8153C22.6441 85.715 22.592 85.5956 22.592 85.4574C22.592 85.3172 22.6441 85.1979 22.7482 85.0994C22.8543 84.9991 22.9812 84.9489 23.1289 84.9489C23.2766 84.9489 23.4026 84.9991 23.5067 85.0994C23.6128 85.1979 23.6658 85.3172 23.6658 85.4574C23.6658 85.5956 23.6128 85.715 23.5067 85.8153C23.4026 85.9138 23.2766 85.9631 23.1289 85.9631ZM26.729 86.6364V87.3182H24.3455V86.6364H26.729ZM24.9847 85.5909H25.8342V89.7188C25.8342 89.8835 25.8588 90.0076 25.908 90.0909C25.9573 90.1723 26.0207 90.2282 26.0984 90.2585C26.1779 90.2869 26.2641 90.3011 26.3569 90.3011C26.4251 90.3011 26.4847 90.2964 26.5359 90.2869C26.587 90.2775 26.6268 90.2699 26.6552 90.2642L26.8086 90.9659C26.7594 90.9848 26.6893 91.0038 26.5984 91.0227C26.5075 91.0436 26.3938 91.0549 26.2575 91.0568C26.034 91.0606 25.8256 91.0208 25.6325 90.9375C25.4393 90.8542 25.283 90.7254 25.1637 90.5511C25.0444 90.3769 24.9847 90.1581 24.9847 89.8949V85.5909ZM28.6119 88.4091V91H27.7624V85.1818H28.6005V87.3466H28.6545C28.7567 87.1117 28.913 86.9252 29.1232 86.7869C29.3335 86.6487 29.6081 86.5795 29.9471 86.5795C30.2463 86.5795 30.5077 86.6411 30.7312 86.7642C30.9566 86.8873 31.1308 87.071 31.2539 87.3153C31.3789 87.5578 31.4414 87.8608 31.4414 88.2244V91H30.592V88.3267C30.592 88.0066 30.5096 87.7585 30.3448 87.5824C30.18 87.4044 29.9509 87.3153 29.6573 87.3153C29.4566 87.3153 29.2766 87.358 29.1175 87.4432C28.9603 87.5284 28.8363 87.6534 28.7454 87.8182C28.6564 87.9811 28.6119 88.178 28.6119 88.4091ZM34.413 91.0881C34.0039 91.0881 33.6469 90.9943 33.342 90.8068C33.0371 90.6193 32.8003 90.357 32.6317 90.0199C32.4632 89.6828 32.3789 89.2888 32.3789 88.8381C32.3789 88.3854 32.4632 87.9896 32.6317 87.6506C32.8003 87.3116 33.0371 87.0483 33.342 86.8608C33.6469 86.6733 34.0039 86.5795 34.413 86.5795C34.8221 86.5795 35.1791 86.6733 35.484 86.8608C35.7889 87.0483 36.0257 87.3116 36.1942 87.6506C36.3628 87.9896 36.4471 88.3854 36.4471 88.8381C36.4471 89.2888 36.3628 89.6828 36.1942 90.0199C36.0257 90.357 35.7889 90.6193 35.484 90.8068C35.1791 90.9943 34.8221 91.0881 34.413 91.0881ZM34.4158 90.375C34.681 90.375 34.9007 90.3049 35.0749 90.1648C35.2492 90.0246 35.378 89.8381 35.4613 89.6051C35.5465 89.3722 35.5891 89.1155 35.5891 88.8352C35.5891 88.5568 35.5465 88.3011 35.4613 88.0682C35.378 87.8333 35.2492 87.6449 35.0749 87.5028C34.9007 87.3608 34.681 87.2898 34.4158 87.2898C34.1488 87.2898 33.9272 87.3608 33.7511 87.5028C33.5768 87.6449 33.4471 87.8333 33.3619 88.0682C33.2785 88.3011 33.2369 88.5568 33.2369 88.8352C33.2369 89.1155 33.2785 89.3722 33.3619 89.6051C33.4471 89.8381 33.5768 90.0246 33.7511 90.1648C33.9272 90.3049 34.1488 90.375 34.4158 90.375ZM40.1594 89.1903V86.6364H41.0117V91H40.1765V90.2443H40.131C40.0307 90.4773 39.8697 90.6714 39.6481 90.8267C39.4284 90.9801 39.1547 91.0568 38.8271 91.0568C38.5468 91.0568 38.2987 90.9953 38.0827 90.8722C37.8687 90.7472 37.7002 90.5625 37.5771 90.3182C37.4558 90.0739 37.3952 89.7718 37.3952 89.4119V86.6364H38.2447V89.3097C38.2447 89.607 38.3271 89.8437 38.4918 90.0199C38.6566 90.196 38.8706 90.2841 39.1339 90.2841C39.293 90.2841 39.4511 90.2443 39.6083 90.1648C39.7674 90.0852 39.899 89.965 40.0032 89.804C40.1093 89.643 40.1613 89.4384 40.1594 89.1903ZM44.19 86.6364V87.3182H41.8065V86.6364H44.19ZM42.4457 85.5909H43.2951V89.7188C43.2951 89.8835 43.3197 90.0076 43.369 90.0909C43.4182 90.1723 43.4817 90.2282 43.5593 90.2585C43.6388 90.2869 43.725 90.3011 43.8178 90.3011C43.886 90.3011 43.9457 90.2964 43.9968 90.2869C44.0479 90.2775 44.0877 90.2699 44.1161 90.2642L44.2695 90.9659C44.2203 90.9848 44.1502 91.0038 44.0593 91.0227C43.9684 91.0436 43.8548 91.0549 43.7184 91.0568C43.4949 91.0606 43.2866 91.0208 43.0934 90.9375C42.9002 90.8542 42.744 90.7254 42.6246 90.5511C42.5053 90.3769 42.4457 90.1581 42.4457 89.8949V85.5909ZM48.0962 85.1818V91H47.2468V85.1818H48.0962ZM51.0771 91.0881C50.668 91.0881 50.311 90.9943 50.006 90.8068C49.7011 90.6193 49.4644 90.357 49.2958 90.0199C49.1272 89.6828 49.043 89.2888 49.043 88.8381C49.043 88.3854 49.1272 87.9896 49.2958 87.6506C49.4644 87.3116 49.7011 87.0483 50.006 86.8608C50.311 86.6733 50.668 86.5795 51.0771 86.5795C51.4862 86.5795 51.8432 86.6733 52.1481 86.8608C52.453 87.0483 52.6897 87.3116 52.8583 87.6506C53.0269 87.9896 53.1112 88.3854 53.1112 88.8381C53.1112 89.2888 53.0269 89.6828 52.8583 90.0199C52.6897 90.357 52.453 90.6193 52.1481 90.8068C51.8432 90.9943 51.4862 91.0881 51.0771 91.0881ZM51.0799 90.375C51.3451 90.375 51.5647 90.3049 51.739 90.1648C51.9132 90.0246 52.042 89.8381 52.1254 89.6051C52.2106 89.3722 52.2532 89.1155 52.2532 88.8352C52.2532 88.5568 52.2106 88.3011 52.1254 88.0682C52.042 87.8333 51.9132 87.6449 51.739 87.5028C51.5647 87.3608 51.3451 87.2898 51.0799 87.2898C50.8129 87.2898 50.5913 87.3608 50.4151 87.5028C50.2409 87.6449 50.1112 87.8333 50.0259 88.0682C49.9426 88.3011 49.9009 88.5568 49.9009 88.8352C49.9009 89.1155 49.9426 89.3722 50.0259 89.6051C50.1112 89.8381 50.2409 90.0246 50.4151 90.1648C50.5913 90.3049 50.8129 90.375 51.0799 90.375ZM55.8974 91.0881C55.4883 91.0881 55.1313 90.9943 54.8263 90.8068C54.5214 90.6193 54.2847 90.357 54.1161 90.0199C53.9476 89.6828 53.8633 89.2888 53.8633 88.8381C53.8633 88.3854 53.9476 87.9896 54.1161 87.6506C54.2847 87.3116 54.5214 87.0483 54.8263 86.8608C55.1313 86.6733 55.4883 86.5795 55.8974 86.5795C56.3065 86.5795 56.6635 86.6733 56.9684 86.8608C57.2733 87.0483 57.5101 87.3116 57.6786 87.6506C57.8472 87.9896 57.9315 88.3854 57.9315 88.8381C57.9315 89.2888 57.8472 89.6828 57.6786 90.0199C57.5101 90.357 57.2733 90.6193 56.9684 90.8068C56.6635 90.9943 56.3065 91.0881 55.8974 91.0881ZM55.9002 90.375C56.1654 90.375 56.3851 90.3049 56.5593 90.1648C56.7335 90.0246 56.8623 89.8381 56.9457 89.6051C57.0309 89.3722 57.0735 89.1155 57.0735 88.8352C57.0735 88.5568 57.0309 88.3011 56.9457 88.0682C56.8623 87.8333 56.7335 87.6449 56.5593 87.5028C56.3851 87.3608 56.1654 87.2898 55.9002 87.2898C55.6332 87.2898 55.4116 87.3608 55.2354 87.5028C55.0612 87.6449 54.9315 87.8333 54.8462 88.0682C54.7629 88.3011 54.7212 88.5568 54.7212 88.8352C54.7212 89.1155 54.7629 89.3722 54.8462 89.6051C54.9315 89.8381 55.0612 90.0246 55.2354 90.1648C55.4116 90.3049 55.6332 90.375 55.9002 90.375ZM59.6609 89.5199L59.6552 88.483H59.8029L61.5415 86.6364H62.5586L60.5756 88.7386H60.4421L59.6609 89.5199ZM58.8796 91V85.1818H59.729V91H58.8796ZM61.6353 91L60.0728 88.9261L60.658 88.3324L62.6779 91H61.6353ZM63.3327 91V86.6364H64.1822V91H63.3327ZM63.7617 85.9631C63.614 85.9631 63.4871 85.9138 63.381 85.8153C63.2769 85.715 63.2248 85.5956 63.2248 85.4574C63.2248 85.3172 63.2769 85.1979 63.381 85.0994C63.4871 84.9991 63.614 84.9489 63.7617 84.9489C63.9094 84.9489 64.0354 84.9991 64.1396 85.0994C64.2456 85.1979 64.2987 85.3172 64.2987 85.4574C64.2987 85.5956 64.2456 85.715 64.1396 85.8153C64.0354 85.9138 63.9094 85.9631 63.7617 85.9631ZM66.1744 88.4091V91H65.3249V86.6364H66.1403V87.3466H66.1942C66.2946 87.1155 66.4518 86.9299 66.6658 86.7898C66.8817 86.6496 67.1535 86.5795 67.4812 86.5795C67.7785 86.5795 68.0389 86.642 68.2624 86.767C68.4859 86.8902 68.6592 87.0739 68.7823 87.3182C68.9054 87.5625 68.967 87.8646 68.967 88.2244V91H68.1175V88.3267C68.1175 88.0104 68.0352 87.7633 67.8704 87.5852C67.7056 87.4053 67.4793 87.3153 67.1914 87.3153C66.9944 87.3153 66.8192 87.358 66.6658 87.4432C66.5143 87.5284 66.3941 87.6534 66.305 87.8182C66.2179 87.9811 66.1744 88.178 66.1744 88.4091ZM71.9357 92.7273C71.5891 92.7273 71.2908 92.6818 71.0408 92.5909C70.7927 92.5 70.5901 92.3797 70.4329 92.2301C70.2757 92.0805 70.1583 91.9167 70.0806 91.7386L70.8107 91.4375C70.8619 91.5208 70.93 91.6089 71.0153 91.7017C71.1024 91.7964 71.2198 91.8769 71.3675 91.9432C71.5172 92.0095 71.7094 92.0426 71.9442 92.0426C72.2662 92.0426 72.5323 91.964 72.7425 91.8068C72.9528 91.6515 73.0579 91.4034 73.0579 91.0625V90.2045H73.0039C72.9528 90.2973 72.8789 90.4006 72.7823 90.5142C72.6876 90.6278 72.5569 90.7263 72.3903 90.8097C72.2236 90.893 72.0067 90.9347 71.7397 90.9347C71.395 90.9347 71.0844 90.8542 70.8079 90.6932C70.5333 90.5303 70.3155 90.2907 70.1545 89.9744C69.9954 89.6562 69.9158 89.2652 69.9158 88.8011C69.9158 88.3371 69.9944 87.9394 70.1516 87.608C70.3107 87.2765 70.5285 87.0227 70.805 86.8466C71.0816 86.6686 71.395 86.5795 71.7454 86.5795C72.0162 86.5795 72.235 86.625 72.4016 86.7159C72.5683 86.8049 72.698 86.9091 72.7908 87.0284C72.8855 87.1477 72.9585 87.2528 73.0096 87.3438H73.0721V86.6364H73.9045V91.0966C73.9045 91.4716 73.8174 91.7794 73.6431 92.0199C73.4689 92.2604 73.2331 92.4384 72.9357 92.554C72.6403 92.6695 72.3069 92.7273 71.9357 92.7273ZM71.9272 90.2301C72.1715 90.2301 72.378 90.1733 72.5465 90.0597C72.717 89.9441 72.8458 89.7794 72.9329 89.5653C73.0219 89.3494 73.0664 89.0909 73.0664 88.7898C73.0664 88.4962 73.0228 88.2377 72.9357 88.0142C72.8486 87.7907 72.7208 87.6165 72.5522 87.4915C72.3836 87.3646 72.1753 87.3011 71.9272 87.3011C71.6715 87.3011 71.4585 87.3674 71.288 87.5C71.1175 87.6307 70.9888 87.8087 70.9016 88.0341C70.8164 88.2595 70.7738 88.5114 70.7738 88.7898C70.7738 89.0758 70.8174 89.3267 70.9045 89.5426C70.9916 89.7585 71.1204 89.9271 71.2908 90.0483C71.4632 90.1695 71.6753 90.2301 71.9272 90.2301Z" fill="black"/>
<path d="M75.4957 123.727V115H77.3409V121.976H77.392L79.3906 120.723V122.359L77.2301 123.727H75.4957ZM70.1957 114.881C70.832 114.881 71.3988 114.99 71.896 115.209C72.3903 115.43 72.7809 115.734 73.0678 116.121C73.3519 116.51 73.4982 116.959 73.5067 117.467H71.6488C71.6374 117.254 71.5678 117.067 71.44 116.905C71.3093 116.746 71.136 116.622 70.9201 116.534C70.7042 116.446 70.4613 116.402 70.1914 116.402C69.9102 116.402 69.6616 116.452 69.4457 116.551C69.2298 116.651 69.0607 116.788 68.9386 116.964C68.8164 117.141 68.7553 117.344 68.7553 117.574C68.7553 117.807 68.8207 118.013 68.9513 118.192C69.0792 118.374 69.2638 118.516 69.5053 118.618C69.744 118.72 70.0281 118.771 70.3576 118.771H71.1715V120.126H70.3576C70.0792 120.126 69.8335 120.175 69.6204 120.271C69.4045 120.368 69.2369 120.501 69.1175 120.672C68.9982 120.845 68.9386 121.047 68.9386 121.277C68.9386 121.496 68.9911 121.688 69.0962 121.852C69.1985 122.02 69.3434 122.151 69.5309 122.244C69.7156 122.338 69.9315 122.385 70.1786 122.385C70.4286 122.385 70.6573 122.339 70.8647 122.249C71.0721 122.161 71.2383 122.034 71.3633 121.869C71.4883 121.705 71.555 121.511 71.5636 121.29H73.332C73.3235 121.793 73.18 122.236 72.9016 122.619C72.6232 123.003 72.2482 123.303 71.7766 123.518C71.3022 123.737 70.7667 123.847 70.1701 123.847C69.5678 123.847 69.0408 123.737 68.5891 123.518C68.1374 123.3 67.7866 123.004 67.5366 122.632C67.2837 122.263 67.1587 121.848 67.1616 121.388C67.1587 120.899 67.3107 120.491 67.6175 120.165C67.9215 119.838 68.3178 119.631 68.8065 119.543V119.474C68.1644 119.392 67.6758 119.169 67.3406 118.805C67.0025 118.445 66.8349 117.993 66.8377 117.45C66.8349 116.953 66.9783 116.511 67.2681 116.125C67.555 115.739 67.9513 115.435 68.457 115.213C68.9627 114.991 69.5423 114.881 70.1957 114.881Z" fill="black"/>
</svg>
