<svg width="90" height="135" viewBox="0 0 90 135" fill="none" xmlns="http://www.w3.org/2000/svg">
<rect width="90" height="135" rx="8" fill="white"/>
<rect x="4.5" y="4.5" width="81" height="126" rx="7.5" stroke="black"/>
<circle cx="44.5" cy="46.5" r="7.5" fill="#E42A37"/>
<rect x="16" y="43" width="58" height="7" rx="2" fill="black"/>
<circle cx="44.5" cy="67.5" r="7.5" fill="#E42A37"/>
<rect x="16" y="64" width="58" height="7" rx="2" fill="black"/>
<circle cx="44.5" cy="88.5" r="7.5" fill="#E42A37"/>
<rect x="16" y="85" width="58" height="7" rx="2" fill="black"/>
<path d="M13.9332 20.1193C13.2969 20.1193 12.7301 20.0099 12.233 19.7912C11.7386 19.5696 11.348 19.2656 11.0611 18.8793C10.777 18.4901 10.6307 18.0412 10.6222 17.5327H12.4801C12.4915 17.7457 12.5611 17.9332 12.6889 18.0952C12.8196 18.2543 12.9929 18.3778 13.2088 18.4659C13.4247 18.554 13.6676 18.598 13.9375 18.598C14.2188 18.598 14.4673 18.5483 14.6832 18.4489C14.8991 18.3494 15.0682 18.2116 15.1903 18.0355C15.3125 17.8594 15.3736 17.6562 15.3736 17.4261C15.3736 17.1932 15.3082 16.9872 15.1776 16.8082C15.0497 16.6264 14.8651 16.4844 14.6236 16.3821C14.3849 16.2798 14.1009 16.2287 13.7713 16.2287H12.9574V14.8736H13.7713C14.0497 14.8736 14.2955 14.8253 14.5085 14.7287C14.7244 14.6321 14.892 14.4986 15.0114 14.3281C15.1307 14.1548 15.1903 13.9531 15.1903 13.723C15.1903 13.5043 15.1378 13.3125 15.0327 13.1477C14.9304 12.9801 14.7855 12.8494 14.598 12.7557C14.4134 12.6619 14.1974 12.6151 13.9503 12.6151C13.7003 12.6151 13.4716 12.6605 13.2642 12.7514C13.0568 12.8395 12.8906 12.9659 12.7656 13.1307C12.6406 13.2955 12.5739 13.4886 12.5653 13.7102H10.7969C10.8054 13.2074 10.9489 12.7642 11.2273 12.3807C11.5057 11.9972 11.8807 11.6974 12.3523 11.4815C12.8267 11.2628 13.3622 11.1534 13.9588 11.1534C14.5611 11.1534 15.0881 11.2628 15.5398 11.4815C15.9915 11.7003 16.3423 11.9957 16.5923 12.3679C16.8452 12.7372 16.9702 13.152 16.9673 13.6122C16.9702 14.1009 16.8182 14.5085 16.5114 14.8352C16.2074 15.1619 15.8111 15.3693 15.3224 15.4574V15.5256C15.9645 15.608 16.4531 15.831 16.7884 16.1946C17.1264 16.5554 17.294 17.0071 17.2912 17.5497C17.294 18.0469 17.1506 18.4886 16.8608 18.875C16.5739 19.2614 16.1776 19.5653 15.6719 19.7869C15.1662 20.0085 14.5866 20.1193 13.9332 20.1193Z" fill="black"/>
<path d="M76.0668 114.881C76.7031 114.881 77.2699 114.99 77.767 115.209C78.2614 115.43 78.652 115.734 78.9389 116.121C79.223 116.51 79.3693 116.959 79.3778 117.467H77.5199C77.5085 117.254 77.4389 117.067 77.3111 116.905C77.1804 116.746 77.0071 116.622 76.7912 116.534C76.5753 116.446 76.3324 116.402 76.0625 116.402C75.7812 116.402 75.5327 116.452 75.3168 116.551C75.1009 116.651 74.9318 116.788 74.8097 116.964C74.6875 117.141 74.6264 117.344 74.6264 117.574C74.6264 117.807 74.6918 118.013 74.8224 118.192C74.9503 118.374 75.1349 118.516 75.3764 118.618C75.6151 118.72 75.8991 118.771 76.2287 118.771H77.0426V120.126H76.2287C75.9503 120.126 75.7045 120.175 75.4915 120.271C75.2756 120.368 75.108 120.501 74.9886 120.672C74.8693 120.845 74.8097 121.047 74.8097 121.277C74.8097 121.496 74.8622 121.688 74.9673 121.852C75.0696 122.02 75.2145 122.151 75.402 122.244C75.5866 122.338 75.8026 122.385 76.0497 122.385C76.2997 122.385 76.5284 122.339 76.7358 122.249C76.9432 122.161 77.1094 122.034 77.2344 121.869C77.3594 121.705 77.4261 121.511 77.4347 121.29H79.2031C79.1946 121.793 79.0511 122.236 78.7727 122.619C78.4943 123.003 78.1193 123.303 77.6477 123.518C77.1733 123.737 76.6378 123.847 76.0412 123.847C75.4389 123.847 74.9119 123.737 74.4602 123.518C74.0085 123.3 73.6577 123.004 73.4077 122.632C73.1548 122.263 73.0298 121.848 73.0327 121.388C73.0298 120.899 73.1818 120.491 73.4886 120.165C73.7926 119.838 74.1889 119.631 74.6776 119.543V119.474C74.0355 119.392 73.5469 119.169 73.2116 118.805C72.8736 118.445 72.706 117.993 72.7088 117.45C72.706 116.953 72.8494 116.511 73.1392 116.125C73.4261 115.739 73.8224 115.435 74.3281 115.213C74.8338 114.991 75.4134 114.881 76.0668 114.881Z" fill="black"/>
</svg>
